<?xml version="1.0" standalone="no"?>
<!DOCTYPE svg PUBLIC "-//W3C//DTD SVG 1.1//EN" "http://www.w3.org/Graphics/SVG/1.1/DTD/svg11.dtd" >
<svg>
<metadata>
Created by FontForge 20090914 at Wed Jun 20 09:24:15 2012
 By www-data
Copyright (c) 2011 TypeSETit, LLC (typesetit@att.net),with Reserved Font Name "Arizonia"
</metadata>
<defs>
<font id="Arizonia-Regular" horiz-adv-x="373" >
  <font-face 
    font-family="Arizonia"
    font-weight="400"
    font-stretch="normal"
    units-per-em="1000"
    panose-1="2 0 5 7 6 0 0 2 0 3"
    ascent="800"
    descent="-200"
    x-height="277"
    cap-height="643.001"
    bbox="-535.002 -350 1787 899.002"
    underline-thickness="10"
    underline-position="-60"
    unicode-range="U+0020-U+20AC"
  />
<missing-glyph horiz-adv-x="1000" 
 />
    <glyph glyph-name=".notdef" horiz-adv-x="1000" 
 />
    <glyph glyph-name="space" unicode=" " horiz-adv-x="267" 
 />
    <glyph glyph-name="exclam" unicode="!" horiz-adv-x="389" 
d="M365 542c21.333 0 31.999 -7.33301 31.999 -22c0 -10.667 -19 -32 -57 -64c-18 -14.667 -33.333 -28.5 -46 -41.5s-27.834 -31.833 -45.501 -56.5s-33 -48.834 -46 -72.501s-23.833 -46.834 -32.5 -69.501c-18.667 -45.333 -20 -71.666 -4 -78.999
c4 -1.33301 5.33301 -3.16602 4 -5.49902s-4 -2.5 -8 -0.5c-23.333 12 -35 33.333 -35 64c0 7.33301 1 15.333 3 24c6.66699 44 21.834 89.833 45.501 137.5s45.834 83.167 66.501 106.5c47.333 52.667 88.333 79 123 79zM77.999 -7c-8 0 -15.165 2.66699 -21.498 8
s-9.5 11 -9.5 17c0 20 5.66699 36 17 48c16 16.667 32.667 25 50 25c7.33301 0 14.166 -2.5 20.499 -7.5s9.5 -14 9.5 -27s-6.83301 -26.833 -20.5 -41.5s-28.834 -22 -45.501 -22z" />
    <glyph glyph-name="quotedbl" unicode="&#x22;" horiz-adv-x="314" 
d="M153.5 410c5.66699 -9.33301 8.5 -19.167 8.5 -29.5s-4.66699 -26.5 -14 -48.5s-27.333 -44.667 -54 -68c-30 -25.333 -58.667 -38 -86 -38c-2.66699 0 -4 1 -4 3s1.33301 3.33301 4 4c28.667 2.66699 55 16.5 79 41.5s38 52.167 42 81.5
c-15.333 -19.333 -34 -29 -56 -29c-8 0 -14.5 2.33301 -19.5 7s-7.5 9.66699 -7.5 15c0 18 7.66699 34.667 23 50c16.667 16.667 33.5 25 50.5 25s28.333 -4.66699 34 -14zM268 355.999c-19.333 -19.333 -38.001 -29.002 -56.001 -29.002c-8 0 -14.5 2.33301 -19.5 7
s-7.5 9.83398 -7.5 15.501s1 12.667 3 21s9.33301 18.833 22 31.5c14.667 14.667 30.5 22 47.5 22s28.333 -4.66699 34 -14s8.5 -19.166 8.5 -29.499s-4.66699 -26.5 -14 -48.5s-27.333 -44.667 -54 -68c-29.333 -25.333 -57.666 -38 -84.999 -38c-3.33301 0 -5 1 -5 3
s1.33301 3.33301 4 4c29.333 2.66699 56 16.5 80 41.5s38 52.167 42 81.5z" />
    <glyph glyph-name="numbersign" unicode="#" horiz-adv-x="712" 
d="M549 458l57.0049 -0.998047c46 0 75.667 1.5 89 4.5s20 1.16699 20 -5.5c0 -13.333 -22.667 -21.333 -68 -24c-20 -0.666992 -47.167 -1.5 -81.5 -2.5s-60.833 -1.83301 -79.5 -2.5l-104 -154c102.667 0 175 4 217 12c9.33301 2 14.166 -0.666992 14.499 -8
s-7.16699 -13 -22.5 -17c-40 -10 -116.667 -16.667 -230 -20c-43.333 -68 -73.666 -121.667 -90.999 -161c-2.66699 -6 -5.33398 -9 -8.00098 -9s-4.66699 0.333008 -6 1c-6.66699 4.66699 -6.16699 17.667 1.5 39s30.5 64.333 68.5 129h-68.5
c-29 0 -67.833 0.333008 -116.5 1c-44.667 -71.333 -75 -125 -91 -161c-2.66699 -6 -5.33398 -9 -8.00098 -9s-4.66699 0.333008 -6 1c-6.66699 4.66699 -6 18.167 2 40.5s31 65.5 69 129.5c-46.667 1.33301 -71.334 3.66602 -74.001 6.99902l-11.5 12
c-7 7.33301 -10.5 13 -10.5 17s3 6 9 6l110 -5l91 143c-122 1.33301 -185 4.66602 -189 9.99902l-11.5 11c-7 6.66699 -10.5 12.167 -10.5 16.5s3 6.5 9 6.5l225 -8c84.667 125.333 131 188 139 188l28 4c7.33301 0 11 -1.5 11 -4.5s-1.66699 -6.5 -5 -10.5l-131 -178
c30.667 -0.666992 60.667 -1 90 -1s58.666 0.333008 87.999 1c83.333 126 129.666 189 138.999 189l28 4c7.33301 0 11 -1.5 11 -4.5s-1.66699 -6.5 -5 -10.5c-34.667 -44.667 -78 -103.667 -130 -177c11.333 0.666992 25.333 1 42 1zM443.005 425.002
c-80 -2.66699 -140.333 -4 -181 -4l-98 -144c77.333 -2.66699 138 -4 182 -4z" />
    <glyph glyph-name="dollar" unicode="$" horiz-adv-x="530" 
d="M452 320c-12.667 10 -18.9971 20.6689 -18.9971 32.002s2 21.666 6 30.999c16.667 43.333 49.667 81.666 99 114.999c-3.33301 6 -10.5 9 -21.5 9s-27.833 -5.33301 -50.5 -16c-36.667 -52.667 -77 -114.667 -121 -186l20 -9c38.667 -19.333 58 -44.833 58 -76.5
s-16.333 -55.167 -49 -70.5c-20 -10.667 -46.833 -17 -80.5 -19s-51.167 -3 -52.5 -3c-30.667 -56 -49.834 -93.667 -57.501 -113s-13 -29 -16 -29s-4.5 3.66699 -4.5 11c0 20 18.667 63.667 56 131c-32 0 -62.833 6.66699 -92.5 20s-47.834 33.333 -54.501 60
c26 -24 70.667 -36 134 -36c12.667 0 25.334 0.666992 38.001 2l76 129c-20 8 -37.333 19.5 -52 34.5s-22 29.833 -22 44.5c0 22.667 8.16699 43.834 24.5 63.501s36.833 35.167 61.5 46.5c36 17.333 82 32.333 138 45c34.667 51.333 54.667 77 60 77l7 1l5 -1
c3.33301 0 5 -1.66699 5 -5c0 -4.66699 -3.16699 -11 -9.5 -19s-18.166 -24 -35.499 -48c3.33301 0.666992 8.33301 1 15 1c40 0 60 -13 60 -39c0 -2 -0.166992 -5.33301 -0.5 -10s-7.33301 -14.5 -21 -29.5s-28.334 -29.667 -44.001 -44s-29.834 -30.833 -42.501 -49.5
s-18.334 -35.334 -17.001 -50.001zM432.003 480.002c-42.667 -18.667 -77.333 -40.999 -104 -66.999s-40.667 -44.833 -42 -56.5s1.5 -20.334 8.5 -26.001s17.833 -11.5 32.5 -17.5zM382.004 253.503c0 11.667 -7.66699 22.167 -23 31.5
c-3.33301 2.66699 -10.333 5.66699 -21 9l-70 -118c35.333 4.66699 68 20 98 46c10.667 9.33301 16 19.833 16 31.5z" />
    <glyph glyph-name="percent" unicode="%" horiz-adv-x="653" 
d="M592 268c24 -12.667 36 -33.667 36 -63c0 -32.667 -15.833 -66 -47.5 -100s-73.5 -60 -125.5 -78c-24.667 -8.66699 -47.5 -13 -68.5 -13s-36.5 8.33301 -46.5 25c-5.33301 9.33301 -8 19.333 -8 30s1.5 23.5 4.5 38.5s14.667 35.833 35 62.5s41.166 48.667 62.499 66
c33.333 28 69.333 42 108 42c16.667 0 33.334 -3.33301 50.001 -10zM327 538c6 -2.66699 15.501 -4.00391 28.501 -4.00391s36.833 5.33301 71.5 16s58.334 16 71.001 16s19 -2.66699 19 -8s-3.33301 -12.666 -10 -21.999c-72.667 -96.667 -153 -215.5 -241 -356.5
s-147.333 -247.5 -178 -319.5c-3.33301 -7.33301 -6.5 -11 -9.5 -11s-4.5 3.66699 -4.5 11c0 33.333 48.5 132.833 145.5 298.5s169.833 280.834 218.5 345.501c-10.667 -5.33301 -23.834 -8 -39.501 -8s-34.834 6.66699 -57.501 20c3.33301 -8.66699 5 -17.667 5 -27
c0 -30.667 -17 -65 -51 -103c-30.667 -33.333 -71.667 -58.666 -123 -75.999c-24.667 -8.66699 -47.667 -13 -69 -13s-37 9 -47 27c-4.66699 8.66699 -7 18.334 -7 29.001s1.5 23.5 4.5 38.5s14.833 36 35.5 63s41.667 48.833 63 65.5c32.667 27.333 68 41 106 41l51 -10
c8 -4.66699 14 -9 18 -13zM222.001 513.996c-28.667 0 -59.165 -14.834 -91.498 -44.501s-52.5 -62.5 -60.5 -98.5c-1.33301 -7.33301 -2 -13.666 -2 -18.999c0 -16 6 -27 18 -33c5.33301 -2.66699 13.166 -4 23.499 -4s27.666 5 51.999 15s47.166 26.667 68.499 50
c32.667 34.667 49 65.667 49 93c0 16 -6.16699 26.833 -18.5 32.5s-25.166 8.5 -38.499 8.5zM351.003 67.9951c0 -24.667 12.666 -36.999 37.999 -36.999c12.667 0 31.334 5.16699 56.001 15.5s49.667 29.166 75 56.499c28 31.333 42 60 42 86c0 16 -6 27 -18 33
s-24.667 9 -38 9c-29.333 0 -60.333 -15.167 -93 -45.5s-52.667 -63.5 -60 -99.5c-1.33301 -6.66699 -2 -12.667 -2 -18z" />
    <glyph glyph-name="ampersand" unicode="&#x26;" horiz-adv-x="639" 
d="M291 9c-61.333 -14.667 -110.999 -18.667 -148.999 -12c-68.667 12 -112.334 36 -131.001 72c-6.66699 12.667 -10 23.834 -10 33.501s0.666992 17.5 2 23.5c4 20.667 16.833 42.667 38.5 66s51.834 45.666 90.501 66.999l52 29c12 110.667 81.667 205.334 209 284.001
c50 31.333 92 47 126 47c11.333 0 21.666 -1.66699 30.999 -5c22 -8 33 -22.333 33 -43c0 -36 -24.333 -73.333 -73 -112c-26.667 -22 -55.667 -42.333 -87 -61l-174 -104v-29.5c0 -15 3 -34.833 9 -59.5c50.667 28.667 106 48 166 58c29.333 5.33301 55 8 77 8
c54.667 0 85.667 -17.333 93 -52c0.666992 -4.66699 1 -9 1 -13c0 -22.667 -12.333 -46.334 -37 -71.001c-43.333 -43.333 -116 -80.666 -218 -111.999c40.667 -55.333 85.334 -93 134.001 -113c32.667 -14 58 -21 76 -21s30.5 3.83301 37.5 11.5s10.5 15.667 10.5 24
s-4.66699 18.166 -14 29.499c-20 26 -49.333 39 -88 39c-4 0 -10.167 -0.5 -18.5 -1.5s-12.5 -0.5 -12.5 1.5c-2 5.33301 2.66699 9 14 11c18 2.66699 34.667 4 50 4c42.667 0 73 -11.667 91 -35c9.33301 -10.667 14 -21.5 14 -32.5s-4 -22.167 -12 -33.5
c-15.333 -22.667 -40 -34 -74 -34c-26.667 0 -54.667 6.33301 -84 19c-68.667 29.333 -126.334 68.333 -173.001 117zM571.001 200c0 18.667 -19.332 28 -57.999 28c-65.333 0 -147.333 -20 -246 -60c14 -47.333 35 -91.333 63 -132
c81.333 25.333 147.666 60.333 198.999 105c28 24 42 43.667 42 59zM93.002 24c21.333 -8.66699 44.6699 -13.001 70.0029 -13.001c41.333 0 79.666 3.66699 114.999 11c-34 39.333 -58.333 78.333 -73 117c-22.667 -13.333 -36.334 -22.5 -41.001 -27.5
s-7.33398 -7.33301 -8.00098 -7s-0.666992 2.5 0 6.5c2 14.667 14.667 31.667 38 51l2 1c-9.33301 31.333 -14 61.333 -14 90l-29 -18c-36.667 -25.333 -64.5 -51.666 -83.5 -78.999s-28.5 -53 -28.5 -77s17.333 -42.333 52 -55zM495.006 525.499
c0 21.667 -11.333 32.499 -34 32.499c-26 0 -57 -12.333 -93 -37c-68.667 -46.667 -107 -112 -115 -196c12 7.33301 32.333 19 61 35c60 35.333 105.167 66.333 135.5 93s45.5 50.834 45.5 72.501z" />
    <glyph glyph-name="quotesingle" unicode="'" horiz-adv-x="149" 
d="M153.5 410c5.66699 -9.33301 8.5 -19.167 8.5 -29.5s-4.66699 -26.5 -14 -48.5s-27.333 -44.667 -54 -68c-30 -25.333 -58.667 -38 -86 -38c-2.66699 0 -4 1 -4 3s1.33301 3.33301 4 4c28.667 2.66699 55 16.5 79 41.5s38 52.167 42 81.5
c-15.333 -19.333 -34 -29 -56 -29c-8 0 -14.5 2.33301 -19.5 7s-7.5 9.66699 -7.5 15c0 18 7.66699 34.667 23 50c16.667 16.667 33.5 25 50.5 25s28.333 -4.66699 34 -14z" />
    <glyph glyph-name="parenleft" unicode="(" horiz-adv-x="362" 
d="M380 648c8.66699 4.66699 16.1689 7 22.502 7s9.5 -2.5 9.5 -7.5s-4.33301 -10.5 -13 -16.5c-36 -23.333 -71 -61.666 -105 -114.999c-66.667 -104 -106.667 -219.333 -120 -346c-2 -14.667 -3 -28.667 -3 -42c0 -39.333 7 -72 21 -98c5.33301 -10 18.333 -16.667 39 -20
c3.33301 -0.666992 6.33301 -3.16699 9 -7.5s2 -7.5 -2 -9.5c-32.667 -12 -71 -13 -115 -3c-23.333 5.33301 -38.666 14.666 -45.999 27.999c-8.66699 15.333 -13 36 -13 62s2.66699 53.667 8 83s13.666 62 24.999 98s26.166 72.833 44.499 110.5s39.166 73.5 62.499 107.5
c51.333 76.667 110 133 176 169z" />
    <glyph glyph-name="parenright" unicode=")" horiz-adv-x="399" 
d="M63 -44c-8.66699 -5.33301 -16.1689 -7.99805 -22.502 -7.99805s-9.5 2.5 -9.5 7.5s4.33301 10.5 13 16.5c36 24 71 62.667 105 116c66.667 103.333 107 218.333 121 345c1.33301 14.667 2 28.667 2 42c0 39.333 -7 72 -21 98c-4.66699 10 -17.667 16.667 -39 20
c-3.33301 0.666992 -6.33301 3.33398 -9 8.00098s-2 7.66699 2 9c14 6 32 9 54 9s43.5 -2.33301 64.5 -7s35.167 -13.667 42.5 -27c8.66699 -15.333 13 -35.833 13 -61.5s-2.66699 -53.334 -8 -83.001s-13.666 -62.334 -24.999 -98.001s-26.166 -72.334 -44.499 -110.001
s-38.833 -73.5 -61.5 -107.5c-52 -76.667 -111 -133 -177 -169z" />
    <glyph glyph-name="asterisk" unicode="*" horiz-adv-x="534" 
d="M500 236c0 -5.33301 -2.99805 -8.00293 -8.99805 -8.00293c-68 -6.66699 -130.667 -17 -188 -31c43.333 -26 89.666 -62.333 138.999 -109c6 -6 7.16699 -11 3.5 -15s-7.83398 -4.33301 -12.501 -1c-42 28.667 -97.333 59.334 -166 92.001
c-25.333 -72 -52.666 -131.667 -81.999 -179c-2.66699 -5.33301 -5.33398 -8 -8.00098 -8s-5.5 1 -8.5 3s-3.16699 5.66699 -0.5 11c18 46.667 35.333 107 52 181c-59.333 -13.333 -121 -21.333 -185 -24c-8.66699 0 -13 3.33301 -13 10c0 4.66699 3 7.33398 9 8.00098
c43.333 8 103 25 179 51c-42 40 -82 86 -120 138c-4.66699 7.33301 -4.83398 12.5 -0.500977 15.5s8.5 2.5 12.5 -1.5c32 -33.333 79.667 -73.666 143 -120.999c38.667 67.333 79.667 125.333 123 174c2.66699 3.33301 5.83398 5 9.50098 5s6.16699 -1.33301 7.5 -4
s1 -6 -1 -10c-46 -69.333 -76.667 -128.333 -92 -177c60.667 9.33301 103.667 14 129 14c47.333 0 73 -2.66699 77 -8c1.33301 -2 2 -4 2 -6z" />
    <glyph glyph-name="plus" unicode="+" horiz-adv-x="438" 
d="M190 9c0 -6.66699 -3.49805 -10.0029 -10.498 -10.0029s-10.5 4 -10.5 12c4 48.667 21.333 103.334 52 164.001c-29.333 -3.33301 -71.333 -9.66602 -126 -18.999c-5.33301 -0.666992 -8 3.66602 -8 12.999s1.5 18.5 4.5 27.5s6.83301 13.5 11.5 13.5
c46.667 4.66699 93.667 7 141 7c28 46 59 86 93 120c4 4 9.16699 6 15.5 6s13.666 -1.16699 21.999 -3.5s10.5 -5.16602 6.5 -8.49902c-35.333 -36.667 -67.333 -74.667 -96 -114c63.333 -0.666992 111.666 -5.66699 144.999 -15c4.66699 -1.33301 7 -4 7 -8
s-1.5 -7.66699 -4.5 -11s-6.83301 -5 -11.5 -5c-28 2.66699 -55.5 4 -82.5 4s-53.5 -1.33301 -79.5 -4c-42.667 -65.333 -65.667 -121.666 -69 -168.999z" />
    <glyph glyph-name="comma" unicode="," horiz-adv-x="229" 
d="M139.5 76c5.66699 -9.33301 8.50195 -19.1689 8.50195 -29.502s-4.66699 -26.5 -14 -48.5s-27.333 -44.667 -54 -68s-54.334 -36 -83.001 -38c-4 0 -6.33301 1.33301 -7 4c1.33301 1.33301 2.66602 2.33301 3.99902 3c29.333 2.66699 56 16.5 80 41.5s38 52.167 42 81.5
l-5 -4c-16.667 -16.667 -33.667 -25 -51 -25c-8 0 -14.5 2.33301 -19.5 7s-7.5 9.83398 -7.5 15.501s1 12.834 3 21.501s9.33301 19 22 31c14.667 14.667 30.5 22 47.5 22s28.333 -4.66699 34 -14z" />
    <glyph glyph-name="hyphen" unicode="-" horiz-adv-x="438" 
d="M87 169.5c0 9 1.5 17.998 4.5 26.998s6.83301 13.5 11.5 13.5c46 4.66699 89.5 7 130.5 7s79.167 -2.66699 114.5 -8c8 -1.33301 12 -4.66602 12 -9.99902s-3.33301 -8 -10 -8c-48 -1.33301 -98.333 -6.66602 -151 -15.999c-68 -12.667 -103.667 -19 -107 -19
s-5 4.5 -5 13.5z" />
    <glyph glyph-name="period" unicode="." horiz-adv-x="202" 
d="M78 -7c-8 0 -15.165 2.66699 -21.498 8s-9.5 11 -9.5 17c0 20 5.66699 36 17 48c16 16.667 32.667 25 50 25c7.33301 0 14.166 -2.5 20.499 -7.5s9.5 -14 9.5 -27s-6.83301 -26.833 -20.5 -41.5s-28.834 -22 -45.501 -22z" />
    <glyph glyph-name="slash" unicode="/" horiz-adv-x="595" 
d="M448 584l35.001 4.99902c9.33301 0 14 -2.33301 14 -7c-0.666992 -3.33301 -2.66699 -7.33301 -6 -12c-85.333 -110.667 -175.333 -236.167 -270 -376.5s-156.334 -244.166 -185.001 -311.499c-3.33301 -7.33301 -7.33301 -11 -12 -11c-2 0 -4.66699 1 -8 3s-5 6 -5 12
c0 28 38.667 104.833 116 230.5s148.333 235 213 328s100.667 139.5 108 139.5z" />
    <glyph glyph-name="zero" unicode="0" horiz-adv-x="540" 
d="M460 404c42 -20.667 63.001 -55.6641 63.001 -104.997c0 -16.667 -4.33301 -36.334 -13 -59.001c-13.333 -38.667 -38 -77.334 -74 -116.001c-44.667 -48.667 -104.334 -88.667 -179.001 -120c-50.667 -20.667 -91 -31 -121 -31c-72 0 -108 32.333 -108 97
c0 89.333 54.333 179.666 163 270.999c54 44 112.333 70.333 175 79c8 0.666992 15.667 1 23 1c25.333 0 49 -5.66699 71 -17zM313.001 342.003c-40.667 0 -84.499 -19.002 -131.499 -57.002s-82.167 -86.667 -105.5 -146c-10 -26.667 -15 -50.667 -15 -72
c0 -27.333 11 -46.333 33 -57c9.33301 -4.66699 22.166 -7 38.499 -7s39.5 6.33301 69.5 19c46.667 20.667 91.667 54.334 135 101.001c28.667 31.333 47.834 59.833 57.501 85.5s14.5 43.834 14.5 54.501c0 32.667 -10.333 54 -31 64s-42.334 15 -65.001 15z" />
    <glyph glyph-name="one" unicode="1" horiz-adv-x="310" 
d="M128.5 335c55 42 100.503 72.333 136.503 91s61.667 28 77 28s26 -2 32 -6s9 -6.83301 9 -8.5s-0.333008 -2.83398 -1 -3.50098l-5 -1h-4c-16.667 0 -35.167 -11.167 -55.5 -33.5s-40.833 -53.5 -61.5 -93.5s-39.5 -79.167 -56.5 -117.5l-52 -120
c-17.667 -41.667 -29.834 -69.5 -36.501 -83.5c-32.667 4.66699 -55.334 18.334 -68.001 41.001c-3.33301 6 -5 14.5 -5 25.5s3.33301 26.167 10 45.5c29.333 81.333 71.666 158 126.999 230c-38 -25.333 -87.333 -54.333 -148 -87c-10 -6 -15 -5.66699 -15 1
s5.66699 13.167 17 19.5s44.5 30.5 99.5 72.5z" />
    <glyph glyph-name="two" unicode="2" horiz-adv-x="583" 
d="M441 78c30.667 -10 53.667 -23.5029 69 -40.5029s23 -33.833 23 -50.5s-2.33301 -25 -7 -25c-4 0 -5.33301 1.83301 -4 5.5s2 6.5 2 8.5c0 8.66699 -7.33301 17.334 -22 26.001c-37.333 21.333 -104.666 32 -201.999 32c-57.333 0 -100.5 -3 -129.5 -9
s-53.167 -12 -72.5 -18l-47 -15c-12 -4 -25.667 -7.33301 -41 -10c-24 -3.33301 -36 3.66699 -36 21c0 14.667 6.66699 28.667 20 42c28.667 27.333 75 47 139 59c23.333 4.66699 41.333 10 54 16c113.333 48.667 188.333 83.334 225 104.001c58.667 34 88 69.667 88 107
c0 21.333 -8.5 39.666 -25.5 54.999s-35.5 24.5 -55.5 27.5s-39 4.5 -57 4.5c-54 0 -101.5 -10.667 -142.5 -32s-61.5 -40 -61.5 -56c0 -11.333 10.667 -17 32 -17c17.333 0 39.333 3.33301 66 10c54 13.333 92.667 32.333 116 57c2.66699 2.66699 4.66699 2.66699 6 0
c1.33301 -3.33301 2 -6.33301 2 -9c0 -15.333 -13.667 -31.666 -41 -48.999s-56.666 -29.833 -87.999 -37.5s-60.5 -11.5 -87.5 -11.5s-45.5 6.66699 -55.5 20c-4 5.33301 -6 11 -6 17c0 12.667 9.83301 28.167 29.5 46.5s51.5 36.166 95.5 53.499c75.333 30 144 45 206 45
c81.333 0 134 -21.333 158 -64c8 -11.333 12 -23.666 12 -36.999s-3.66699 -28 -11 -44c-14.667 -31.333 -44.334 -61.166 -89.001 -89.499s-133.334 -64.833 -266.001 -109.5c76 -1.33301 144 -12.333 204 -33z" />
    <glyph glyph-name="three" unicode="3" horiz-adv-x="601" 
d="M237 411c53.333 28.667 129.003 43.0068 227.003 43.0068c42 0 75.333 -9 100 -27c16.667 -12 25 -28.167 25 -48.5s-13.667 -42.333 -41 -66s-57 -40.834 -89 -51.501c30 -2.66699 54.333 -11.334 73 -26.001c23.333 -18.667 35 -44.667 35 -78
c0 -42.667 -21.333 -84.667 -64 -126c-52 -50.667 -134.667 -88.334 -248 -113.001c-36 -7.33301 -68 -11 -96 -11s-52.667 1.66699 -74 5c-53.333 8.66699 -83 32.667 -89 72c-0.666992 4 -1 8 -1 12c0 45.333 43 85.666 129 120.999c43.333 17.333 104 26 182 26
c42 0 67.333 -4.33301 76 -13c3.33301 -3.33301 4 -6 2 -8s-5.33301 -2.83301 -10 -2.5s-12.334 0.5 -23.001 0.5s-43.667 -6 -99 -18s-102.333 -26.167 -141 -42.5s-63 -30.5 -73 -42.5s-15 -21 -15 -27c0 -18 16 -32 48 -42c20.667 -6.66699 45 -10 73 -10
c64.667 0 134.667 17.333 210 52c88 40 132 84 132 132c0 24.667 -13.5 48.167 -40.5 70.5s-60.167 35.166 -99.5 38.499c-20 1.33301 -30 6.66602 -30 15.999c0 12 17 19 51 21s64.167 10.167 90.5 24.5s39.5 34.166 39.5 59.499c0 30.667 -16.667 52.334 -50 65.001
c-14.667 6 -33 9 -55 9s-49.833 -4 -83.5 -12s-55.167 -21.667 -64.5 -41c-2 -4 -3 -7.66699 -3 -11c0 -8 5.33301 -14.333 16 -19c22.667 -10.667 42 -17 58 -19c4.66699 -0.666992 6.66699 -3 6 -7c-2.66699 -2.66699 -15.334 -4 -38.001 -4s-46.334 5.33301 -71.001 16
c-15.333 6.66699 -23 15.667 -23 27c0 19.333 16 37.666 48 54.999z" />
    <glyph glyph-name="four" unicode="4" horiz-adv-x="426" 
d="M277 162c-24 -60.667 -35.999 -103.169 -35.999 -127.502s10 -41.166 30 -50.499c5.33301 -5.33301 -2.33398 -8 -23.001 -8c-39.333 0 -65.333 15 -78 45c-5.33301 11.333 -8 27.5 -8 48.5s8.66699 50.5 26 88.5c-39.333 -4 -73 -9.83301 -101 -17.5
s-48.667 -11.5 -62 -11.5s-21 3.33301 -23 10c-1.33301 1.33301 -2 3 -2 5c0 6 4.5 13.5 13.5 22.5s25.5 22.333 49.5 40l92 70.5l100 77c108.667 80 180.667 120 216 120c8.66699 0 15.167 -1.66699 19.5 -5s6.5 -6 6.5 -8c0 -2.66699 -3.33301 -4 -10 -4
c-27.333 0 -58.5 -24.833 -93.5 -74.5s-67.833 -109.167 -98.5 -178.5c46.667 -3.33301 82.167 -11.5 106.5 -24.5s36.5 -29.167 36.5 -48.5c0 -4.66699 -0.666992 -9.5 -2 -14.5s-3.5 -7.16699 -6.5 -6.5s-4 2.33398 -3 5.00098s1.5 5 1.5 7c0 10.667 -12.5 20 -37.5 28
s-62.833 12 -113.5 12zM303.001 356.998c-22 -14.667 -97.332 -71.333 -225.999 -170c33.333 8.66699 77.666 14.667 132.999 18c7.33301 14 22.5 40 45.5 78s38.833 62.667 47.5 74z" />
    <glyph glyph-name="five" unicode="5" horiz-adv-x="612" 
d="M223 271c38.667 7.33301 71.335 10.998 98.002 10.998c70 0 120.667 -12.333 152 -37c24 -20.667 36 -44.334 36 -71.001c0 -15.333 -4.33301 -31.666 -13 -48.999c-36 -74 -120.333 -125.333 -253 -154c-35.333 -7.33301 -65.833 -11 -91.5 -11
s-46.834 0.666992 -63.501 2c-50.667 6 -78.667 25.667 -84 59c-0.666992 3.33301 -1 7 -1 11c0 39.333 37.333 74.333 112 105c38 14.667 91.667 22 161 22c44.667 0 66.667 -5.33301 66 -16c-0.666992 -2.66699 -3.33398 -3.83398 -8.00098 -3.50098
s-11.334 0.5 -20.001 0.5s-37.5 -5.33301 -86.5 -16s-91.833 -23.667 -128.5 -39c-50.667 -21.333 -76 -41.666 -76 -60.999c0 -4 1.33301 -8 4 -12c12.667 -23.333 50.334 -35 113.001 -35s117 12 163 36c82 42 123 83.333 123 124c0 21.333 -12.333 42.333 -37 63
c-15.333 12.667 -39.666 23 -72.999 31s-70 12 -110 12h-10l-20 -22c-7.33301 -8 -16 -10 -26 -6c-9.33301 5.33301 -9 13 1 23c58.667 50.667 107.334 97 146.001 139c-10 8.66699 -16.333 18 -19 28c-6 20 -4.66699 32.667 4 38c3.33301 4 10.166 5.33301 20.499 4
s19.5 -3.66602 27.5 -6.99902c24 -9.33301 46 -16.5 66 -21.5s44.167 -7.5 72.5 -7.5s58.833 3 91.5 9c61.333 12 92 29.667 92 53c0 4.66699 1 7.33398 3 8.00098c2 -2 3.33301 -4.33301 4 -7c-0.666992 -26 -12.834 -49 -36.501 -69s-51.167 -34 -82.5 -42
c-54 -14 -93.333 -21 -118 -21c-44 0 -79.667 7.66699 -107 23l-46.5 -47.5z" />
    <glyph glyph-name="six" unicode="6" horiz-adv-x="485" 
d="M100 136c-12 -34.667 -18.002 -61.665 -18.002 -80.998s6.33301 -31 19 -35c6 -2.66699 12.333 -4 19 -4c20 0 44.833 8.83301 74.5 26.5s53.834 36.167 72.501 55.5c74 76 111 130.667 111 164c0 10.667 -5.33301 16 -16 16c-4 0 -9.33301 -1 -16 -3
c-34.667 -10.667 -79.667 -40 -135 -88c-21.333 -18.667 -36.666 -34.334 -45.999 -47.001c-10 -12 -16.833 -15.5 -20.5 -10.5s0.166016 13.833 11.499 26.5c44 50 89.667 88.167 137 114.5s85.333 39.5 114 39.5c15.333 0 29.833 -4.5 43.5 -13.5s20.5 -21.833 20.5 -38.5
c0 -50.667 -32.333 -106.667 -97 -168c-43.333 -41.333 -96 -71.333 -158 -90c-31.333 -9.33301 -58.666 -14 -81.999 -14c-38 0 -66 10.667 -84 32s-27 46.666 -27 75.999s8 64 24 104c32.667 80 88.667 151 168 213s163.666 100.667 252.999 116
c4 0.666992 9.16699 1 15.5 1s9.5 -2.66699 9.5 -8c0 -4 -4.66699 -7 -14 -9c-61.333 -14 -132.166 -59.5 -212.499 -136.5s-135.833 -156.5 -166.5 -238.5z" />
    <glyph glyph-name="seven" unicode="7" horiz-adv-x="362" 
d="M111 437l-3.99902 -24.002c25.333 -6 46 -9 62 -9s33.333 0.5 52 1.5s53.334 4.33301 104.001 10s82.5 8.5 95.5 8.5s21.167 -3.66699 24.5 -11h-3c-27.333 0 -63 -25 -107 -75c-33.333 -36 -73.333 -84.667 -120 -146c-64 -84 -96 -143.333 -96 -178
c0 -16 6.33301 -27.333 19 -34c2 -1.33301 2 -2.66602 0 -3.99902c-2.66699 -2.66699 -9.66699 -4 -21 -4c-24.667 0 -41.834 7 -51.501 21s-14.5 26.667 -14.5 38c0 30.667 22.333 71 67 121c31.333 36 71.666 77.5 120.999 124.5s76 72.833 80 77.5
c-14 -8 -47.167 -12 -99.5 -12s-92.5 14 -120.5 42c-4 -10.667 -11.667 -25 -23 -43c-24.667 -37.333 -40 -50.666 -46 -39.999c-0.666992 0.666992 -1 1.66699 -1 3s1.33301 3.33301 4 6c11.333 10 21.5 25.5 30.5 46.5s13.5 42.333 13.5 64s5 32.5 15 32.5
c7.33301 0 13.333 -4.33301 18 -13c0.666992 -1.33301 1 -2.33301 1 -3z" />
    <glyph glyph-name="eight" unicode="8" horiz-adv-x="456" 
d="M549 504c0 8.66699 2.99902 13 8.99902 13s9 -5 9 -15c-2 -24.667 -14.667 -52.334 -38 -83.001c1.33301 -4.66699 2 -10.5 2 -17.5s-1.33301 -13.833 -4 -20.5s-5 -11 -7 -13c-4.66699 -3.33301 -7 -0.666016 -7 8.00098c0 10 -0.666992 17 -2 21
c-41.333 -46.667 -112 -104 -212 -172c32.667 -10.667 58 -24.834 76 -42.501s27 -36.167 27 -55.5c0 -28.667 -14.833 -54.5 -44.5 -77.5s-61.667 -39.5 -96 -49.5s-64.5 -15 -90.5 -15h-5c-44.667 0 -82 5 -112 15c-34 12 -51 30.667 -51 56c0 26.667 17 53.334 51 80.001
c28.667 22 58.667 41.667 90 59l74 40c-59.333 20.667 -89 44.667 -89 72c0 30.667 16.333 59.667 49 87c62.667 52 139.667 78 231 78c46.667 0 82.667 -11 108 -33c20.667 23.333 31.334 45 32.001 65zM106.999 45c0 -27.333 23.333 -41 70 -41
c60 0 110.333 15.667 151 47c28 22 42 44.667 42 68c0 36.667 -29.667 67.667 -89 93l-79 -54c-63.333 -46 -95 -83.667 -95 -113zM495.999 417c-15.333 9.33301 -34.165 13.998 -56.498 13.998s-48.5 -5.33301 -78.5 -16c-54.667 -19.333 -94.334 -44.666 -119.001 -75.999
c-13.333 -16.667 -20 -32.5 -20 -47.5s8 -28.833 24 -41.5c117.333 64.667 200.666 120.334 249.999 167.001z" />
    <glyph glyph-name="nine" unicode="9" horiz-adv-x="441" 
d="M176.5 -80.5c-9.66699 -18.333 -16.833 -34.1719 -21.5 -47.5049s-7 -23.166 -7 -29.499s0.833008 -13.333 2.5 -21s7.5 -14.167 17.5 -19.5c3.33301 -1.33301 3.5 -2.83301 0.5 -4.5s-4.83301 -2.5 -5.5 -2.5c-40.667 5.33301 -61 26 -61 62c0 60 31.667 133 95 219
c46 63.333 96.333 126.333 151 189c5.33301 6.66699 6.66602 10.334 3.99902 11.001c-69.333 -69.333 -123.166 -115.666 -161.499 -138.999s-68.666 -35 -90.999 -35s-40.5 5.33301 -54.5 16c-20.667 15.333 -31 37.333 -31 66c0 54 26.667 109.333 80 166
c40 42.667 89.667 72.667 149 90c26.667 8 52.667 12 78 12s49 -6 71 -18c38 -23.333 57 -53.666 57 -90.999c0 -46 -24.333 -97.667 -73 -155l-33.5 -41.5l-42 -51c-15.667 -19 -30.834 -38.333 -45.501 -58l-43 -60c-14 -20.333 -25.833 -39.666 -35.5 -57.999z
M93.001 158.994c0 -18.667 8.00098 -28 24.001 -28c9.33301 0 21 3 35 9c37.333 16 85 53 143 111c27.333 27.333 43.5 44.166 48.5 50.499l16.5 20.5c8 10.667 15.667 23.334 23 38.001s11 25.667 11 33c0 15.333 -10.667 23 -32 23c-24.667 0 -55.834 -11.333 -93.501 -34
s-67.5 -47 -89.5 -73c-57.333 -67.333 -86 -117.333 -86 -150z" />
    <glyph glyph-name="colon" unicode=":" horiz-adv-x="255" 
d="M234 234c0 -19.333 -6.66797 -36.501 -20.001 -51.501s-29.666 -22.5 -48.999 -22.5c-5.33301 0 -11.333 2.66699 -18 8s-10 14.333 -10 27s6.83301 26.334 20.5 41.001s30.167 22 49.5 22c6 0 12 -2.5 18 -7.5s9 -10.5 9 -16.5zM76.999 -7.00098
c-7.33301 0 -14.333 2.66699 -21 8s-10 11 -10 17c0 20 5.66699 36 17 48c16 16.667 32.667 25 50 25c7.33301 0 14.166 -2.5 20.499 -7.5s9.5 -14 9.5 -27s-6.66699 -26.833 -20 -41.5s-28.666 -22 -45.999 -22z" />
    <glyph glyph-name="semicolon" unicode=";" horiz-adv-x="255" 
d="M129 22c-19.333 -19.333 -37.999 -29.001 -55.999 -29.001c-8 0 -14.5 2.5 -19.5 7.5s-7.5 10.167 -7.5 15.5c0 18.667 7.66699 35 23 49c16.667 16.667 33.5 25 50.5 25s28.333 -4.66699 34 -14s8.5 -19.166 8.5 -29.499s-4.66699 -26.5 -14 -48.5
s-27.5 -44.667 -54.5 -68s-54.833 -36 -83.5 -38c-4 0 -6 1.33301 -6 4c1.33301 1.33301 2.66602 2.33301 3.99902 3c28.667 2.66699 55 16.5 79 41.5s38 52.167 42 81.5z" />
    <glyph glyph-name="less" unicode="&#x3c;" horiz-adv-x="296" 
d="M119 150c-22 19.333 -42.167 29.001 -60.5 29.001s-27.5 0.666992 -27.5 2c0 3.33301 13 12.333 39 27c44 26.667 85.5 55.5 124.5 86.5s63.167 56.833 72.5 77.5c3.33301 8 9.5 12 18.5 12s13.5 -0.833008 13.5 -2.5s-0.333008 -2.83398 -1 -3.50098
c-20.667 -44.667 -81.334 -98 -182.001 -160c17.333 -7.33301 34.333 -21 51 -41s28.334 -43 35.001 -69c1.33301 -6 2 -12 2 -18c0 -18.667 -7 -36 -21 -52s-22 -24 -24 -24c-4 0 -3.33301 4.33301 2 13c4.66699 10 7 20 7 30c0 33.333 -16.333 64.333 -49 93z" />
    <glyph glyph-name="equal" unicode="=" horiz-adv-x="438" 
d="M350 206c-49.333 -1.33301 -99.5 -6.66699 -150.5 -16s-85.833 -15.333 -104.5 -18c-4.66699 -0.666992 -7.16699 3.33301 -7.5 12s1 17.667 4 27s6.83301 14.333 11.5 15c41.333 4 82.5 6 123.5 6s81.5 -2.33301 121.5 -7c8 -1.33301 12 -4.83301 12 -10.5
s-3.33301 -8.5 -10 -8.5zM325 100.499c0 -5.66699 -3.66699 -8.50098 -11 -8.50098c-49.333 -1.33301 -99.333 -6.66602 -150 -15.999c-65.333 -12 -100.5 -18 -105.5 -18s-7.5 4.33301 -7.5 13s1.5 17.5 4.5 26.5s6.83301 13.833 11.5 14.5c40.667 4 81.5 6 122.5 6
s82.167 -2.33301 123.5 -7c8 -1.33301 12 -4.83301 12 -10.5z" />
    <glyph glyph-name="greater" unicode="&#x3e;" horiz-adv-x="294" 
d="M199 241c22 -19.333 42 -29 60 -29s27 -0.666992 27 -2c0 -3.33301 -2.83301 -6.83301 -8.5 -10.5s-22.5 -14 -50.5 -31s-62 -41.167 -102 -72.5s-64.667 -57 -74 -77c-3.33301 -7.33301 -11.333 -11.333 -24 -12c-6 0.666992 -8.66699 2.66699 -8 6c22 44 83 97 183 159
c-16.667 7.33301 -33.5 21 -50.5 41s-28.833 43 -35.5 69c-1.33301 6.66699 -2 13 -2 19c0 19.333 7 36.833 21 52.5s22 23.5 24 23.5c4 0 3.33301 -4.33301 -2 -13c-4.66699 -10 -7 -20 -7 -30c0 -33.333 16.333 -64.333 49 -93z" />
    <glyph glyph-name="question" unicode="?" horiz-adv-x="559" 
d="M577 578c6 -17.333 8.99902 -31.668 8.99902 -43.001c0 -33.333 -11 -62.333 -33 -87s-44.833 -45.5 -68.5 -62.5s-50.167 -34.167 -79.5 -51.5l-82 -47c-87.333 -48.667 -131 -84.667 -131 -108c0 -5.33301 1.5 -9.5 4.5 -12.5s4.16699 -6.16699 3.5 -9.5
s-2.5 -5.5 -5.5 -6.5s-6.16699 -0.5 -9.5 1.5c-8 7.33301 -12 15.666 -12 24.999c0 27.333 32.667 63.333 98 108l183 136c48 44.667 72 81.334 72 110.001c0 14.667 -6.66699 27.334 -20 38.001c-20.667 16 -52 24 -94 24c-57.333 0 -108.333 -9.16699 -153 -27.5
s-81.167 -35.833 -109.5 -52.5s-51.5 -33 -69.5 -49c-33.333 -31.333 -40.666 -52.333 -21.999 -63c4 -2 9.66699 -3 17 -3c28 0 65.167 10.5 111.5 31.5s86.833 42.833 121.5 65.5s57.334 43 68.001 61c0 0.666992 0.5 2 1.5 4s2.66699 1.5 5 -1.5s3.5 -7.5 3.5 -13.5
s-4.33301 -15 -13 -27c-44 -64.667 -93.667 -109 -149 -133c-50 -22.667 -93.333 -34 -130 -34c-30.667 0 -51.334 9 -62.001 27c-4 6.66699 -6 13.5 -6 20.5s1.83301 16.167 5.5 27.5s15.667 27.333 36 48s46.666 40.667 78.999 60s64.5 35.333 96.5 48
c96.667 38 171.334 57 224.001 57c56 0 92.667 -20.333 110 -61zM166.999 66.998c0 -19.333 -6.66797 -36.501 -20.001 -51.501s-29.666 -22.5 -48.999 -22.5c-5.33301 0 -11.333 2.66699 -18 8s-10 14.333 -10 27s6.83301 26.334 20.5 41.001s30.167 22 49.5 22
c6 0 12 -2.5 18 -7.5s9 -10.5 9 -16.5z" />
    <glyph glyph-name="at" unicode="@" horiz-adv-x="606" 
d="M385 315c-17.333 -28.667 -28.5 -48.9971 -33.5 -60.9971s-7.5 -23.5 -7.5 -34.5s4.5 -16.5 13.5 -16.5s21.5 4.66699 37.5 14c28.667 18.667 53.5 41.834 74.5 69.501s31.5 53.5 31.5 77.5c0 40 -22.333 72 -67 96c-38 20 -82 30 -132 30
c-51.333 0 -97.5 -11.833 -138.5 -35.5s-72.833 -52.334 -95.5 -86.001s-34 -66.834 -34 -99.501s8.66699 -63.334 26 -92.001s42 -49.167 74 -61.5s59.333 -18.5 82 -18.5c120 0 217.333 44.667 292 134c49.333 60 74 117.667 74 173c0 33.333 -11.333 55 -34 65
c-5.33301 2 -6.5 4.16699 -3.5 6.5s5.83301 2.83301 8.5 1.5c30 -13.333 45 -39.666 45 -78.999c0 -11.333 -1 -23.333 -3 -36c-11.333 -64.667 -45 -127.334 -101 -188.001c-82.667 -88.667 -176.667 -133 -282 -133c-35.333 0 -69 6 -101 18s-57 30.667 -75 56
c-24 33.333 -36 72.666 -36 117.999c0 59.333 20.667 114.333 62 165c25.333 31.333 56.333 57 93 77c56.667 30.667 118.5 46 185.5 46s119.5 -15.333 157.5 -46c24.667 -20 37 -45 37 -75c0 -18 -5.16699 -39.667 -15.5 -65s-32 -53.833 -65 -85.5
s-57.5 -51.5 -73.5 -59.5s-30 -12 -42 -12s-24 5 -36 15s-18 24.667 -18 44c0 6 1.66699 16 5 30c-16 -28 -34.667 -49.667 -56 -65c-23.333 -16 -43.333 -24 -60 -24c-29.333 0 -50 16 -62 48c-3.33301 8 -5 16.333 -5 25c0 28.667 9.33301 56.667 28 84
c19.333 27.333 46.333 46.666 81 57.999c15.333 4.66699 31 7 47 7s32.5 -4.16699 49.5 -12.5s29.5 -18.833 37.5 -31.5c10.667 0 20 -2.83301 28 -8.5s12 -11.167 12 -16.5s-1.66699 -10.666 -5 -15.999zM232.5 218.503c15.667 13.667 26.833 25.168 33.5 34.501
s12.167 16.666 16.5 21.999l11.5 14.5c3.33301 4.33301 7.33301 9.83301 12 16.5c14 21.333 21 37.666 21 48.999c0 6.66699 -3.16699 11.834 -9.5 15.501s-14 5.5 -23 5.5s-19.167 -3 -30.5 -9c-21.333 -10.667 -39.333 -27.667 -54 -51
c-24.667 -40.667 -37 -70.5 -37 -89.5s6 -28.5 18 -28.5s25.833 6.83301 41.5 20.5z" />
    <glyph glyph-name="A" unicode="A" horiz-adv-x="1030" 
d="M978 -89c1.33301 -0.666992 2.00098 -2.00098 2.00098 -4.00098c-1.33301 -4.66699 -4 -5.66699 -8 -3c-58 40.667 -87 100.334 -87 179.001c0 32.667 6.5 67.5 19.5 104.5s36.167 81.5 69.5 133.5s65.666 97 96.999 135l90.5 106.5c29 33 44.167 50.833 45.5 53.5
c8 12 13.333 10.667 16 -4c0.666992 -4.66699 1 -10 1 -16s-1.66699 -11.333 -5 -16c-41.333 -50.667 -81.333 -108 -120 -172c-64.667 -108 -111 -206.333 -139 -295c-10.667 -35.333 -16 -72 -16 -110s11.333 -68.667 34 -92zM146.001 260.999
c109.333 45.333 241.003 68.002 395.003 68.002c76 0 152 -12 228 -36l80 83.5l84 87.5c60 62 109 107.667 147 137c64 50 122.667 75 176 75c24 0 46 -3.83301 66 -11.5s32 -13.667 36 -18s6 -6.83301 6 -7.5s-0.666992 -1.83398 -2 -3.50098
s-3.33301 -0.833984 -6 2.49902c-12.667 12 -37.334 18 -74.001 18c-62 0 -127.333 -27 -196 -81c-49.333 -40 -90.333 -76.5 -123 -109.5l-102.5 -105l-72.5 -74.5c66.667 -24.667 103 -57 109 -97c0.666992 -4 0.5 -6.66699 -0.5 -8s-2.33301 -1.33301 -4 0
s-2.83398 3.33301 -3.50098 6c-5.33301 12.667 -24 22.667 -56 30c-28.667 6.66699 -61.667 11.667 -99 15c-135.333 -130.667 -255 -213.667 -359 -249c-56.667 -20 -110.334 -30 -161.001 -30c-90.667 0 -153.5 13.5 -188.5 40.5s-52.5 56.833 -52.5 89.5
c0 12.667 2.33301 25.667 7 39c20 54.667 75.333 101 166 139zM647.004 236.001c-88.667 0 -181.999 -9.33105 -279.999 -27.998c-150.667 -26.667 -248.667 -66.334 -294 -119.001c-14 -16.667 -21 -32.334 -21 -47.001c0 -17.333 9.33301 -33 28 -47
c22 -16.667 60.167 -25 114.5 -25s113.166 9 176.499 27c94.667 29.333 207.334 108.333 338.001 237c-20.667 1.33301 -41.334 2 -62.001 2z" />
    <glyph glyph-name="B" unicode="B" horiz-adv-x="643" 
d="M366 344c24.667 2.66699 50.668 4 78.001 4s58.166 -3.66699 92.499 -11s60.833 -21 79.5 -41c20.667 -21.333 31 -45.5 31 -72.5s-7.33301 -53.833 -22 -80.5s-37 -53.667 -67 -81c-88 -80 -200 -120 -336 -120c-36.667 0 -69.167 3.83301 -97.5 11.5
s-46.833 14.334 -55.5 20.001s-19.167 13.5 -31.5 23.5s-15.166 15 -8.49902 15c3.33301 0 13.333 -3 30 -9s47.5 -9 92.5 -9s93.167 5.16699 144.5 15.5s95.333 25.833 132 46.5s65.667 44 87 70c26 31.333 39 63 39 95c0 17.333 -4.66699 35 -14 53s-28 31.833 -56 41.5
s-53 14.5 -75 14.5s-47.167 -1.33301 -75.5 -4s-64.5 -11.667 -108.5 -27s-73.333 -33.666 -88 -54.999s-27.334 -41.166 -38.001 -59.499s-21.334 -37.833 -32.001 -58.5s-19 -36.334 -25 -47.001c-4 -9.33301 -8.83301 -14 -14.5 -14s-8.5 2.33301 -8.5 7
c0 22 25.833 72.833 77.5 152.5s101.167 150.334 148.5 212.001s75 92.5 83 92.5c4 0 7.33301 -1.83301 10 -5.5s3.66699 -7.5 3 -11.5l-150 -189c244 40.667 392.333 99 445 175c8 12.667 12 24.667 12 36s-5.33301 22 -16 32c-21.333 19.333 -61.166 29 -119.499 29
s-135 -13.5 -230 -40.5s-161.167 -56.5 -198.5 -88.5c-11.333 -8.66699 -15.333 -15.834 -12 -21.501s4 -8.83398 2 -9.50098s-4.66699 0.333008 -8 3c-14 8 -23 18.167 -27 30.5s-6 21.333 -6 27s1.66699 10.167 5 13.5c28.667 41.333 95.167 78.166 199.5 110.499
s184.166 48.5 239.499 48.5c110.667 0 180.334 -19 209.001 -57c11.333 -14.667 17 -30.334 17 -47.001c0 -26 -14.667 -53 -44 -81c-68 -63.333 -165.667 -109.666 -293 -138.999z" />
    <glyph glyph-name="C" unicode="C" horiz-adv-x="719" 
d="M346 325l24.9971 -3.99609c32 0 79.5 14.167 142.5 42.5s120.833 63.5 173.5 105.5s79 79 79 111c0 20.667 -10.167 35 -30.5 43s-42.5 12 -66.5 12c-78 0 -162 -22.333 -252 -67s-167.667 -97.334 -233 -158.001c-88 -82 -132 -160 -132 -234c0 -32 8 -60 24 -84
s37.333 -42.667 64 -56c50 -24.667 106 -37 168 -37c28 0 62.333 3 103 9c70.667 12.667 131.167 29.334 181.5 50.001s100.833 51.667 151.5 93c2.66699 1.33301 4.33398 2 5.00098 2c3.33301 0 5 -1.5 5 -4.5s-1.33301 -6.5 -4 -10.5
c-50 -54 -119.667 -98.167 -209 -132.5s-173 -51.5 -251 -51.5c-100 0 -175 29.333 -225 88c-27.333 32.667 -41 72 -41 118c0 89.333 48.333 177.666 145 264.999c72.667 65.333 160 121.666 262 168.999s197 71 285 71c54 0 96 -13 126 -39c17.333 -16 26 -35.667 26 -59
c0 -32.667 -16.5 -65.5 -49.5 -98.5s-72.667 -61.167 -119 -84.5s-92.666 -42.833 -138.999 -58.5s-78.666 -24.334 -96.999 -26.001s-32.333 -2.5 -42 -2.5s-19.5 0.333008 -29.5 1c-34.667 3.33301 -52 10.666 -52 21.999c0 3.33301 2 5 6 5z" />
    <glyph glyph-name="D" unicode="D" horiz-adv-x="843" 
d="M863 472c-37.333 54 -108.335 88.6699 -213.002 104.003c-30 4.66699 -59.333 7 -88 7c-106 0 -210 -19 -312 -57c-77.333 -28.667 -136 -62 -176 -100c-26 -23.333 -39 -45.333 -39 -66c0 -12.667 3.33301 -23.334 10 -32.001s8.33398 -14 5.00098 -16
s-6.66602 -1.33301 -9.99902 2c-16.667 19.333 -25 43.666 -25 72.999c0 48 19 87.333 57 118c52 41.333 124.5 75.833 217.5 103.5s180.5 41.5 262.5 41.5s149.333 -11.333 202 -34c104 -44 156 -119.667 156 -227c0 -87.333 -38.333 -171 -115 -251
c-90.667 -94 -221 -155.333 -391 -184c-51.333 -8.66699 -98 -13 -140 -13c-146 0 -234.333 30 -265 90c-3.33301 6.66699 -5 10.667 -5 12c0 5.33301 5.33301 4 16 -4c40 -28 105.5 -42 196.5 -42s184 13.5 279 40.5s176.833 66.5 245.5 118.5
c51.333 38.667 90.333 77.667 117 117c28 41.333 42 78.166 42 110.499s-9 61.833 -27 88.5zM451.998 550.003h13c4.66699 0 7 -1 7 -3c0 -4.66699 -2.66699 -9.66699 -8 -15c-56.667 -62.667 -117.5 -141.167 -182.5 -235.5s-106.5 -165.5 -124.5 -213.5
c-2 -5.33301 -4.33301 -8 -7 -8c-6 0 -9 3.33301 -9 10c0 36 48.667 122.5 146 259.5s152.333 205.5 165 205.5z" />
    <glyph glyph-name="E" unicode="E" horiz-adv-x="834" 
d="M813 528c0 30.667 -27.6699 46 -83.0029 46c-68.667 0 -162 -24.5 -280 -73.5s-210.333 -104.167 -277 -165.5c-40.667 -38 -72 -74.833 -94 -110.5s-33 -66.834 -33 -93.501s7.33301 -50.334 22 -71.001c25.333 -38.667 82.333 -61.667 171 -69
c10 -0.666992 25.667 -1 47 -1s51 3.66699 89 11c98.667 18 195.334 52.333 290.001 103s164.334 108.334 209.001 173.001c8.66699 12.667 13 16 13 10c0 -2.66699 -0.666992 -6.66699 -2 -12c-18 -50.667 -79 -110 -183 -178c-152.667 -100 -300 -150 -442 -150
c-82.667 0 -148 24.333 -196 73c-32 31.333 -48 73.333 -48 126c0 45.333 11.667 89.333 35 132c56.667 106.667 155 201 295 283c82.667 48.667 157 81 223 97c42 8 82 12 120 12s71 -8.66699 99 -26c29.333 -19.333 44 -46.666 44 -81.999
c0 -22.667 -6.66699 -47.667 -20 -75c-4 -8 -6.66699 -10 -8 -6s-0.166016 10.167 3.50098 18.5s5.5 17.833 5.5 28.5zM566.997 303c4 -4.66699 6 -8.50098 6 -11.501s-0.333008 -5.5 -1 -7.5c-4 -5.33301 -11 -4.66602 -21 2.00098c-22.667 16.667 -59 25 -109 25
c-62 0 -123.333 -8.33301 -184 -25c-26 -7.33301 -44 -11 -54 -11c-15.333 0 -25.333 7 -30 21c-0.666992 0.666992 -1 1.66699 -1 3c0 7.33301 6.33301 16 19 26s36.667 18.333 72 25c22 5.33301 47 8 75 8s58.333 -2 91 -6c69.333 -8.66699 115 -25 137 -49z" />
    <glyph glyph-name="F" unicode="F" horiz-adv-x="665" 
d="M620 340c48.667 68 72.999 121.334 72.999 160.001c0 27.333 -13 48.666 -39 63.999c-19.333 11.333 -45 17 -77 17c-58.667 0 -120 -7 -184 -21c-120.667 -26 -218 -56 -292 -90c-54.667 -24.667 -82 -47.667 -82 -69c0 -11.333 7.33301 -22 22 -32
c4 -3.33301 3.33301 -5 -2 -5s-9.33301 1 -12 3c-20 13.333 -30 30.666 -30 51.999s6.16699 42.5 18.5 63.5s32.5 39.167 60.5 54.5c64 36.667 140.667 66.334 230 89.001c96 24.667 185.667 37 269 37c88 0 144.667 -16.333 170 -49c16.667 -20.667 25 -41.167 25 -61.5
s-4 -40.5 -12 -60.5c-14.667 -40.667 -38.334 -80.667 -71.001 -120l-37 -44c10 -5.33301 19 -12 27 -20c6.66699 -8 8.33398 -14.5 5.00098 -19.5s-9.33301 -4.66699 -18 1s-19.667 10.834 -33 15.501c-92 -110 -144 -173.167 -156 -189.5l-29 -39
c-7.33301 -9.66699 -12.166 -16.167 -14.499 -19.5l-12.5 -18c-6 -8.66699 -10.167 -15.667 -12.5 -21l-8.5 -20c-5.33301 -12.667 -8 -28.5 -8 -47.5s8 -28.5 24 -28.5c4.66699 0 10 0.833008 16 2.5s9 0.833984 9 -2.49902s-3.83301 -6.16602 -11.5 -8.49902
s-16 -3.5 -25 -3.5s-18 4 -27 12s-13.5 20.333 -13.5 37s6 36 18 58s30.333 49.833 55 83.5l91.5 119l72.5 92.5c-16.667 2 -40.5 3 -71.5 3s-73.5 -5.66699 -127.5 -17c-8 -1.33301 -18.5 -3.83301 -31.5 -7.5s-22.5 -6.16699 -28.5 -7.5c-24.667 -5.33301 -39 -5 -43 1
c-9.33301 5.33301 -14 11.666 -14 18.999s6.33301 16.166 19 26.499s33 18.166 61 23.499s57 8 87 8c67.333 0 124 -7 170 -21z" />
    <glyph glyph-name="G" unicode="G" horiz-adv-x="912" 
d="M804 519c0 31.333 -27.6699 46.998 -83.0029 46.998c-68.667 0 -162.167 -24.667 -280.5 -74s-210.5 -104.666 -276.5 -165.999c-40.667 -38 -72 -74.833 -94 -110.5s-33 -66.667 -33 -93s7.33301 -50.166 22 -71.499c25.333 -38.667 82.333 -61.667 171 -69
c10 -0.666992 25.667 -1 47 -1s51 3.66699 89 11c90 16 179 46.167 267 90.5s157 95.5 207 153.5c4 13.333 7.16699 26.166 9.5 38.499s-2.5 17.833 -14.5 16.5c-10 -1.33301 -20.667 -6.66602 -32 -15.999s-18 -10.833 -20 -4.5s1.33301 12.833 10 19.5
c22.667 16 43.5 24 62.5 24s32.833 -5.16699 41.5 -15.5s13 -23.166 13 -38.499c0 -34 -19.333 -84.667 -58 -152c-56.667 -96.667 -106.167 -167.5 -148.5 -212.5s-88.166 -80.167 -137.499 -105.5s-99.833 -38 -151.5 -38s-95 11.667 -130 35s-56.167 60 -63.5 110
c-0.666992 5.33301 0.5 7.83301 3.5 7.5s5.16699 -2.5 6.5 -6.5c6.66699 -38 24.834 -69 54.501 -93s63.5 -36 101.5 -36c66 0 139 41.333 219 124c99.333 103.333 171 202.333 215 297c-48.667 -49.333 -114.334 -97 -197.001 -143
c-131.333 -72.667 -255.666 -109 -372.999 -109c-82 0 -147.667 24.333 -197 73c-31.333 31.333 -47 73.666 -47 126.999c0 45.333 11.667 89.333 35 132c56.667 106.667 154.667 200.667 294 282c82.667 48.667 157.334 81 224.001 97c42 8.66699 82.167 13 120.5 13
s71.166 -9 98.499 -27c29.333 -19.333 44 -46.666 44 -81.999c0 -22.667 -6.66699 -47.667 -20 -75c-4 -8 -6.66699 -9.83301 -8 -5.5s-0.166016 10.666 3.50098 18.999s5.5 17.5 5.5 27.5z" />
    <glyph glyph-name="H" unicode="H" horiz-adv-x="812" 
d="M1046 656c6.66699 0 10 -1.66602 10 -4.99902c0 -4.66699 -3.66699 -12 -11 -22c-70.667 -92.667 -146.834 -205.334 -228.501 -338.001s-138.167 -236 -169.5 -310c-5.33301 -11.333 -9.66602 -14 -12.999 -8c-0.666992 2 -1 5.66699 -1 11
c0 27.333 36.167 102 108.5 224s138 227 197 315s92.167 132 99.5 132zM646 563.001c6 0 9.00098 -1.66797 9.00098 -5.00098c0 -4.66699 -3.66699 -12 -11 -22c-54 -72 -111.667 -155 -173 -249c31.333 -2 62.333 -6 93 -12c100 -20.667 150 -52.667 150 -96
c0 -2.66699 -0.666992 -4 -2 -4s-2.66602 1.66699 -3.99902 5c-6.66699 16.667 -43.334 28 -110.001 34c-20 2 -44.333 3 -73 3s-63 -2 -103 -6c-98.667 -156.667 -164.334 -273.667 -197.001 -351c-3.33301 -7.33301 -6.5 -11 -9.5 -11s-4.5 3.33301 -4.5 10
c0 33.333 61 150 183 350c-38.667 -5.33301 -67 -9.66602 -85 -12.999c-117.333 -20.667 -194.666 -52.667 -231.999 -96c-11.333 -14 -17 -27 -17 -39s6.66699 -23.333 20 -34c4 -2.66699 3.33301 -4 -2 -4l-9 3c-28.667 22 -43 47.667 -43 77
c0 28.667 13.667 56.667 41 84c40 40 108.333 68.667 205 86c58 10 112.333 15 163 15h9c117.333 182.667 181.666 274 192.999 274z" />
    <glyph glyph-name="I" unicode="I" horiz-adv-x="595" 
d="M752 521c0 20.667 -16 35 -48 43s-71.167 12 -117.5 12s-106.833 -6.66699 -181.5 -20c-127.333 -23.333 -216.666 -54 -267.999 -92c-22 -16 -33 -31.667 -33 -47s10.667 -30.333 32 -45c4.66699 -2.66699 4.5 -4.16699 -0.5 -4.5s-9.16699 0.833984 -12.5 3.50098
c-16.667 11.333 -28.667 27.333 -36 48c-3.33301 9.33301 -5 19.666 -5 30.999c0 40.667 20.333 72.334 61 95.001c51.333 30 115.333 53.833 192 71.5s149 26.5 217 26.5c45.333 0 90.666 -8.33301 135.999 -25c24 -9.33301 42 -22.333 54 -39s18 -34.334 18 -53.001
c0 -15.333 -1.83301 -22.833 -5.5 -22.5s-5 2.5 -4 6.5s1.5 7.66699 1.5 11zM646 563c6 0 8.99902 -1.66699 8.99902 -5c0 -4.66699 -3.66699 -12 -11 -22c-98.667 -130 -199.667 -282.333 -303 -457c43.333 -4.66699 81.5 -12.5 114.5 -23.5s59.5 -27.333 79.5 -49
s30 -46.167 30 -73.5c0 -18 -2.66699 -26.667 -8 -26c-3.33301 0 -4.5 2.33301 -3.5 7s1.5 8 1.5 10c0 15.333 -11.667 29.333 -35 42c-42 22.667 -103.333 34 -184 34c-13.333 0 -27 -0.333008 -41 -1c-34 -60.667 -57.333 -107 -70 -139
c-3.33301 -7.33301 -6.5 -11 -9.5 -11s-4.5 3.66699 -4.5 11c0 17.333 19.667 63.333 59 138c-45.333 -4 -91.333 -15.333 -138 -34c-19.333 -7.33301 -35 -13.5 -47 -18.5s-25.667 -9 -41 -12s-25 -1.5 -29 4.5c-5.33301 4 -8 9.83301 -8 17.5s1.5 16 4.5 25
s9.16699 18.833 18.5 29.5c20 24.667 60 44.667 120 60c32.667 8.66699 64.334 13 95.001 13s54.667 -0.666992 72 -2c60.667 102.667 127.167 208.5 199.5 317.5s112.5 163.5 120.5 163.5z" />
    <glyph glyph-name="J" unicode="J" horiz-adv-x="675" 
d="M700 357c-36 -74 -85.667 -151.832 -149 -233.499s-136 -159.834 -218 -234.501c-153.333 -140 -283 -210 -389 -210c-53.333 0 -90 21.667 -110 65c-5.33301 13.333 -8 27.333 -8 42c0 47.333 16.333 96.666 49 147.999c62.667 96.667 154.334 179.667 275.001 249
c11.333 87.333 51.166 175 119.499 263s144.5 153.333 228.5 196c38 19.333 75 29 111 29s67.333 -9.66699 94 -29c34 -25.333 51 -60.666 51 -105.999s-18 -105 -54 -179zM225 51.001c-24.667 0 -43.999 8.33301 -57.999 25c-156.667 -106.667 -246 -197.334 -268 -272.001
c-2.66699 -10.667 -4 -20.667 -4 -30c0 -24.667 15 -42 45 -52c11.333 -3.33301 22.333 -5 33 -5c34 0 67.333 7 100 21c85.333 35.333 178.333 103.833 279 205.5s182.167 206 244.5 313s93.5 191.5 93.5 253.5c0 51.333 -16.333 85.333 -49 102
c-12.667 6.66699 -29.334 10 -50.001 10s-46.334 -4.66699 -77.001 -14c-89.333 -30.667 -162.666 -82.334 -219.999 -155.001s-92 -155.667 -104 -249c68 33.333 131.667 50 191 50c56 0 87.667 -15.333 95 -46c2 -7.33301 2.66699 -11.666 2 -12.999
s-2.66699 -1.33301 -6 0c-5.33301 2.66699 -14.333 4 -27 4c-58 0 -142 -35.333 -252 -106c8 -19.333 19.667 -29.666 35 -30.999c4.66699 -0.666992 7 -2.66699 7 -6s-3.33301 -5 -10 -5z" />
    <glyph glyph-name="K" unicode="K" horiz-adv-x="667" 
d="M861 663c7.33301 0 10.998 -2.33301 10.998 -7c0 -8 -5.33301 -14 -16 -18c-160 -55.333 -364.667 -178.333 -614 -369c64.667 21.333 122.167 32 172.5 32s94.833 -8.66699 133.5 -26c68.667 -29.333 103 -75.666 103 -138.999c0 -48.667 -25.667 -96.334 -77 -143.001
c-31.333 -28.667 -70.666 -54.334 -117.999 -77.001c-14.667 -7.33301 -23.667 -11 -27 -11s-4.66602 0.666992 -3.99902 2c1.33301 6 15.166 20.667 41.499 44s47.333 50.333 63 81s23.5 59.5 23.5 86.5s-6.66699 52.833 -20 77.5
c-25.333 46.667 -77.666 72.667 -156.999 78h-15c-34 0 -68.5 -5.5 -103.5 -16.5s-56.167 -16.5 -63.5 -16.5s-11 1.33301 -11 4s3.66699 7.33398 11 14.001c66 60.667 176.833 141.5 332.5 242.5s265.5 154.833 329.5 161.5h5zM368.998 606
c22 0 32.999 -6.00098 32.999 -18.001c0 -6 -3.66699 -13.667 -11 -23c-66 -86.667 -143.333 -199.667 -232 -339s-147 -241.666 -175 -306.999c-3.33301 -8 -6.33301 -12 -9 -12s-4 3.33301 -4 10c0 34.667 53.333 149.667 160 345s177.334 307 212.001 335
c7.33301 6 16 9 26 9z" />
    <glyph glyph-name="L" unicode="L" horiz-adv-x="736" 
d="M966 569c0 -59.333 -45.3311 -115.668 -135.998 -169.001c-34.667 -20.667 -74.334 -39 -119.001 -55c-104.667 -38 -202.667 -57 -294 -57c-35.333 0 -62.666 1.66699 -81.999 5c-4 -5.33301 -11.667 -16.833 -23 -34.5l-23.5 -36l-20 -30
c-9 -13.667 -16.167 -23.834 -21.5 -30.501c-16 -20 -31.333 -37.333 -46 -52c-23.333 -22.667 -54.333 -34 -93 -34c-8 0 -17 1.5 -27 4.5s-15.833 6 -17.5 9s-2.16699 4.83301 -1.5 5.5s2.16699 0.333984 4.5 -0.999023s7.33301 -2.16602 15 -2.49902s17.167 0.5 28.5 2.5
c27.333 3.33301 56.666 20 87.999 50c18 18 56.333 68.667 115 152c-56 11.333 -89 32.666 -99 63.999c-1.33301 4.66699 -1 7.16699 1 7.5s3.66699 -1.16699 5 -4.5c8 -12 32.667 -18 74 -18c15.333 0 32.666 0.666992 51.999 2h3
c40.667 56.667 82.167 106.834 124.5 150.501s86.5 78.5 132.5 104.5c75.333 42 149.333 63 222 63c34.667 0 62 -5.33301 82 -16c37.333 -19.333 56 -46 56 -80zM732.002 -48.002c0 -18 -3 -27.001 -9 -27.001c-5.33301 0 -7.16602 2.33301 -5.49902 7
s2.5 8.33398 2.5 11.001c0 17.333 -18 32.333 -54 45c-57.333 20.667 -134.333 31 -231 31c-102.667 0 -192.334 -11.667 -269.001 -35l-62 -20c-28 -8.66699 -49.333 -13 -64 -13c-24.667 0 -37 8.66699 -37 26c0 32.667 29 61 87 85c63.333 25.333 147 38 251 38
c159.333 0 272.333 -21.333 339 -64c34.667 -22.667 52 -50.667 52 -84zM883.002 563.997c7.33301 12.667 11.001 25.668 11.001 39.001c0 30 -34.667 45 -104 45c-12 0 -34.833 -4.33301 -68.5 -13s-66.834 -21.334 -99.501 -38.001c-79.333 -42 -162 -124.333 -248 -247
c86 10.667 180 34.667 282 72c121.333 44 197 91.333 227 142z" />
    <glyph glyph-name="M" unicode="M" horiz-adv-x="1324" 
d="M355 -20c-2.66699 0 -3.99902 2.66211 -3.99902 7.99512c0 9.33301 18.667 37.333 56 84l65 79l79 97c54.667 70.667 91.167 124.334 109.5 161.001s27.5 67 27.5 91c0 54.667 -45.333 82 -136 82c-96 0 -220.667 -26 -374 -78c-107.333 -36.667 -161 -70.667 -161 -102
c0 -11.333 7.66699 -22.333 23 -33c4.66699 -2.66699 4.5 -4.16699 -0.5 -4.5s-9.16699 0.5 -12.5 2.5c-20 13.333 -30 30.666 -30 51.999s6.16699 42.5 18.5 63.5s32.5 39.167 60.5 54.5c64 36.667 140.667 66.334 230 89.001c96 24.667 185.667 37 269 37
c88 0 144.667 -16.333 170 -49c16.667 -20.667 25 -41.167 25 -61.5s-4 -40.5 -12 -60.5c-14.667 -40.667 -38.334 -80.667 -71.001 -120c-6.66699 -8.66699 -29.167 -35.5 -67.5 -80.5l-89.5 -107.5c240.667 253.333 410 380 508 380c28 0 48 -12 60 -36
c6.66699 -13.333 10 -25 10 -35s-0.666992 -21.333 -2 -34c-2 -33.333 -30 -95.666 -84 -186.999c81.333 84.667 154 150.667 218 198c77.333 57.333 143.333 86 198 86c31.333 0 47 -13.167 47 -39.5s-16.667 -64.166 -50 -113.499
c-196.667 -288.667 -295 -480.667 -295 -576c0 -30 8.66699 -46.333 26 -49c10.667 -2 22 1.33301 34 10c4.66699 3.33301 8.66699 2.83301 12 -1.5s2 -9.33301 -4 -15s-13 -8.5 -21 -8.5s-17.333 0.666992 -28 2s-24.667 5.5 -42 12.5s-31.833 18.667 -43.5 35
s-17.5 34.5 -17.5 54.5c0 28.667 3.66699 54.334 11 77.001c18 52.667 102.333 184 253 394c45.333 63.333 68 108.666 68 135.999c0 20.667 -10.667 31 -32 31c-28.667 0 -62.334 -14.667 -101.001 -44c-82.667 -62.667 -175 -150 -277 -262
c-28 -45.333 -62.667 -98.333 -104 -159c-6 -8.66699 -13 -13 -21 -13c-26.667 0 -40 6 -40 18c0 2.66699 0.666992 5.33398 2 8.00098c110.667 192 172.667 315 186 369c4 18.667 6 33.167 6 43.5s-0.333008 18.5 -1 24.5c-4.66699 19.333 -16.667 29 -36 29
s-45.666 -11 -78.999 -33c-57.333 -36.667 -128.333 -95.667 -213 -177s-166 -165.666 -244 -252.999c-2 -2 -4.33301 -3 -7 -3c-38.667 -48.667 -62.667 -73 -72 -73z" />
    <glyph glyph-name="N" unicode="N" horiz-adv-x="585" 
d="M-63 -140c-3.33301 -7.33301 -6.33594 -10.9971 -9.00293 -10.9971s-4 3.33301 -4 10c0 38.667 58.667 151.5 176 338.5s196 304.167 236 351.5c17.333 54.667 37 90.334 59 107.001c4.66699 3.33301 11.834 5 21.501 5s25.334 -4.33301 47.001 -13s32.5 -19 32.5 -31
c0 -5.33301 -2.66699 -10 -8 -14c-30 -25.333 -53.333 -73 -70 -143s-25 -141.333 -25 -214c0 -86.667 10 -154.334 30 -203.001c27.333 70.667 89.833 188.167 187.5 352.5s152.167 246.5 163.5 246.5c0.666992 0 3.66699 0.333008 9 1c20.667 2.66699 31 1 31 -5
c0 -2.66699 -2.33301 -8 -7 -16c-68 -88.667 -138.667 -192 -212 -310s-127.333 -215 -162 -291c13.333 -22 29 -37.333 47 -46c8 -4 15.667 -6 23 -6s13 1.16699 17 3.5s6.66699 3 8 2s2 -2.5 2 -4.5s-0.666992 -3.66699 -2 -5c-15.333 -11.333 -29.333 -17 -42 -17
c-40 0 -74 19.167 -102 57.5s-49 86.166 -63 143.499s-21 111.666 -21 162.999c0 57.333 6.33301 114.666 19 171.999c-71.333 -96.667 -145.666 -208.167 -222.999 -334.5s-130.333 -222.833 -159 -289.5z" />
    <glyph glyph-name="O" unicode="O" horiz-adv-x="701" 
d="M767.5 337.5c-27 -57 -63.832 -115.169 -110.499 -174.502c-58.667 -74 -127.334 -132.333 -206.001 -175c-41.333 -22 -84 -33 -128 -33c-59.333 0 -106.666 21 -141.999 63c-30 35.333 -45 77 -45 125c0 66.667 24.333 139.334 73 218.001
c36 57.333 80.167 108.5 132.5 153.5s99.5 74.5 141.5 88.5c27.333 8 53.333 12 78 12s46 -8.33301 64 -25c20 -18 30 -44.667 30 -80c0 -20.667 -3.66699 -42 -11 -64c-2 -8 -4.33301 -9.33301 -7 -4c-1.33301 2.66699 -1 7.83398 1 15.501s3 15.834 3 24.501
c0 29.333 -17.333 44 -52 44c-50 0 -112.167 -24 -186.5 -72s-130.166 -97.667 -167.499 -149c-51.333 -70.667 -77 -134.334 -77 -191.001c0 -62 34.667 -98.667 104 -110c10 -2 20.333 -3 31 -3c36.667 0 81 9.33301 133 28c93.333 33.333 169.333 86 228 158
c76.667 95.333 115 202 115 320c0 44 -4.83301 76.5 -14.5 97.5s-18.834 33.667 -27.501 38s-16.334 5.5 -23.001 3.5s-9.66699 -1.33301 -9 2c0.666992 6.66699 9 10 25 10s32 -6.66699 48 -20c26.667 -21.333 40 -62.5 40 -123.5s-13.5 -120 -40.5 -177z" />
    <glyph glyph-name="P" unicode="P" horiz-adv-x="539" 
d="M-16 -24c0 24.667 36.001 92.6719 108.001 204.005c-26.667 6.66699 -48.667 16.667 -66 30c-20 16 -30 32.667 -30 50s4.5 30.166 13.5 38.499s13.5 9.83301 13.5 4.5c0 -2.66699 -2 -6.66699 -6 -12s-6 -11 -6 -17c0 -21.333 8.66699 -38.833 26 -52.5
s39 -22.5 65 -26.5c52 77.333 104.333 150.166 157 218.499s83.334 102.5 92.001 102.5c4 0 7.5 -2.33301 10.5 -7s4.5 -9.33398 4.5 -14.001c-84 -104 -160.333 -205.667 -229 -305c6.66699 -0.666992 13.667 -1 21 -1c59.333 0 129.833 13.5 211.5 40.5
s143.334 54.667 185.001 83s72.5 57 92.5 86s30 55.833 30 80.5s-7.83301 46.667 -23.5 66s-37.334 32.5 -65.001 39.5s-51.834 10.5 -72.501 10.5c-72 0 -153.833 -14.667 -245.5 -44s-153.834 -57.666 -186.501 -84.999c-11.333 -8.66699 -15.333 -15.834 -12 -21.501
s4 -8.83398 2 -9.50098s-4.66699 0.333008 -8 3c-14 8 -23 18.167 -27 30.5s-6 21.333 -6 27s1.66699 10.167 5 13.5c24.667 35.333 82.167 68 172.5 98s180.166 49.333 269.499 58c15.333 1.33301 34.5 2 57.5 2s50 -4.33301 81 -13s55.5 -23.334 73.5 -44.001
c22.667 -25.333 34 -56.333 34 -93c0 -50 -22 -100 -66 -150c-25.333 -28.667 -56 -53.667 -92 -75c-56 -32 -123.167 -60 -201.5 -84s-145.166 -36 -200.499 -36c-14 0 -27.667 0.666992 -41 2c-59.333 -85.333 -97 -149 -113 -191c-4 -10.667 -9.66699 -16 -17 -16
s-11 3 -11 9z" />
    <glyph glyph-name="Q" unicode="Q" horiz-adv-x="636" 
d="M647 -214c0 18 -18.9971 33.332 -56.9971 45.999c-56 18.667 -128.667 28 -218 28c-81.333 0 -152 -6.33301 -212 -19c-22 -4.66699 -52.333 -13 -91 -25c-52.667 -16 -86 -24 -100 -24c-23.333 0 -35 7.33301 -35 22c0 29.333 24.667 55.666 74 78.999
c22.667 10.667 49.667 20 81 28c-41.333 14.667 -62 52.334 -62 113.001v11c6 110 51.833 222.5 137.5 337.5s182.5 199.833 290.5 254.5c44 22 87 33 129 33c40.667 0 78 -12 112 -36c38 -27.333 57 -72.666 57 -135.999c0 -68 -32.333 -146 -97 -234
c-43.333 -59.333 -96.833 -115 -160.5 -167s-114.5 -83.833 -152.5 -95.5s-70.333 -17.5 -97 -17.5s-48.5 8.5 -65.5 25.5s-25.5 40.167 -25.5 69.5c0 26.667 7 56 21 88c2.66699 6 5.16699 8 7.5 6s1.5 -8.33301 -2.5 -19s-6 -21.667 -6 -33c0 -25.333 16.667 -38 50 -38
c54 0 125 26.167 213 78.5s153.667 104.833 197 157.5c66.667 80 100 148.667 100 206c0 52.667 -31.667 84.334 -95 95.001c-8.66699 2 -18.334 3 -29.001 3c-36.667 0 -82 -9.33301 -136 -28c-118.667 -39.333 -213.667 -109.166 -285 -209.499s-110 -212.833 -116 -337.5
v-19c0 -31.333 4.66699 -55.5 14 -72.5s21.666 -26.167 36.999 -27.5l8 1c46 8.66699 92.167 13 138.5 13s91.5 -2.33301 135.5 -7c113.333 -10.667 189.666 -35.334 228.999 -74.001c16.667 -17.333 25 -37 25 -59c0 -8 -1 -16 -3 -24s-5 -12 -9 -12
c-4 0.666992 -5.33301 3.16699 -4 7.5s2 8.16602 2 11.499z" />
    <glyph glyph-name="R" unicode="R" horiz-adv-x="587" 
d="M-15 -37c0 32 48 117.999 144 257.999c-3.33301 12 -5 23 -5 33s8.33301 21.667 25 35s29.334 20 38.001 20h3c39.333 54 74.333 99.667 105 137s48.667 56 54 56s9.5 -2.16699 12.5 -6.5s4.5 -8.83301 4.5 -13.5c-53.333 -66 -108 -137.333 -164 -214l2 -7l36 3
c50.667 3.33301 105.667 14.833 165 34.5s108 42.167 146 67.5c78.667 53.333 118 102.333 118 147c0 19.333 -13 35.666 -39 48.999s-66.667 20 -122 20s-130.5 -13.5 -225.5 -40.5s-161.167 -56.5 -198.5 -88.5c-10.667 -9.33301 -14.5 -16.666 -11.5 -21.999
s3.5 -8.33301 1.5 -9s-5 0.333008 -9 3c-14 8 -22.833 18 -26.5 30s-5.5 21 -5.5 27s1.66699 10.333 5 13c22 32 71.167 62.167 147.5 90.5s146.833 47 211.5 56s112.5 13.5 143.5 13.5s56.667 -2 77 -6s38.5 -13 54.5 -27c24.667 -20.667 37 -49.667 37 -87
c0 -36.667 -13.667 -70.667 -41 -102s-62.5 -59.5 -105.5 -84.5s-95.167 -47.5 -156.5 -67.5c-71.333 -23.333 -137 -35 -197 -35c21.333 -53.333 64.166 -107.166 128.499 -161.499s117.5 -81.5 159.5 -81.5c16.667 0 31.334 4 44.001 12s20 18 22 30
c0 3.33301 1.66699 4.33301 5 3c1.33301 -2 2 -3.66699 2 -5c-5.33301 -44.667 -43.333 -67 -114 -67c-40.667 0 -83 10.667 -127 32s-81.5 48 -112.5 80s-55.5 65 -73.5 99c-70.667 -102.667 -114.334 -175 -131.001 -217c-4 -10.667 -9.5 -16 -16.5 -16s-10.5 3 -10.5 9z
" />
    <glyph glyph-name="S" unicode="S" horiz-adv-x="590" 
d="M766 576c-5.33301 8.66699 -14.667 13 -28 13s-25.833 -1.66699 -37.5 -5s-25.5 -8 -41.5 -14c-26 -10.667 -47 -20.667 -63 -30c-60 -32 -116 -69.5 -168 -112.5s-79.333 -75.167 -82 -96.5c-1.33301 -16.667 7.66699 -30.334 27 -41.001c16.667 -10 36 -19.5 58 -28.5
s38 -15.833 48 -20.5c53.333 -26.667 80 -62 80 -106c0 -19.333 -5.66699 -38 -17 -56c-18 -28 -45.167 -51.167 -81.5 -69.5s-75.166 -31.166 -116.499 -38.499c-42.667 -7.33301 -78 -11 -106 -11c-50.667 0 -101.334 10.833 -152.001 32.5s-82 55.5 -94 101.5
c24.667 -22 58.667 -37.667 102 -47s84.666 -14 123.999 -14c58.667 0.666992 102.167 5.33398 130.5 14.001s53 18.834 74 30.501s40.333 25.334 58 41.001s26.5 33 26.5 52s-12.667 36.167 -38 51.5c-2 1.33301 -22.167 9.66602 -60.5 24.999s-67.666 32.333 -87.999 51
s-30.5 40 -30.5 64c0 45.333 28 91.5 84 138.5s117.167 83.5 183.5 109.5s122.833 39 169.5 39c32.667 0 58 -5.83301 76 -17.5s27 -27.834 27 -48.501v-9c-2 -20.667 -38.333 -63.667 -109 -129c-26 -24 -48.833 -50.833 -68.5 -80.5s-29.5 -55.834 -29.5 -78.501v-6
c-20.667 16 -31 37.333 -31 64c0 24 10.333 53.333 31 88c30 50.667 77.667 98.667 143 144z" />
    <glyph glyph-name="T" unicode="T" horiz-adv-x="433" 
d="M860 507c0 31.333 -36.666 52.999 -109.999 64.999c-42.667 6.66699 -91.5 10 -146.5 10s-115.5 -3.33301 -181.5 -10c-164 -16.667 -284 -40.667 -360 -72c-60.667 -24 -76.667 -50.333 -48 -79c3.33301 -3.33301 2.66602 -5 -2.00098 -5s-8.66699 1.66699 -12 5
c-11.333 11.333 -17 24.5 -17 39.5s3.16699 29.333 9.5 43s17.833 27.834 34.5 42.501s36.667 26.667 60 36c71.333 28 154.333 48 249 60c55.333 6.66699 104 10 146 10c120.667 0 220.667 -15.333 300 -46c52 -20.667 84.667 -42.667 98 -66c7.33301 -12 11 -24 11 -36
s-3.66699 -24.333 -11 -37c-8.66699 -12 -18 -19 -28 -21s-14.667 -0.333008 -14 5c1.33301 6 5.33301 14.333 12 25s10 21 10 31zM272.001 50.999c-4.66699 -30 -7 -50.668 -7 -62.001c0 -37.333 11.667 -59 35 -65c3.33301 -1.33301 7 -2 11 -2l27 11
c5.33301 4.66699 8 5.33398 8 2.00098s-2 -6.33301 -6 -9c-10.667 -9.33301 -24.667 -14 -42 -14h-10c-59.333 4.66699 -89 38.667 -89 102c0 34.667 7.66699 74 23 118s38 88.833 68 134.5s95.333 139.167 196 280.5c8 10.667 14.167 16 18.5 16s7.5 -1 9.5 -3s3 -4 3 -6
s-0.333008 -3.66699 -1 -5c-142 -211.333 -223.333 -377.333 -244 -498z" />
    <glyph glyph-name="U" unicode="U" horiz-adv-x="674" 
d="M821 573c14 0 20.998 -2.99805 20.998 -8.99805c0 -2 -1 -4 -3 -6c-61.333 -59.333 -139.666 -181.333 -234.999 -366c-58.667 -112.667 -88 -193.667 -88 -243c0 -31.333 12 -50 36 -56c2.66699 -0.666992 6.83398 -1 12.501 -1s11 2.33301 16 7s8 5.83398 9 3.50098
s-0.5 -4.83301 -4.5 -7.5c-15.333 -13.333 -31 -20 -47 -20c-57.333 0 -86 25.333 -86 76c0 44.667 22.667 109.667 68 195c-68 -88.667 -130.667 -147 -188 -175c-19.333 -9.33301 -37.833 -14 -55.5 -14s-33.834 7 -48.501 21c-22.667 19.333 -34 44.333 -34 75
c0 39.333 15.833 93.333 47.5 162l90.5 189c36.667 74 55 127.333 55 160c0 41.333 -24.333 62 -73 62c-56.667 0 -127 -22.667 -211 -68c-25.333 -13.333 -43 -24 -53 -32s-17.333 -12 -22 -12c-7.33301 0 -13.166 5 -17.499 15s-6.5 20 -6.5 30s2.5 18.833 7.5 26.5
s9.5 13.167 13.5 16.5c31.333 25.333 86.666 44.666 165.999 57.999c40 7.33301 80.667 11 122 11s77.5 -8.66699 108.5 -26s46.5 -43 46.5 -77c0 -8 -1 -16.667 -3 -26c-6.66699 -32.667 -41.667 -106.834 -105 -222.501s-101.333 -192.834 -114 -231.501
c-7.33301 -21.333 -11 -39.833 -11 -55.5s3.5 -28.5 10.5 -38.5s17.833 -15 32.5 -15c46 0 106 41 180 123c44 50 81.333 97.833 112 143.5l107 164.5c40.667 64 68.834 107.167 84.501 129.5s35.5 33.5 59.5 33.5z" />
    <glyph glyph-name="V" unicode="V" horiz-adv-x="484" 
d="M321 63c259.333 393.333 458.33 590.004 596.997 590.004c21.333 0 36 -5.66699 44 -17c1.33301 -2 2 -3.83301 2 -5.5s-1.5 -2.83398 -4.5 -3.50098s-6.16699 -0.666992 -9.5 0s-6 1 -8 1c-38.667 0 -86.667 -20.333 -144 -61s-114.5 -92.334 -171.5 -155.001
s-113.167 -129.667 -168.5 -201c-107.333 -137.333 -179 -239.333 -215 -306c-2.66699 -4.66699 -5.16699 -7 -7.5 -7s-5 0.833008 -8 2.5s-3.16699 5.16699 -0.5 10.5c30.667 51.333 47.334 79 50.001 83c-40.667 -18.667 -68.667 -28 -84 -28c-2 0 -3.33301 0.666992 -4 2
c62.667 231.333 94 400 94 506c0 28.667 -3.33301 56.167 -10 82.5s-16.667 44.833 -30 55.5s-27 16 -41 16c-22.667 0 -45.667 -13.5 -69 -40.5s-46.166 -65.667 -68.499 -116s-33.5 -103.5 -33.5 -159.5c0 -8.66699 0.333008 -17.334 1 -26.001s-1 -13 -5 -13
c-1.33301 0.666992 -2.66602 2.66699 -3.99902 6c-8.66699 16.667 -13 36 -13 58c0 76 10.333 133.667 31 173s46.334 71 77.001 95c43.333 34.667 83.666 52 120.999 52c21.333 0 42 -6.33301 62 -19c50.667 -32.667 76 -108.334 76 -227.001
c0 -94.667 -18.667 -210.667 -56 -348z" />
    <glyph glyph-name="W" unicode="W" horiz-adv-x="814" 
d="M698 554c38.667 0 57.999 -35.6641 57.999 -106.997s-23.333 -173 -70 -305c163.333 257.333 299 418.666 407 483.999c42.667 25.333 82.334 38 119.001 38c19.333 0 33 -5.66699 41 -17c0.666992 -1.33301 1 -2.33301 1 -3c0 -3.33301 -3 -5 -9 -5h-13
c-30.667 0 -67.667 -14.333 -111 -43s-86 -64.834 -128 -108.501s-87.667 -96.834 -137 -159.501c-76.667 -98 -150 -200 -220 -306c-4 -8 -23.667 -17.833 -59 -29.5s-54.5 -17.5 -57.5 -17.5s-4.5 0.333008 -4.5 1s5.66699 13.667 17 39s21.5 49.166 30.5 71.499
l32.5 83.5c28.667 74.667 48.667 135.667 60 183s17 79.333 17 96c0 28.667 -9.33301 43 -28 43c-38 0 -99.333 -47.667 -184 -143c-53.333 -59.333 -102.666 -123.666 -147.999 -192.999c-29.333 -70 -60 -131.333 -92 -184c-4.66699 -7.33301 -25.5 -17 -62.5 -29
s-57.333 -18 -61 -18s-5.16699 0.666992 -4.5 2c79.333 156.667 131 266.834 155 330.501s41.333 113.667 52 150s16 69 16 98s-6.5 51.833 -19.5 68.5s-27.5 25 -43.5 25s-33.333 -5.66699 -52 -17c-38.667 -22 -76.834 -65.333 -114.501 -130s-58.5 -129 -62.5 -193
c-0.666992 -8 -2 -12.333 -4 -13c-2.66699 -0.666992 -4.66699 1 -6 5c-3.33301 10 -5 23.833 -5 41.5s4.66699 47 14 88s24 76.333 44 106s44 55.167 72 76.5c51.333 40 105.333 60 162 60c30.667 0 55 -10.667 73 -32c19.333 -22.667 29 -55.334 29 -98.001
c0 -61.333 -14.667 -136.333 -44 -225c29.333 43.333 63.5 85.333 102.5 126s80.833 77.5 125.5 110.5s82 49.5 112 49.5z" />
    <glyph glyph-name="X" unicode="X" horiz-adv-x="500" 
d="M131 237c-24.667 66 -37.001 129.503 -37.001 190.503s7 102.167 21 123.5c7.33301 14 26.666 25 57.999 33c11.333 3.33301 20.833 5 28.5 5s11.5 -3 11.5 -9c0 -3.33301 -1.33301 -7.33301 -4 -12c-17.333 -26.667 -26 -65.834 -26 -117.501
s4.66699 -99.834 14 -144.501c238 238.667 435 358 591 358c7.33301 0 11 -1.33301 11 -4s-1 -4 -3 -4h-5c-80 0 -199.333 -63.667 -358 -191c-73.333 -58 -149 -124.333 -227 -199c16.667 -64 38.334 -121.667 65.001 -173s53 -84 79 -98c14 -8 25.667 -12 35 -12
c29.333 0 49.666 6.66699 60.999 20c1.33301 1.33301 2.83301 2 4.5 2s2.83398 -0.833008 3.50098 -2.5s0.333984 -3.5 -0.999023 -5.5c-14.667 -18.667 -41.334 -28 -80.001 -28s-79 22.333 -121 67s-78 101 -108 169c-124.667 -122.667 -213.667 -220.667 -267 -294
c-6 -8.66699 -10.833 -13 -14.5 -13s-5.5 1.66699 -5.5 5s2.66699 8.66602 8 15.999c78.667 106 167.334 212 266.001 318z" />
    <glyph glyph-name="Y" unicode="Y" horiz-adv-x="912" 
d="M543 412c-10 -18 -35.0049 -60.6729 -75.0049 -128.006s-70.333 -122.166 -91 -164.499s-31 -73.833 -31 -94.5s8.33301 -31 25 -31c18.667 0 47.334 16.5 86.001 49.5s74.334 68.5 107.001 106.5s56 67.333 70 88c108 156.667 174.667 277.334 200 362.001
c4.66699 15.333 9.66699 23.666 15 24.999c6 5.33301 10.667 3.33301 14 -6c13.333 -36.667 20 -82 20 -136s-9 -118.333 -27 -193c-58 -243.333 -165.333 -420.666 -322 -531.999c-65.333 -47.333 -132.166 -71 -200.499 -71s-125.833 21.5 -172.5 64.5
s-75.334 110.167 -86.001 201.5c-0.666992 6.66699 0 11.167 2 13.5s4.33301 2.33301 7 0s4.33398 -6.16602 5.00098 -11.499c9.33301 -69.333 33.5 -126 72.5 -170s83.833 -66 134.5 -66c56.667 0 113.667 27.667 171 83c36 34.667 65.667 68.334 89 101.001l88 127
c135.333 206 203 380.667 203 524v20c-16 -54 -43 -115 -81 -183c-54 -95.333 -114.333 -179 -181 -251c-104 -112 -181 -168 -231 -168c-25.333 0 -38 13.333 -38 40c0 18 6.33301 43.5 19 76.5s26.334 63.5 41.001 91.5c28 54 59.167 109.833 93.5 167.5
s55 98.334 62 122.001s10.5 42.167 10.5 55.5c0 48.667 -35.667 73 -107 73s-167 -20 -287 -60c-82.667 -28.667 -124 -55 -124 -79c0 -8.66699 6 -17.334 18 -26.001c3.33301 -2 3 -3.16699 -1 -3.5s-7.33301 0.5 -10 2.5c-14.667 10 -22 23.333 -22 40
c0 37.333 20.333 68 61 92c48.667 28 107.667 50.667 177 68c74.667 19.333 142.334 29 203.001 29c94.667 0 144.667 -25.333 150 -76v-20.5c0 -8.33301 -1.66699 -19.666 -5 -33.999s-10.333 -33.166 -21 -56.499s-21 -44 -31 -62z" />
    <glyph glyph-name="Z" unicode="Z" horiz-adv-x="743" 
d="M721 -23c0 38 -65.6641 57.0059 -196.997 57.0059c-101.333 0 -236.333 -12.333 -405 -37l-65 -11c-11.333 -2 -18.333 -3 -21 -3c-13.333 0 -25 7.66699 -35 23c-4.66699 6.66699 -7 14 -7 22s5.33301 16 16 24c24 16 45.667 28.333 65 37l3 2
c96 96 207 190.333 333 283s235 153.667 327 183c-25.333 22.667 -79.333 34 -162 34c-128.667 0 -232.667 -18 -312 -54c-44.667 -20 -67 -41.667 -67 -65c0 -12 5.66699 -24.333 17 -37c2.66699 -2.66699 2.16699 -4 -1.5 -4s-7.16699 1.33301 -10.5 4
c-14 13.333 -21 28.166 -21 44.499s6 34.166 18 53.499c46 72 143.333 113 292 123c19.333 0.666992 44.666 1 75.999 1s63.666 -3 96.999 -9c74.667 -14.667 112 -43.334 112 -86.001v-7c2.66699 -2.66699 4 -5.33398 4 -8.00098s-2 -5.33398 -6 -8.00098
c-0.666992 -6.66699 -2.5 -14 -5.5 -22s-5.33301 -12.5 -7 -13.5s-2.66699 -0.666992 -3 1s0.5 5 2.5 10s2.66699 10.833 2 17.5l-3 -2c-114.667 -52 -228 -117.333 -340 -196s-210.667 -155.667 -296 -231c40.667 12.667 103.667 19 189 19
c187.333 0 314.666 -23 381.999 -69c27.333 -18.667 41 -40.334 41 -65.001c0 -10 -1.83301 -19.5 -5.5 -28.5s-7.16699 -13.5 -10.5 -13.5c-4.66699 0 -5.16699 3.5 -1.5 10.5s5.5 13.833 5.5 20.5z" />
    <glyph glyph-name="bracketleft" unicode="[" horiz-adv-x="399" 
d="M238 -79l-123.996 -3c-24 0 -47.667 2.83301 -71 8.5s-37.333 14.5 -42 26.5c-0.666992 0.666992 -1 2 -1 4c0 12.667 14.167 48 42.5 106s68.166 128.333 119.499 211c64.667 104.667 126.667 188.667 186 252c10 10.667 24.833 23.167 44.5 37.5s36.167 22.333 49.5 24
s31.666 2.5 54.999 2.5s58.666 -2 105.999 -6c6 -0.666992 9 -3.33398 9 -8.00098c0 -8 -4.33301 -12.333 -13 -13c-60.667 0 -109.667 -2.33301 -147 -7c-25.333 -2 -53 -22.333 -83 -61c-62 -81.333 -119.667 -175.666 -173 -282.999s-80 -182 -80 -224
c0 -8.66699 1 -16.334 3 -23.001c6 -6.66699 19.167 -12 39.5 -16s48.166 -6.33301 83.499 -7c4.66699 -0.666992 7.5 -2.66699 8.5 -6s0.333008 -6.66602 -2 -9.99902s-5.83301 -5 -10.5 -5z" />
    <glyph glyph-name="backslash" unicode="\" horiz-adv-x="545" 
d="M32 589l36 -5c7.33301 0 43.333 -46.5 108 -139.5s131.334 -195.167 200.001 -306.5c86 -139.333 129 -222.666 129 -249.999c0 -7.33301 -1.83301 -12 -5.5 -14s-6.16699 -3 -7.5 -3c-4.66699 0 -8.66699 3.66699 -12 11
c-28.667 67.333 -90.334 171.166 -185.001 311.499s-184.667 265.833 -270 376.5c-4 5.33301 -6 9.83301 -6 13.5s4.33301 5.5 13 5.5z" />
    <glyph glyph-name="bracketright" unicode="]" horiz-adv-x="399" 
d="M323 588l104 3.99805c80.667 0 125 -11.667 133 -35c0.666992 -0.666992 1 -2 1 -4c0 -12.667 -14.167 -48.167 -42.5 -106.5s-68 -128.833 -119 -211.5s-102.167 -154.5 -153.5 -215.5s-95 -93.833 -131 -98.5c-11.333 -1.33301 -28.666 -2 -51.999 -2s-58 2 -104 6
c-6 0.666992 -9 3.33398 -9 8.00098c0 8 4.33301 12.333 13 13c52 0 101 2.33301 147 7c25.333 3.33301 53 24 83 62c61.333 80 118.833 174.167 172.5 282.5s80.5 183.833 80.5 226.5c0 8 -1 15 -3 21c-6 6.66699 -19.333 11.834 -40 15.501s-48.667 5.83398 -84 6.50098
c-6.66699 1.33301 -9.33398 5.16602 -8.00098 11.499s5.33301 9.5 12 9.5z" />
    <glyph glyph-name="asciicircum" unicode="^" horiz-adv-x="333" 
d="M301 341c2 0 5.83398 0.498047 11.501 1.49805s8.5 -0.666992 8.5 -5s-7.16699 -8.33301 -21.5 -12s-30.166 -5.5 -47.499 -5.5s-33.666 5.33301 -48.999 16c-24.667 16.667 -37.334 37.667 -38.001 63c-26 -21.333 -53 -38 -81 -50s-51.333 -18 -70 -18
c-8 0 -12 1.16699 -12 3.5s1.33301 5.83301 4 10.5s5.5 6.83398 8.5 6.50098s4.83301 -0.5 5.5 -0.5c17.333 0 40.666 8 69.999 24s57.666 35 84.999 57c6.66699 11.333 19.167 24.5 37.5 39.5s28.166 22.5 29.499 22.5c2.66699 0 1.33398 -5.16699 -3.99902 -15.5
s-8 -21.166 -8 -32.499c0 -34.667 9.66699 -62.667 29 -84c13.333 -14 27.333 -21 42 -21z" />
    <glyph glyph-name="underscore" unicode="_" horiz-adv-x="556" 
d="M556 -125h-556v50h556v-50z" />
    <glyph glyph-name="grave" unicode="`" horiz-adv-x="306" 
d="M239 343.5c0 -3 -3.00098 -4.50195 -9.00098 -4.50195c-36 0 -72 8.16699 -108 24.5s-59.5 30.333 -70.5 42s-16.5 19.834 -16.5 24.501s1.33301 9 4 13s11.167 7.83301 25.5 11.5s22.833 5.5 25.5 5.5s3.33398 -1.33301 2.00098 -4s-2 -5.66699 -2 -9
c0 -13.333 15.167 -31.666 45.5 -54.999s60.5 -37.333 90.5 -42c8.66699 -1.33301 13 -3.5 13 -6.5z" />
    <glyph glyph-name="a" unicode="a" horiz-adv-x="482" 
d="M344.5 126c-7.66699 -10 -17.334 -23.667 -29.001 -41s-17.5 -32 -17.5 -44s5.16699 -18 15.5 -18s27.166 6.33301 50.499 19c46.667 26.667 98.334 66.667 155.001 120c6.66699 6.66699 11 7.66699 13 3v-4c0 -2 -1.33301 -4.33301 -4 -7
c-114.667 -108 -198 -162 -250 -162c-15.333 0 -28.166 5.16699 -38.499 15.5s-15.5 22.5 -15.5 36.5s6 35.333 18 64c-30 -37.333 -62.167 -66.166 -96.5 -86.499s-61.166 -30.5 -80.499 -30.5s-35.833 5.83301 -49.5 17.5s-20.5 26.167 -20.5 43.5
c0 49.333 22 97.666 66 144.999c33.333 35.333 74.666 60.333 123.999 75c22 7.33301 43.5 11 64.5 11s41.333 -5.83301 61 -17.5s32.167 -25.5 37.5 -41.5c20 0 34.333 -7.33301 43 -22c1.33301 -2 2 -5.33301 2 -10s-2.5 -10 -7.5 -16l-18.5 -22
c-7.33301 -8.66699 -14.833 -18 -22.5 -28zM294 253c-14 0 -30.667 -4.33301 -50 -13c-34 -14.667 -66.333 -40 -97 -76c-48.667 -57.333 -73 -99.333 -73 -126c0 -14 5.66699 -21 17 -21c9.33301 0 24.833 6 46.5 18s50.167 35.667 85.5 71l23 22l34 33
c31.333 32.667 47 56.167 47 70.5s-11 21.5 -33 21.5z" />
    <glyph glyph-name="b" unicode="b" horiz-adv-x="400" 
d="M392 232c0 -46.667 -23.3359 -97.3311 -70.0029 -151.998c-34.667 -40.667 -72.667 -70.667 -114 -90c-22 -10 -41.167 -15 -57.5 -15s-31.166 4.5 -44.499 13.5s-20 22.833 -20 41.5s2.66699 37 8 55c-23.333 -35.333 -41.666 -60.333 -54.999 -75s-26 -22 -38 -22h-5
c-17.333 0 -34 7 -50 21c43.333 60.667 77 110 101 148c-15.333 -15.333 -34.333 -32.333 -57 -51c-6 -4.66699 -10.167 -5.5 -12.5 -2.5s0.166992 7.83301 7.5 14.5c20 16.667 34 28.667 42 36c26 25.333 57.333 66.666 94 123.999c102 158 153 256 153 294
c0 13.333 -6.66699 20.333 -20 21c-1.33301 0 -2 0.666992 -2 2s0.666992 2 2 2c30.667 -1.33301 48.334 -21.666 53.001 -60.999v-9c0 -52 -43.333 -154 -130 -306c33.333 33.333 67 56.666 101 69.999c16.667 6.66699 32.167 10 46.5 10s27.833 -3.33301 40.5 -10
c18 -14.667 27 -34.334 27 -59.001zM253.997 239.003c-10.667 0 -24 -4.33203 -40 -12.999c-28.667 -15.333 -54 -40 -76 -74c-26 -39.333 -39 -77 -39 -113c0 -24 6.66699 -39.667 20 -47c7.33301 -4.66699 16.5 -7 27.5 -7s24.833 4.33301 41.5 13
c28 14 53.333 38.333 76 73c25.333 39.333 38 77.166 38 113.499s-16 54.5 -48 54.5z" />
    <glyph glyph-name="c" unicode="c" horiz-adv-x="342" 
d="M290 237c0 12.667 -6.66797 19.002 -20.001 19.002c-11.333 0 -28.833 -5.16699 -52.5 -15.5s-50.167 -32.5 -79.5 -66.5c-35.333 -42 -53 -79.333 -53 -112c0 -24.667 9.33301 -41.334 28 -50.001c6 -2.66699 13 -4 21 -4c27.333 0 59.5 11.667 96.5 35
s84.833 62 143.5 116c9.33301 9.33301 14 9.33301 14 0c0 -4 -2 -7.66699 -6 -11c-81.333 -74.667 -141.166 -120.834 -179.499 -138.501s-68.5 -26.5 -90.5 -26.5c-77.333 0 -116 28.333 -116 85s25.5 105.5 76.5 146.5s104.167 61.5 159.5 61.5c34.667 0 58 -8 70 -24
c7.33301 -8 11 -16.5 11 -25.5s-2.33301 -18.333 -7 -28s-12.167 -14.5 -22.5 -14.5s-11.833 6.5 -4.5 19.5s11 24.167 11 33.5z" />
    <glyph glyph-name="d" unicode="d" horiz-adv-x="394" 
d="M290 46c-12.667 -34.667 -18.999 -62.9961 -18.999 -84.9961s4.66699 -38.667 14 -50c2 -2.66699 2.33301 -4.5 1 -5.5s-2.33301 -1.5 -3 -1.5s-1.66699 0.333008 -3 1c-21.333 17.333 -32 43.166 -32 77.499s7 73.833 21 118.5c-27.333 -35.333 -54.333 -64.333 -81 -87
c-32 -26.667 -64.667 -40 -98 -40c-21.333 0 -41.333 7.16699 -60 21.5s-28 37.833 -28 70.5c-0.666992 16 2.33301 34.333 9 55c-13.333 -12 -21.833 -19.333 -25.5 -22s-6.16699 -2.66699 -7.5 0s-2 5.16699 -2 7.5s2.16699 5.33301 6.5 9s27.5 28.167 69.5 73.5
c24.667 27.333 54 48.666 88 63.999s66.333 23 97 23c28 0 48.5 -4.83301 61.5 -14.5s19.5 -21.834 19.5 -36.501c24 50.667 49.833 98.834 77.5 144.501s49.167 77.167 64.5 94.5c16.667 18.667 37.667 28 63 28s46 -7 62 -21c-14 -8.66699 -41.333 -37.334 -82 -86.001
s-80.334 -100.834 -119.001 -156.501s-70 -116.5 -94 -182.5zM298.001 235.004c0 13.333 -8.33105 19.999 -24.998 19.999c-8.66699 0 -20 -2.66699 -34 -8c-31.333 -12 -62.333 -35.333 -93 -70c-38 -43.333 -57 -84.666 -57 -123.999c0 -23.333 7.66699 -37.333 23 -42
c3.33301 -1.33301 6.66602 -2 9.99902 -2c27.333 0 68 27.333 122 82c14.667 14 27 29 37 45c5.33301 15.333 12.333 33 21 53c-6 -4 -10.833 -4.5 -14.5 -1.5s-2.83398 9.66699 2.49902 20s8 19.5 8 27.5z" />
    <glyph glyph-name="e" unicode="e" horiz-adv-x="342" 
d="M233 156c35.333 19.333 52.999 39.002 52.999 59.002s-12 30 -36 30c-11.333 0 -23.333 -3 -36 -9c-28 -12.667 -55 -34.667 -81 -66c-32 -38.667 -48 -74.667 -48 -108c0 -12.667 3.5 -24.5 10.5 -35.5s19.5 -16.5 37.5 -16.5c31.333 0 71 16.5 119 49.5
s89.333 66.167 124 99.5c8 8 12 8.33301 12 1c0 -4.66699 -2 -8.66699 -6 -12l-49.5 -45.5c-8.33301 -7.66699 -24.833 -21.334 -49.5 -41.001s-44.667 -33.5 -60 -41.5c-47.333 -24.667 -87.5 -37 -120.5 -37s-59 7.5 -78 22.5s-28.5 35.833 -28.5 62.5
c0 56.667 25.333 105.5 76 146.5s103.667 61.5 159 61.5c37.333 0 62.333 -8 75 -24c5.33301 -8 8 -16.5 8 -25.5s-3 -18.833 -9 -29.5c-12 -20.667 -34.5 -38.834 -67.5 -54.501s-64.167 -23.5 -93.5 -23.5c-11.333 0 -17.5 1 -18.5 3s-0.166992 3.5 2.5 4.5
s6.33398 1.5 11.001 1.5c26.667 0 58 9.33301 94 28z" />
    <glyph glyph-name="f" unicode="f" horiz-adv-x="251" 
d="M469 410c0 -2.66699 -1.1709 -3.99512 -3.50391 -3.99512s-3.83301 1.66699 -4.5 5c-4 15.333 -11.667 27.166 -23 35.499s-21.166 12.666 -29.499 12.999s-15.833 0.5 -22.5 0.5c-24 0 -46.333 -6.66699 -67 -20c-39.333 -25.333 -85 -73.333 -137 -144
c36.667 -3.33301 61.334 -10 74.001 -20c24.667 -18.667 34.667 -32.334 30 -41.001c-1.33301 -3.33301 -7.33301 -1.83301 -18 4.5s-27 9.5 -49 9.5s-47.667 -4 -77 -12c-46 -67.333 -80 -136.333 -102 -207c-9.33301 -30.667 -14 -56 -14 -76s4.33301 -35 13 -45
c2.66699 -2.66699 3 -4.33398 1 -5.00098s-3.33301 -1 -4 -1s-1.33398 0.333008 -2.00098 1c-24.667 20 -37 51.667 -37 95s20.333 112 61 206c-3.33301 -1.33301 -5.83301 -1.33301 -7.5 0s-3.66699 4.33301 -6 9s-4.16602 10.5 -5.49902 17.5s-1.16602 14 0.500977 21
s6.5 14.167 14.5 21.5c9.33301 8 25 14.333 47 19c49.333 91.333 97 152.666 143 183.999c30.667 20.667 62.334 31 95.001 31s60.667 -8 84 -24c30.667 -21.333 46 -46 46 -74z" />
    <glyph glyph-name="g" unicode="g" horiz-adv-x="411" 
d="M-93 -274c-58 0 -106.167 12.667 -144.5 38s-57.5 61.333 -57.5 108c0 2.66699 1 4 3 4c4.66699 0 7.66699 -2.66699 9 -8c6 -34 22.333 -63.333 49 -88c12 -11.333 28.5 -20.666 49.5 -27.999s38.5 -11 52.5 -11h27c74 4 138.667 41.333 194 112
c26 33.333 49 66.5 69 99.5l65 110.5c23.333 40.667 43 71.667 59 93c-20.667 -23.333 -46.667 -50 -78 -80s-58.333 -51.667 -81 -65s-43.667 -20 -63 -20s-35.833 5.83301 -49.5 17.5s-20.5 26.167 -20.5 43.5c0 49.333 22 97.666 66 144.999
c33.333 35.333 74.666 60.333 123.999 75c22 7.33301 43.5 11 64.5 11s41.333 -5.83301 61 -17.5s32.167 -25.5 37.5 -41.5c10.667 0 22.334 -4.5 35.001 -13.5s19 -15.5 19 -19.5s-2.66699 -7.33301 -8 -10c-21.333 -10.667 -55 -57.334 -101 -140.001
c-44.667 -79.333 -97 -150.333 -157 -213c-30 -31.333 -64.833 -56.166 -104.5 -74.499s-79.5 -27.5 -119.5 -27.5zM62 40c0 -15.333 8.00098 -23.001 24.001 -23.001c12.667 0 28.334 7 47.001 21c45.333 30 92.666 73.667 141.999 131c22.667 26 34 46.333 34 61
c0 5.33301 -1.83301 10.166 -5.5 14.499s-11.5 6.5 -23.5 6.5s-31.167 -7 -57.5 -21s-53.333 -35.167 -81 -63.5s-47.834 -53.666 -60.501 -75.999s-19 -39.166 -19 -50.499z" />
    <glyph glyph-name="h" unicode="h" horiz-adv-x="401" 
d="M275 244c0 8.66699 -6.32812 13.0049 -18.9951 13.0049c-22.667 0 -50.334 -16 -83.001 -48c-8 -8 -22.5 -24.667 -43.5 -50s-41.5 -54.333 -61.5 -87l-25 -55l3 10c-1.33301 -2.66699 -2.66602 -6.66699 -3.99902 -12v0c-3.33301 -8 -13 -14.667 -29 -20
c-3.33301 -1.33301 -6.33301 -2 -9 -2c-6.66699 0 -7.33398 5 -2.00098 15l28 71.5l39 98.5c-26 -28.667 -50.333 -52 -73 -70c-6.66699 -5.33301 -11.334 -6 -14.001 -2c-0.666992 0.666992 -1 2 -1 4s3 5.66699 9 11c40.667 35.333 72.667 68 96 98
c17.333 40.667 49.166 97.167 95.499 169.5s93.833 132.166 142.5 179.499c32.667 32.667 68 54.667 106 66c17.333 5.33301 33.5 8 48.5 8s29 -4.16699 42 -12.5s19.5 -23.833 19.5 -46.5c0 -30 -10 -60.333 -30 -91s-55.333 -64.834 -106 -102.501
s-97.667 -65.834 -141 -84.501c-8 -3.33301 -12.667 -2.83301 -14 1.5s2 8.16602 10 11.499c38.667 17.333 82.167 44.666 130.5 81.999s80.666 69.166 96.999 95.499s24.5 47.666 24.5 63.999s-7 24.5 -21 24.5c-16 0 -41.333 -13.333 -76 -40
c-51.333 -41.333 -105.166 -99 -161.499 -173s-104.833 -148.667 -145.5 -224c18.667 26.667 35.667 48.667 51 66c37.333 42 73.666 63 108.999 63c33.333 0 53 -14.667 59 -44c0.666992 -4 1 -9.66699 1 -17s-2.5 -18.166 -7.5 -32.499s-19 -40.666 -42 -78.999
s-34.5 -61.5 -34.5 -69.5s2.66699 -12 8 -12c7.33301 0 18.333 4.66699 33 14c37.333 23.333 86 62.666 146 117.999c8 8 11.833 9.33301 11.5 4s-2.5 -10.333 -6.5 -15c-49.333 -50.667 -100.333 -93 -153 -127c-24.667 -16 -47 -24 -67 -24
c-5.33301 0 -10.333 0.666992 -15 2c-26 5.33301 -39 19.833 -39 43.5s9.33301 50.167 28 79.5c3.33301 4.66699 15.666 20.334 36.999 47.001c32.667 40 49 66.667 49 80z" />
    <glyph glyph-name="i" unicode="i" horiz-adv-x="272" 
d="M193 331c1.33301 11.333 7.33203 23.333 17.999 36s25 19 43 19c5.33301 0 11 -2.5 17 -7.5s8.33301 -13.333 7 -25s-6.66602 -22.667 -15.999 -33s-19.833 -17 -31.5 -20s-21.167 -1.5 -28.5 4.5s-10.333 14.667 -9 26zM188.999 252
c-27.333 -28 -50.1719 -63.502 -68.5049 -106.502s-27.5 -73.167 -27.5 -90.5s6.83301 -26 20.5 -26s36.334 10 68.001 30s67.834 48.333 108.501 85c8.66699 8 13 7 13 -3c0 -1.33301 -0.666992 -2.66602 -2 -3.99902l-81 -69c-22 -18 -48.167 -35.167 -78.5 -51.5
s-55.166 -24.5 -74.499 -24.5c-24 0 -41.833 5.33301 -53.5 16s-17.5 22.334 -17.5 35.001c0 24 4.33301 43 13 57s23.334 33.333 44.001 58c-7.33301 -6 -18.833 -16 -34.5 -30s-26.5 -23.333 -32.5 -28s-9 -3.33398 -9 3.99902c0 4.66699 5.33301 11.334 16 20.001
s33.834 30.667 69.501 66s60 56.333 73 63s23.667 10 32 10s14.5 -1.16699 18.5 -3.5s5 -4.83301 3 -7.5z" />
    <glyph glyph-name="j" unicode="j" horiz-adv-x="158" 
d="M109 331c1.33301 11.333 7.33398 23.333 18.001 36s25 19 43 19c5.33301 0 10.666 -2.33301 15.999 -7s8 -9.66699 8 -15s-0.333008 -11.333 -1 -18s-5.66699 -15.167 -15 -25.5s-19.833 -17 -31.5 -20s-21.167 -1.5 -28.5 4.5s-10.333 14.667 -9 26zM117.001 210
c0 -38 -19.6689 -96.333 -59.002 -175s-76.833 -136.834 -112.5 -174.501s-80.167 -69.834 -133.5 -96.501s-105.333 -40 -156 -40s-93.334 11.667 -128.001 35c-42 28.667 -63 65.667 -63 111c0 3.33301 1.5 4.83301 4.5 4.5s4.83301 -2.5 5.5 -6.5
c6.66699 -37.333 24.334 -67.666 53.001 -90.999s63.834 -35 105.501 -35s92.834 23.5 153.501 70.5s114.667 103.5 162 169.5c49.333 66 87.333 129 114 189c-11.333 -14.667 -29 -31.667 -53 -51c-1.33301 -1.33301 -3 -1.33301 -5 0
c-4.66699 3.33301 -5.33398 7.33301 -2.00098 12c46.667 37.333 72.667 72 78 104c0 10.667 -4 17.334 -12 20.001c-3.33301 2 -3.66602 4.33301 -0.999023 7c2.66699 2 6 3 10 3c18.667 0 31 -11.667 37 -35c1.33301 -6 2 -13 2 -21z" />
    <glyph glyph-name="k" unicode="k" horiz-adv-x="333" 
d="M53 91c-18 -44 -27.001 -81 -27.001 -111s4.33301 -50 13 -60c2 -2.66699 2.33301 -4.5 1 -5.5s-2.33301 -1.5 -3 -1.5s-1.66699 0.333008 -3 1c-21.333 18 -33.333 37.667 -36 59c-1.33301 7.33301 -2 15.333 -2 24c0 38.667 11.333 86.334 34 143.001
c-33.333 -33.333 -50.666 -46 -51.999 -38c0.666992 6 5.33398 12.833 14.001 20.5s28.334 30.167 59.001 67.5c66.667 148 154 271.667 262 371c56 52 106.667 78 152 78c37.333 0 59 -15.333 65 -46c1.33301 -4.66699 2 -9.66699 2 -15
c0 -56.667 -56.667 -123.334 -170 -200.001c-39.333 -26.667 -75.333 -47 -108 -61c-8 -3.33301 -12.667 -2.83301 -14 1.5s2 8.16602 10 11.499c30.667 14 65.667 35 105 63s74.666 58.5 105.999 91.5s47 58.5 47 76.5c0 11.333 -6.33301 17 -19 17s-31 -7.33301 -55 -22
c-66.667 -40.667 -139.667 -112 -219 -214c-49.333 -63.333 -90 -121.333 -122 -174c46.667 62 94.667 103 144 123c18.667 6.66699 34.334 10 47.001 10s23.667 -2 33 -6c18 -8 27 -21.333 27 -40c0 -33.333 -19.667 -64.666 -59 -93.999
c-22.667 -16 -48.5 -27.5 -77.5 -34.5s-50.833 -10.5 -65.5 -10.5s-27 2 -37 6c21.333 -27.333 49.166 -51 83.499 -71s62.166 -30 83.499 -30c14 0 25 3.33301 33 10s12 12.167 12 16.5s0.833008 6.5 2.5 6.5s2.5 -0.666992 2.5 -2c0 -23.333 -17.667 -39.333 -53 -48
c-14.667 -3.33301 -33.167 -5 -55.5 -5s-47.5 7 -75.5 21c-42.667 20 -71 43.667 -85 71zM273.999 225c0 23.333 -10.999 35.001 -32.999 35.001c-25.333 0 -53.5 -14 -84.5 -42s-53.833 -51 -68.5 -69c1.33301 -3.33301 4 -8.33301 8 -15c8 -4.66699 17.167 -7 27.5 -7
s27.166 3.16699 50.499 9.5s45.833 17.666 67.5 33.999s32.5 34.5 32.5 54.5z" />
    <glyph glyph-name="l" unicode="l" horiz-adv-x="294" 
d="M75 41c0 -18 9 -27 27 -27c10.667 0 27.5 4.33301 50.5 13s52.833 27.667 89.5 57s61.334 50.5 74.001 63.5s20.334 19.333 23.001 19s3.66699 -2.33301 3 -6s-2.33398 -6.83398 -5.00098 -9.50098c-56.667 -58 -103.667 -99.667 -141 -125s-72 -38 -104 -38
c-27.333 0 -46.333 6.33301 -57 19s-16 27.334 -16 44.001c0 30 10.667 66 32 108c-38.667 -41.333 -58 -54.666 -58 -39.999c0 2.66699 2 5.66699 6 9c31.333 25.333 65 62 101 110c66 86 117.667 161.667 155 227c6.66699 12.667 10 22 10 28c0 14 -7.66699 16.667 -23 8
c-17.333 -8.66699 -26.666 -12 -27.999 -10s-0.333008 4.66699 3 8c16 12 38 23.333 66 34s51 16.334 69 17.001c28 0 42 -8.66699 42 -26c0 -10 -4.83301 -23.333 -14.5 -40s-37.334 -49.834 -83.001 -99.501s-73.5 -80.834 -83.5 -93.501
c-68.667 -90 -112.334 -161.667 -131.001 -215c-4.66699 -14 -7 -25.667 -7 -35z" />
    <glyph glyph-name="m" unicode="m" horiz-adv-x="518" 
d="M466 223c0 -24.667 -20.9971 -65.332 -62.9971 -121.999c-25.333 -34 -38 -55 -38 -63s4.16699 -12 12.5 -12s20.166 5 35.499 15c38 26 76 57.333 114 94c5.33301 5.33301 9 6.66602 11 3.99902s3 -4.66699 3 -6s-7.33301 -9 -22 -23s-30.834 -28.667 -48.501 -44
s-39.834 -31.166 -66.501 -47.499s-48.667 -24.5 -66 -24.5c-36 0 -54 16 -54 48c0 11.333 2 24.666 6 39.999c8.66699 26 46.334 76.333 113.001 151c8.66699 9.33301 13 16.666 13 21.999s-6.66699 8 -20 8s-34.333 -11.667 -63 -35c-10 -8 -22.333 -19.833 -37 -35.5
s-31.834 -40.834 -51.501 -75.501s-34.167 -65.334 -43.5 -92.001c-4 -12 -12 -18 -24 -18c-2.66699 0 -6 0.333008 -10 1c-12.667 3.33301 -17.667 9.33301 -15 18c52 92.667 83 150.667 93 174s15 40 15 50s-4 15 -12 15c-35.333 0 -86 -57.667 -152 -173
c-24 -37.333 -43.333 -64 -58 -80s-28 -24 -40 -24h-4c-17.333 0 -34.333 7 -51 21c4 6 13.667 19 29 39c34 41.333 63.667 81.333 89 120c-28.667 -28.667 -53 -51 -73 -67c-6.66699 -5.33301 -10.5 -5.66602 -11.5 -0.999023s0.5 8.83398 4.5 12.501l20 18l18.5 16.5
l17 15.5c8.33301 7.66699 14.5 13.834 18.5 18.501c18.667 22 32.334 40.667 41.001 56c3.33301 8 4.83301 15.833 4.5 23.5s-2 12.667 -5 15s-4.16699 5.16602 -3.5 8.49902c0 5.33301 2.66699 8 8 8c2.66699 0 5.66699 -0.666992 9 -2
c20.667 -9.33301 31 -29.666 31 -60.999c0 -18.667 -3.66699 -39 -11 -61c13.333 20.667 27.666 41 42.999 61c27.333 35.333 54.666 53 81.999 53c18.667 0 28 -10.667 28 -32c0 -20 -14 -55.667 -42 -107c28 36 49.667 62.333 65 79c35.333 36.667 69.333 55 102 55
c34.667 0 54.334 -15 59.001 -45v-9z" />
    <glyph glyph-name="n" unicode="n" horiz-adv-x="394" 
d="M268 224c9.33301 10.667 14.001 18.998 14.001 24.998s-6.16699 9 -18.5 9s-31.833 -11.667 -58.5 -35c-24.667 -21.333 -54.5 -57 -89.5 -107s-60.333 -83.833 -76 -101.5s-29.5 -26.5 -41.5 -26.5h-4c-17.333 0 -34.333 7 -51 21c4 6 13.667 19 29 39
c34 41.333 63.667 81.333 89 120c-28.667 -28.667 -53 -51 -73 -67c-6.66699 -5.33301 -10.5 -5.66602 -11.5 -0.999023s0.5 8.83398 4.5 12.501l20 18l18.5 16.5l17 15.5c8.33301 7.66699 14.5 13.834 18.5 18.501c18.667 22 32.334 40.667 41.001 56
c3.33301 8 4.83301 15.833 4.5 23.5s-2 12.667 -5 15s-4.16699 5.16602 -3.5 8.49902c0 5.33301 2.66699 8 8 8c2.66699 0 5.66699 -0.666992 9 -2c20.667 -9.33301 31 -27.833 31 -55.5s-6 -57.167 -18 -88.5c26 34 45.667 58.333 59 73c34.667 38.667 68.667 58 102 58
c32.667 0 52 -14 58 -42c0.666992 -4 1 -10.167 1 -18.5s-3.16699 -19.5 -9.5 -33.5s-21.166 -37 -44.499 -69s-36.833 -52.167 -40.5 -60.5s-4.83398 -14.5 -3.50098 -18.5s4.33301 -6.33301 9 -7c8 -1.33301 21.667 4 41 16c27.333 19.333 62.666 49 105.999 89
c7.33301 7.33301 11 6.66602 11 -2.00098c0 -3.33301 -1.66699 -6.66602 -5 -9.99902c-64.667 -60 -112.667 -97.333 -144 -112c-36.667 -18.667 -65.334 -21.667 -86.001 -9c-12.667 8 -19 19.167 -19 33.5s2.66699 28.833 8 43.5c12 34 46.333 83 103 147z" />
    <glyph glyph-name="o" unicode="o" 
d="M176 17c-44.667 -22.667 -83.6689 -34 -117.002 -34c-28 0 -47 9.33301 -57 28c-5.33301 9.33301 -8 20 -8 32c0 27.333 6.33301 54 19 80c-8.66699 -8.66699 -17 -15.667 -25 -21c-6.66699 -6 -10 -5.33301 -10 2c0 4.66699 5.83301 12 17.5 22s29.5 26.833 53.5 50.5
s43 41.5 57 53.5c40.667 34 83.667 51 129 51c16.667 0 33.667 -4.33301 51 -13c25.333 -12 38 -34 38 -66c0 -38.667 -19.333 -78.334 -58 -119.001c-15.333 -17.333 -36.666 -34.666 -63.999 -51.999c54.667 8.66699 112.667 41.667 174 99
c3.33301 2.66699 6.33301 3.83398 9 3.50098s4 -1.83301 4 -4.5s-1.33301 -5.33398 -4 -8.00098c-73.333 -69.333 -141.666 -104 -204.999 -104h-4zM272.998 122c16.667 25.333 24.999 46.835 24.999 64.502s-7.66699 31.167 -23 40.5c-8.66699 7.33301 -18.667 11 -30 11
c-40.667 0 -78.167 -16 -112.5 -48s-57.166 -66 -68.499 -102c-4.66699 -12.667 -7 -25.834 -7 -39.501s5.16699 -23.334 15.5 -29.001s21.833 -8.5 34.5 -8.5s31 6.33301 55 19c-1.33301 0 -3.33301 0.666992 -6 2c-8 4 -12 9.33301 -12 16c0 23.333 13 47 39 71
c18.667 16.667 37.667 25 57 25s30.333 -7.33301 33 -22z" />
    <glyph glyph-name="p" unicode="p" 
d="M380 231c0 -46.667 -22.668 -96.002 -68.001 -148.002c-34 -40 -70.667 -69 -110 -87c-22 -10.667 -40.333 -16 -55 -16s-26.667 3.33301 -36 10c-16 10.667 -24 26.334 -24 47.001s5.66699 44.334 17 71.001c-147.333 -210.667 -221 -336.667 -221 -378
c0 -4 0.833008 -7.5 2.5 -10.5s1.16699 -4.83301 -1.5 -5.5l-3 1c-21.333 18.667 -32 40.667 -32 66c0 58 59.333 176.333 178 355c-32 -32 -48 -43.333 -48 -34c0 5.33301 3.66699 11.333 11 18c32.667 28 68 66.333 106 115s62.5 78.5 73.5 89.5s24.5 16.5 40.5 16.5
s32 -8.33301 48 -25c-13.333 -16 -38.333 -49 -75 -99c32 30 64.333 51 97 63c16 6 30.333 9 43 9s25.334 -4.16699 38.001 -12.5s19 -23.5 19 -45.5zM101.999 44.998c0 -30 11.665 -44.9971 34.998 -44.9971c13.333 0 33.5 6.66699 60.5 20s53.333 35.166 79 65.499
s43.834 57.666 54.501 81.999s16 44.166 16 59.499c0 27.333 -10.667 41 -32 41c-14 0 -35.667 -7 -65 -21s-56.666 -36 -81.999 -66c-44 -50.667 -66 -96 -66 -136z" />
    <glyph glyph-name="q" unicode="q" horiz-adv-x="347" 
d="M240 -18c-88.667 -132 -133.001 -218.332 -133.001 -258.999c0 -12 5.66699 -21.333 17 -28c2.66699 -2 1.33398 -4 -3.99902 -6c-28.667 4.66699 -46 25 -52 61c-0.666992 6 -1 14 -1 24s2.33301 25 7 45s10 37 16 51c26 57.333 65 126.666 117 207.999
c-21.333 -23.333 -46.333 -43.666 -75 -60.999s-52.667 -26 -72 -26s-35.833 5.83301 -49.5 17.5s-20.5 26.167 -20.5 43.5c0 49.333 22 97.666 66 144.999c33.333 35.333 74.666 60.333 123.999 75c22 7.33301 43.5 11 64.5 11s41.333 -5.83301 61 -17.5
s32.167 -25.5 37.5 -41.5c4.66699 0 7.33398 -1 8.00098 -3c15.333 -2.66699 30 -9 44 -19c-39.333 -50.667 -91 -124 -155 -220zM65.999 35.001c0 -14 6.66699 -21 20 -21c10.667 0 27.167 7.5 49.5 22.5s41.333 30.5 57 46.5s35.167 37.333 58.5 64l41 47
c15.333 15.333 23 27 23 35c0 15.333 -11.333 23 -34 23c-12.667 0 -28 -4 -46 -12c-31.333 -14.667 -61 -38.667 -89 -72c-53.333 -62.667 -80 -107 -80 -133z" />
    <glyph glyph-name="r" unicode="r" horiz-adv-x="361" 
d="M275 200c-29.333 -34 -53.168 -65.1641 -71.501 -93.4971s-27.5 -48.333 -27.5 -60s6.83301 -17.5 20.5 -17.5s41.667 13.667 84 41s81.5 58 117.5 92c3.33301 3.33301 6.33301 4.66602 9 3.99902s4 -2.33398 4 -5.00098s-1.33301 -5.66699 -4 -9
c-86 -78.667 -151.667 -128 -197 -148c-20 -8 -34.333 -12 -43 -12c-32 0 -53.833 5.33301 -65.5 16s-17.5 22.334 -17.5 35.001c0 25.333 5 44.666 15 57.999c32.667 46 58.667 85 78 117c6 9.33301 4.83301 15.833 -3.5 19.5s-18.666 5.5 -30.999 5.5
s-18.833 0.333008 -19.5 1c-44.667 -60 -89 -107.333 -133 -142c-5.33301 -4.66699 -8.33301 -4.66699 -9 0c0 5.33301 3.66699 11.666 11 18.999c46.667 40 85 82.333 115 127c-6 4 -9 9.5 -9 16.5s0.5 15.5 1.5 25.5s6.16699 23.333 15.5 40c16 28 32.667 42 50 42
c14.667 0 22 -8 22 -24c0 -22 -10.333 -46 -31 -72c-10 -12 -19.333 -20.667 -28 -26c24.667 8 60.667 12 108 12c23.333 0 40 -8.66699 50 -26c1.33301 -2.66699 2 -6.66699 2 -12s-4.33301 -13.333 -13 -24z" />
    <glyph glyph-name="s" unicode="s" horiz-adv-x="307" 
d="M-58 55c-0.666992 0.666992 -1 1.66895 -1 3.00195s1.16699 2 3.5 2s3.83301 -1.33301 4.5 -4c12 -26.667 31.667 -40 59 -40c34 0 63.667 16.667 89 50c18.667 24.667 35.167 50.5 49.5 77.5s26.333 48.5 36 64.5s24.667 34 45 54s38.833 32.333 55.5 37
c-4 2 -10.667 3 -20 3s-26.833 -6.83301 -52.5 -20.5s-51.167 -31 -76.5 -52l-82 -71.5c-29.333 -26.667 -47 -42.334 -53 -47.001s-9.66699 -4.66699 -11 0s0.333984 9 5.00098 13c17.333 14.667 42.333 37.5 75 68.5s57.5 53.667 74.5 68s36.167 26.666 57.5 36.999
s37.333 15.5 48 15.5c26.667 0 43 -4.66699 49 -14c-17.333 -7.33301 -31.5 -26.666 -42.5 -57.999l-37 -109c-13.667 -41.333 -30.834 -73.666 -51.501 -96.999c17.333 6.66699 44.166 22.167 80.499 46.5s68.5 50.833 96.5 79.5c6 5.33301 10.333 6 13 2v-4.5
c0 -1.66699 -6.33301 -8.83398 -19 -21.501s-28.167 -26.834 -46.5 -42.501s-41.166 -33.167 -68.499 -52.5c-56.667 -40 -113.5 -60 -170.5 -60s-93.5 24.333 -109.5 73z" />
    <glyph glyph-name="t" unicode="t" horiz-adv-x="277" 
d="M214.5 395.5c9 13 16.1699 22.498 21.5029 28.498s17.333 11.167 36 15.5s36.667 6.5 54 6.5s26 -1.83301 26 -5.5s-14.333 -19.167 -43 -46.5s-62 -63.666 -100 -108.999c45.333 -7.33301 75 -21.666 89 -42.999c5.33301 -9.33301 6.16602 -15.333 2.49902 -18
s-7.83398 -1.66699 -12.501 3c-14 14 -36.333 21 -67 21c-13.333 0 -28.333 -1.33301 -45 -4c-54 -69.333 -88 -126 -102 -170c-4.66699 -12.667 -7 -23.334 -7 -32.001c0 -23.333 9.66699 -35 29 -35c20.667 0 49.667 14.333 87 43c48.667 36.667 91 73 127 109
c6.66699 7.33301 11 9 13 5s0.333008 -8.33301 -5 -13c-57.333 -60 -105.5 -104.167 -144.5 -132.5s-74.833 -42.5 -107.5 -42.5c-44.667 0 -67 23.667 -67 71c0 22.667 6.33301 49.667 19 81l-18 -17c-5.33301 -5.33301 -9.16602 -6.83301 -11.499 -4.5s-3.5 4.5 -3.5 6.5
s2.66699 5.33301 8 10c48.667 42.667 82 75 100 97c-12.667 -4.66699 -21.167 -5 -25.5 -1s-7.33301 9.33301 -9 16s1.66602 14.834 9.99902 24.501s20.666 16.667 36.999 21s28.5 6.83301 36.5 7.5l37 55z" />
    <glyph glyph-name="u" unicode="u" horiz-adv-x="458" 
d="M197 116l-31.999 -44.0029c-10 -14 -15 -24.5 -15 -31.5s3.33301 -10.5 10 -10.5c12 0 29.667 10.667 53 32l32 31c32.667 35.333 61.334 69.333 86.001 102l37 45c11.333 12.667 23.333 19.334 36 20.001c19.333 0 37.333 -7.33301 54 -22
c-4 -6 -10.5 -14.667 -19.5 -26l-27 -34.5l-31 -40.5c-11.667 -15.333 -21.834 -29.666 -30.501 -42.999l-26.5 -42.5c-9 -15 -15.5 -27.833 -19.5 -38.5c-10 -29.333 -9.66699 -47.666 1 -54.999c3.33301 -3.33301 2.66602 -5 -2.00098 -5
c-1.33301 0 -2.66602 0.333008 -3.99902 1c-25.333 8.66699 -38 29.334 -38 62.001s10.667 71.334 32 116.001c-71.333 -92 -129.333 -138 -174 -138c-34 0 -51 16 -51 48c0 11.333 2.33301 24.666 7 39.999c10 30 44 77.333 102 142c7.33301 8.66699 11 16 11 22
s-4 9 -12 9s-20 -6 -36 -18s-38.333 -31.5 -67 -58.5s-46.167 -43.167 -52.5 -48.5s-9.5 -4 -9.5 4c0 4 6.33301 11.167 19 21.5s30 27 52 50s41.167 40.667 57.5 53s35.166 18.5 56.499 18.5c24 0 40.333 -9 49 -27c3.33301 -6.66699 5 -15.334 5 -26.001
s-2.66699 -22.5 -8 -35.5s-11.333 -24.5 -18 -34.5s-15.667 -22.667 -27 -38z" />
    <glyph glyph-name="v" unicode="v" horiz-adv-x="306" 
d="M381 297c0.666992 -1.33301 0.999023 -2.66602 0.999023 -3.99902s-1.16699 -1.66602 -3.5 -0.999023s-3.83301 1.66699 -4.5 3c-4.66699 10 -11 15 -19 15c-24 0 -67 -49.333 -129 -148c-38.667 -62.667 -71 -107 -97 -133c-13.333 -13.333 -29 -22.666 -47 -27.999
s-31 -8 -39 -8s-14.333 1 -19 3c10.667 15.333 22 40.166 34 74.499s21.167 64.666 27.5 90.999s9.16602 39.5 8.49902 39.5l-42 -42c-21.333 -22 -42.666 -41.333 -63.999 -58c-8 -6.66699 -12 -6.33398 -12 0.999023c0 4 1.83301 7.66699 5.5 11l19.5 17.5l18.5 16.5
l17 15.5c8.33301 7.66699 14.5 13.834 18.5 18.501c18.667 22 32.334 40.667 41.001 56c3.33301 8 4.83301 15.833 4.5 23.5s-2 12.667 -5 15s-4.16699 5.16602 -3.5 8.49902c0.666992 8 6.33398 10 17.001 6c23.333 -10.667 36 -26 38 -46c2 -10 3 -23.833 3 -41.5
s-3.33301 -45.167 -10 -82.5c-6.66699 -38.667 -19.334 -72 -38.001 -100c30 19.333 64.5 67.5 103.5 144.5s69.5 126.167 91.5 147.5c9.33301 9.33301 21 14 35 14c24.667 0 41 -9.66699 49 -29z" />
    <glyph glyph-name="w" unicode="w" horiz-adv-x="518" 
d="M452 139c-3.33301 -12 -5.00098 -23.1719 -5.00098 -33.5049s4.16699 -15.5 12.5 -15.5s21.833 7.66699 40.5 23s31 26 37 32s9 5 9 -3c0 -3.33301 -1 -6 -3 -8c-21.333 -21.333 -37 -35.666 -47 -42.999c-18.667 -14.667 -34.667 -22 -48 -22
c-21.333 0 -33.333 12 -36 36c-64 -75.333 -115 -113 -153 -113c-23.333 0 -40.5 5 -51.5 15s-16.5 20.667 -16.5 32s1.66699 25 5 41c-53.333 -58.667 -97 -88 -131 -88c-23.333 0 -40.666 5.16699 -51.999 15.5s-17 21.833 -17 34.5c0 24.667 4.33301 44 13 58
s23.334 33.333 44.001 58c-42 -35.333 -64.833 -54.666 -68.5 -57.999s-5.83398 -2.66602 -6.50098 2.00098c0 6 3.66699 12.333 11 19c16 12 41.167 35.333 75.5 70s58 55.334 71 62.001s23.667 10 32 10s14.5 -1.16699 18.5 -3.5s5 -4.83301 3 -7.5
c-19.333 -19.333 -38.333 -46.666 -57 -81.999c-25.333 -49.333 -38 -88.666 -38 -117.999c0 -4.66699 0.333008 -8.66699 1 -12c4 -12.667 17 -11.667 39 3c8 5.33301 17.167 12.5 27.5 21.5s32.666 35.5 66.999 79.5s58.5 69.667 72.5 77s25.333 11 34 11
s15.5 -2.16699 20.5 -6.5s6.16699 -7.83301 3.5 -10.5c-34 -36 -57 -82.333 -69 -139c-4 -23.333 -3.66699 -36.5 1 -39.5s9.16699 -4.33301 13.5 -4s9.5 2.16602 15.5 5.49902c26.667 14.667 56.667 43 90 85c2 62.667 15.667 108 41 136
c10.667 13.333 31.334 20 62.001 20c13.333 0 19.333 -4 18 -12l-6 -10c-40.667 -50 -65 -89.333 -73 -118z" />
    <glyph glyph-name="x" unicode="x" horiz-adv-x="310" 
d="M-104 -103c-4.66699 0 -6.99902 0.998047 -6.99902 2.99805s1 4.33301 3 7c59.333 79.333 123 152.666 191 219.999h-1c-10 26.667 -15 51.667 -15 75c0 28.667 5.33301 50.667 16 66c7.33301 10 22.5 19.833 45.5 29.5s33.833 11.5 32.5 5.5l-2 -4
c-10.667 -17.333 -16 -36.666 -16 -57.999s1 -39.666 3 -54.999c115.333 102 211 153 287 153c5.33301 0 8 -0.666992 8 -2s-0.666992 -2 -2 -2h-2c-45.333 0 -114.666 -36.667 -207.999 -110c-17.333 -14 -43.333 -36.333 -78 -67
c7.33301 -33.333 17.666 -63.666 30.999 -90.999c20.667 -40.667 44 -61 70 -61c14 0 24 4 30 12c1.33301 1.33301 2.66602 1.5 3.99902 0.5s1.33301 -2.16699 0 -3.5c-10 -13.333 -23.333 -20 -40 -20c-66 0 -117 36.333 -153 109c-82.667 -78.667 -144 -144.667 -184 -198
c-4 -6 -8.33301 -9 -13 -9z" />
    <glyph glyph-name="y" unicode="y" horiz-adv-x="417" 
d="M176 224c8 8.66699 11.9951 16.001 11.9951 22.001s-4 9 -12 9s-20.167 -6 -36.5 -18s-40.833 -33.333 -73.5 -64s-52.167 -48.5 -58.5 -53.5s-9.66602 -5.16699 -9.99902 -0.5s3.83398 10.5 12.501 17.5s28 25.833 58 56.5s53.333 52.334 70 65.001s35.667 19 57 19
c24 0 40.333 -9 49 -27c4 -6.66699 6 -15.334 6 -26.001s-2.66699 -22.5 -8 -35.5s-11.5 -24.667 -18.5 -35s-16 -22.833 -27 -37.5l-32 -44c-10.333 -14.667 -15.5 -25.334 -15.5 -32.001s2.66699 -10 8 -10c26 0 74.667 43.333 146 130c34 40.667 63 78.667 87 114
c21.333 49.333 40 76.333 56 81c6 2 13.333 3 22 3s15 -3.66699 19 -11s6 -13 6 -17s-2.83301 -7.16699 -8.5 -9.5s-10.667 -3.33301 -15 -3s-7.16602 0.5 -8.49902 0.5c-19.333 0 -35.666 -14 -48.999 -42c-8 -17.333 -18.167 -45 -30.5 -83l-34.5 -105
c-10.667 -32 -28.334 -69.333 -53.001 -112s-54.667 -82.667 -90 -120s-77.166 -68.666 -125.499 -93.999s-97.833 -38 -148.5 -38s-93.167 11.667 -127.5 35s-55.5 59.333 -63.5 108c0 3.33301 0.666992 5.66602 2 6.99902s3 1.33301 5 0s3 -3.33301 3 -6
c6.66699 -37.333 24.5 -67.666 53.5 -90.999s62.5 -35 100.5 -35c50 0 101.167 19.167 153.5 57.5s101.333 88.666 147 150.999s99.5 153.5 161.5 273.5c-15.333 -23.333 -33.666 -48.666 -54.999 -75.999c-83.333 -102.667 -147.333 -154 -192 -154c-34 0 -51 16 -51 48
c0 11.333 2.33301 24.666 7 39.999c9.33301 26.667 43.333 74 102 142z" />
    <glyph glyph-name="z" unicode="z" horiz-adv-x="419" 
d="M174 140c58.667 24.667 88.0059 41.833 88.0059 51.5s-28 14.5 -84 14.5c-71.333 0 -111.333 -13 -120 -39c-10.667 7.33301 -16 16.666 -16 27.999c0 2.66699 0.333008 5.33398 1 8.00098c13.333 49.333 67.666 74 162.999 74h11c36.667 0 62.334 -5.5 77.001 -16.5
s22 -22.5 22 -34.5c0 -21.333 -15.333 -42 -46 -62c-20.667 -13.333 -58.667 -29 -114 -47c13.333 1.33301 31.666 2 54.999 2s49.333 -5.66699 78 -17s47.667 -29.333 57 -54c2.66699 -8 4 -19 4 -33s-6 -32.667 -18 -56c-18 -34.667 -51.333 -71.167 -100 -109.5
s-98.667 -68.5 -150 -90.5c-102 -43.333 -192.333 -65 -271 -65c-43.333 0 -73.333 9.66699 -90 29c-5.33301 6.66699 -8 13 -8 19s1.66699 13.833 5 23.5s12 21.834 26 36.501c31.333 33.333 83.833 64.166 157.5 92.499s139.834 42.5 198.501 42.5
c42.667 0 73 -5.66699 91 -17c8.66699 -6 13 -11.167 13 -15.5s-3.83301 -5.5 -11.5 -3.5s-20.334 3 -38.001 3s-47 -4.33301 -88 -13s-88.833 -23.334 -143.5 -44.001s-93.334 -47 -116.001 -79c-7.33301 -10.667 -11 -19.667 -11 -27c0 -18.667 18 -28 54 -28
c56.667 0 128 19 214 57c71.333 30 129.333 72.333 174 127c29.333 36 44 67 44 93c0 12 -3 23 -9 33c-16.667 28 -56.334 42 -119.001 42c-5.33301 0 -17.833 -0.166992 -37.5 -0.5s-54.834 -6.16602 -105.501 -17.499c-12.667 -2.66699 -18.667 0.333008 -18 9
c1.33301 11.333 9.33301 22 24 32c4 2.66699 7.16699 4.5 9.5 5.5s20.166 6 53.499 15s64.666 19.5 93.999 31.5z" />
    <glyph glyph-name="braceleft" unicode="{" horiz-adv-x="399" 
d="M594 600c0 -8 -3.66406 -11.666 -10.9971 -10.999c-26.667 4 -51.5 6 -74.5 6s-43.167 -2.66699 -60.5 -8c-33.333 -10 -65 -38.333 -95 -85c-53.333 -84 -131 -135.667 -233 -155c-4 0 -7.33301 -1 -10 -3c8.66699 -3.33301 15 -5.83301 19 -7.5l19.5 -8
c9 -3.66699 16 -6.83398 21 -9.50098s11 -6.16699 18 -10.5s12 -8.66602 15 -12.999l9.5 -13.5c5.33301 -9.33301 3.66602 -20.333 -5.00098 -33c-29.333 -42 -51 -97.333 -65 -166c-4 -18.667 -6 -38.5 -6 -59.5s5.33301 -36.333 16 -46s21.334 -14.5 32.001 -14.5
c27.333 0 55.333 4.33301 84 13c5.33301 1.33301 8.16602 -0.666992 8.49902 -6s-2.83398 -9 -9.50098 -11c-42 -10.667 -76.833 -16 -104.5 -16s-49.834 3.66699 -66.501 11c-36 16 -54 44.667 -54 86c0 50 31.667 119.333 95 208c6.66699 12 10 21.667 10 29
c0 22.667 -14.667 39.667 -44 51c-14 5.33301 -18.667 12.333 -14 21s17 14.834 37 18.501s42.333 17.167 67 40.5s54.667 62.666 90 117.999c21.333 34 48.5 57.833 81.5 71.5s64.833 20.5 95.5 20.5c20 0 62 -3.33301 126 -10c5.33301 -0.666992 8 -3.33398 8 -8.00098z
" />
    <glyph glyph-name="bar" unicode="|" horiz-adv-x="230" 
d="M148 665c8 -2 12.002 -59.333 12.002 -172s-3.83301 -230.167 -11.5 -352.5s-18.5 -205.833 -32.5 -250.5c-6.66699 -20.667 -16 -32.667 -28 -36h-4c-5.33301 0 -8 3 -8 9c0 2 0.333008 3.66699 1 5c20 82 30 233 30 453c0 140 -4 253 -12 339
c-1.33301 12.667 2.66699 19 12 19c7.33301 0 15.666 -2.33301 24.999 -7s14.666 -7 15.999 -7z" />
    <glyph glyph-name="braceright" unicode="}" horiz-adv-x="425" 
d="M352 318c-6.66699 -12 -10.001 -21.6699 -10.001 -29.0029c0 -22 14.667 -38.667 44 -50c13.333 -6 17.833 -13.167 13.5 -21.5s-13.166 -13.833 -26.499 -16.5c-26.667 -4.66699 -52.334 -18.667 -77.001 -42s-54.667 -63 -90 -119c-34 -52 -80 -80.667 -138 -86
c-22.667 -2.66699 -40 -4 -52 -4c-31.333 0 -69 3 -113 9c-5.33301 0.666992 -8 3.66699 -8 9c0 2 0.833008 4.16699 2.5 6.5s9.83398 2.5 24.501 0.5s33.667 -3 57 -3s44.333 2.66699 63 8c32.667 10 64 38.333 94 85c54 85.333 131.667 136.666 233 153.999l10 3
c-52.667 20.667 -85 38.667 -97 54c-4.66699 6.66699 -7 13.334 -7 20.001s2.33301 13.667 7 21c30.667 46.667 52.334 102.334 65.001 167.001c4 18.667 6 38.334 6 59.001s-5.5 35.834 -16.5 45.501s-21.833 14.5 -32.5 14.5c-28 0 -55.667 -4 -83 -12
c-5.33301 -2 -8.33301 -0.333008 -9 5c1.33301 5.33301 4.66602 9.33301 9.99902 12c41.333 10.667 75.833 16 103.5 16s50.167 -4 67.5 -12c36 -16 54 -46 54 -90s-31.667 -112 -95 -204z" />
    <glyph glyph-name="asciitilde" unicode="~" horiz-adv-x="584" 
d="M398 184c-28 0 -62.332 11.334 -102.999 34.001s-78.334 34 -113.001 34s-63 -24 -85 -72l-36 56c30 57.333 71.667 86 125 86c26 0 64 -11.333 114 -34s82.167 -34 96.5 -34s27.333 4 39 12s20.667 16.167 27 24.5s14.5 20.166 24.5 35.499l36 -56
c-36 -57.333 -77.667 -86 -125 -86z" />
    <glyph glyph-name="nbspace" unicode="&#xa0;" horiz-adv-x="267" 
 />
    <glyph glyph-name="exclamdown" unicode="&#xa1;" horiz-adv-x="262" 
d="M201 309c14 16.667 31.001 25.001 51.001 25.001c5.33301 0 11.166 -2.66699 17.499 -8s9.5 -11 9.5 -17c0 -20 -5.33301 -36 -16 -48c-16 -16.667 -32.667 -25 -50 -25c-8 0 -15.167 2.5 -21.5 7.5s-9.5 10.5 -9.5 16.5c0 19.333 6.33301 35.666 19 48.999z
M199.001 131.001c0 -43.333 -13.833 -93.002 -41.5 -149.002s-52.167 -95.333 -73.5 -118c-48 -52.667 -89 -79 -123 -79c-12 0 -20.333 2.33301 -25 7s-7 9.83398 -7 15.501s5.16699 13.834 15.5 24.501s24.333 23.5 42 38.5s30.5 26.5 38.5 34.5
c28.667 30 56.667 67.333 84 112c40.667 66.667 61 116 61 148c0 12 -3.33301 20.333 -10 25c-3.33301 1.33301 -4.5 2.83301 -3.5 4.5s2 2.5 3 2.5s2.5 -0.333008 4.5 -1c23.333 -12 35 -33.667 35 -65z" />
    <glyph glyph-name="cent" unicode="&#xa2;" horiz-adv-x="375" 
d="M333 431c24.667 -8.66699 36.998 -23.665 36.998 -44.998c0 -8 -2.33301 -17 -7 -27s-12.167 -15 -22.5 -15s-12 6.33301 -5 19s10.5 24 10.5 34c0 14 -7.66699 20.667 -23 20c-53.333 -79.333 -105.333 -161.333 -156 -246c7.33301 -2 15 -3 23 -3
c26.667 0 58.667 11.333 96 34l46 29c12 6.66699 17.667 6 17 -2c-0.666992 -6.66699 -4.66699 -12.334 -12 -17.001c-30.667 -19.333 -60.5 -35.5 -89.5 -48.5s-58.5 -19.5 -88.5 -19.5h-8l-19 -37c-26.667 -51.333 -43.667 -87 -51 -107
c-2.66699 -8.66699 -7.66699 -13 -15 -13c-10 0 -11.667 9.66699 -5 29s29.334 62.666 68.001 129.999c-22.667 3.33301 -40.834 12 -54.501 26s-20.5 32.667 -20.5 56c0 56.667 25.667 105.667 77 147s105 62 161 62l18 -1c44.667 66.667 69.334 100 74.001 100
c10 0 15 -2.33301 15 -7s-6.66699 -15.5 -20 -32.5s-28.666 -38.833 -45.999 -65.5zM125.998 221.002c0 -18 7.66699 -32 23 -42l143 230l-10 -5c-30 -13.333 -62 -37.333 -96 -72c-40 -40.667 -60 -77.667 -60 -111z" />
    <glyph glyph-name="sterling" unicode="&#xa3;" horiz-adv-x="566" 
d="M-46 -17c0 18.667 13.9971 35.6611 41.9971 50.9941c12 7.33301 27 13.666 45 18.999c15.333 16.667 36 56.667 62 120s42 100 48 110c-18 0.666992 -31.167 5 -39.5 13s-12.5 15 -12.5 21c0 21.333 19.667 37.333 59 48c1.33301 0.666992 4.5 1.33398 9.5 2.00098
s10.167 1.5 15.5 2.5s8.66602 1.5 9.99902 1.5c64.667 130.667 122.667 213.334 174 248.001c31.333 21.333 63.333 32 96 32s60.334 -8 83.001 -24c30.667 -21.333 46 -46 46 -74c0 -2 -0.833008 -3.33301 -2.5 -4s-3.16699 1 -4.5 5
c-5.33301 19.333 -15.5 32.333 -30.5 39s-27.167 10 -36.5 10c-27.333 0 -52.5 -7.16699 -75.5 -21.5s-50.167 -41.166 -81.5 -80.499s-60 -81.333 -86 -126c56.667 -6 90.334 -13.333 101.001 -22c10 -7.33301 17 -14.5 21 -21.5s5.33301 -12.167 4 -15.5
s-5.66602 -2.83301 -12.999 1.5s-21.833 6.5 -43.5 6.5s-60.167 -7.66699 -115.5 -23c-1.33301 -1.33301 -7.33301 -16.166 -18 -44.499s-26.667 -60.666 -48 -96.999s-46.333 -68.166 -75 -95.499l38 6c26.667 2 59.834 3 99.501 3s81 -3.83301 124 -11.5
s82.333 -17 118 -28s61.5 -25.333 77.5 -43s24 -35.167 24 -52.5c0 -7.33301 -1.16699 -14.666 -3.5 -21.999s-4.83301 -11 -7.5 -11c-5.33301 0 -7 2.33301 -5 7s3 8.66699 3 12c0 14.667 -17.667 28.667 -53 42c-64 23.333 -147 35 -249 35
c-56 0 -102.667 -4.33301 -140 -13c-72.667 -16 -117.5 -24 -134.5 -24s-25.5 6.33301 -25.5 19z" />
    <glyph glyph-name="currency" unicode="&#xa4;" horiz-adv-x="653" 
d="M90 96c-2 0 -3.00098 7.33008 -3.00098 21.9971s1 27.667 3 39s4.33301 18 7 20c8.66699 5.33301 36.667 27.333 84 66c-18.667 29.333 -28 61.5 -28 96.5s9 66.167 27 93.5l-83 67c-6 2.66699 -9 12 -9 28c0 35.333 1.33301 53 4 53l122 -108
c34 29.333 73.167 44 117.5 44s83.5 -15.333 117.5 -46l122 110c3.33301 0 5 -8.66699 5 -26c0 -33.333 -3.66699 -51.666 -11 -54.999c-3.33301 -3.33301 -31.333 -25.333 -84 -66c18.667 -29.333 28 -61.5 28 -96.5s-9.33301 -66.5 -28 -94.5
c48.667 -40 76.667 -62 84 -66c7.33301 -5.33301 11 -22.666 11 -51.999c0 -19.333 -1.33301 -28.666 -4 -27.999l-123 109c-33.333 -30 -72.666 -45 -117.999 -45s-85 15 -119 45zM203.999 336.997c0 -35.333 12.667 -65.666 38 -90.999s55.666 -38 90.999 -38
s65.666 12.667 90.999 38s38 55.666 38 90.999s-12.667 65.666 -38 90.999s-55.666 38 -90.999 38s-65.666 -12.667 -90.999 -38s-38 -55.666 -38 -90.999z" />
    <glyph glyph-name="yen" unicode="&#xa5;" horiz-adv-x="484" 
d="M791 666c0.666992 -1.33301 1.00293 -2.66699 1.00293 -4s-2.5 -2 -7.5 -2h-11.5c-53.333 0 -120 -37.167 -200 -111.5s-153 -159.5 -219 -255.5c25.333 -0.666992 54.333 -3 87 -7c8.66699 -1.33301 13.334 -4.66602 14.001 -9.99902s-3.33301 -8 -12 -8
c-40 -0.666992 -76.667 -2.66699 -110 -6c-15.333 -24 -30.666 -50.333 -45.999 -79c26.667 -1.33301 58 -4 94 -8c9.33301 -1.33301 14.166 -4.66602 14.499 -9.99902s-3.83398 -8 -12.501 -8c-40 -0.666992 -76.667 -2.66699 -110 -6
c-2.66699 -5.33301 -4 -8.66602 -4 -9.99902c-20.667 -64.667 -31 -115.667 -31 -153s11.667 -58.666 35 -63.999c3.33301 -1.33301 8.16602 -2 14.499 -2s13.166 2.83301 20.499 8.5s11 7 11 4s-2 -5.83301 -6 -8.5c-12 -9.33301 -26.667 -14 -44 -14h-9
c-59.333 4.66699 -89 39 -89 103c0 31.333 7.66699 73.333 23 126c-51.333 -7.33301 -95.666 -13.333 -132.999 -18c-6 -0.666992 -9 3.66602 -9 12.999c0 3.33301 0.333008 7.33301 1 12c2.66699 18 8.66699 27.333 18 28c46 3.33301 91.667 5.66602 137 6.99902l21 66
c-54 -8 -90.333 -13 -109 -15c-8 -0.666992 -10.5 7.83301 -7.5 25.5s8.83301 26.834 17.5 27.501c38 3.33301 75.333 5.66602 112 6.99902c0.666992 2 1.5 4.83301 2.5 8.5s1.83301 6.5 2.5 8.5c12 50 18 105 18 165c0 13.333 -0.5 32.166 -1.5 56.499
s-6.83301 48.166 -17.5 71.499c-14 32.667 -31 49 -51 49c-11.333 0 -25.5 -7.33301 -42.5 -22s-35.167 -43.5 -54.5 -86.5s-29 -85.5 -29 -127.5c0 -7.33301 0.333008 -14.166 1 -20.499s0 -9.83301 -2 -10.5s-3.66699 0.666016 -5 3.99902c-6 12.667 -9 27.334 -9 44.001
c0 60.667 8 105.834 24 135.501s35.667 53.834 59 72.501c32.667 27.333 63.667 41 93 41c17.333 0 33.666 -5 48.999 -15c38 -24.667 57 -76.334 57 -155.001c0 -40 -2.66699 -81 -8 -123s-10 -71 -14 -87c45.333 69.333 99.666 135.166 162.999 197.499
s126.333 112.166 189 149.499c32.667 19.333 63.667 29 93 29c15.333 0 26 -4.33301 32 -13z" />
    <glyph glyph-name="brokenbar" unicode="&#xa6;" horiz-adv-x="230" 
d="M157 335c0 -10.667 -8.33008 -16.001 -24.9971 -16.001s-25.334 5 -26.001 15c0 110.667 -3.66699 219.334 -11 326.001c-1.33301 12.667 2.66699 19 12 19c7.33301 0 15.666 -2.33301 24.999 -7s14.666 -7 15.999 -7c8 -2 12 -39.5 12 -112.5s-1 -145.5 -3 -217.5z
M106.003 217.999c0 10 7.83301 14.998 23.5 14.998s23.5 -6 23.5 -18c-8.66699 -165.333 -21 -273.666 -37 -324.999c-6.66699 -20.667 -16 -32.667 -28 -36h-4c-5.33301 0 -8 3 -8 9c0 2 0.333008 3.66699 1 5c17.333 68.667 27 185.334 29 350.001z" />
    <glyph glyph-name="section" unicode="&#xa7;" horiz-adv-x="553" 
d="M766 576c-5.33301 8.66699 -14.6641 13.002 -27.9971 13.002s-25.833 -1.66699 -37.5 -5s-25.5 -8 -41.5 -14c-26 -10.667 -47 -20.667 -63 -30c-60 -32 -116 -69.5 -168 -112.5s-79.333 -75.167 -82 -96.5c-1.33301 -16.667 7.66699 -30.334 27 -41.001
c16.667 -10 36 -19.5 58 -28.5s38 -15.833 48 -20.5c30 -15.333 51.333 -33.333 64 -54s19 -40.334 19 -59.001c0 -26 -10 -50 -30 -72s-42.5 -36.833 -67.5 -44.5s-47.833 -11.667 -68.5 -12s-39.834 -0.5 -57.501 -0.5s-37.5 2.33301 -59.5 7
c18 -20.667 27 -42.667 27 -66c0 -12 -2.66699 -24.667 -8 -38c-14.667 -36.667 -45 -66.667 -91 -90c-35.333 -18 -73.666 -30.667 -114.999 -38c-42.667 -7.33301 -78 -11 -106 -11c-50.667 0 -101.334 10.833 -152.001 32.5s-82 55.5 -94 101.5
c24.667 -22 58.667 -37.667 102 -47s84.666 -14 123.999 -14c58.667 0.666992 102.167 5.33398 130.5 14.001s53 18.834 74 30.501s40.333 25.334 58 41.001s26.5 33 26.5 52s-12.667 36.167 -38 51.5c-2 1.33301 -22.167 9.66602 -60.5 24.999s-67.666 32.333 -87.999 51
s-30.5 40 -30.5 64c0 38 16.333 71.333 49 100c57.333 49.333 125.333 76.333 204 81c-2 6.66699 -2.33301 15 -1 25c5.33301 44 34.666 88.333 87.999 133s113.166 80 179.499 106s122.833 39 169.5 39c32.667 0 58 -5.83301 76 -17.5s27 -27.834 27 -48.501v-9
c-2 -20.667 -38.333 -63.667 -109 -129c-26 -24 -48.833 -50.833 -68.5 -80.5s-29.5 -55.834 -29.5 -78.501v-6c-20.667 16 -31 37.333 -31 64c0 24 10.333 53.333 31 88c30 50.667 77.667 98.667 143 144zM94.002 146.002c0 -14 3.83398 -24.832 11.501 -32.499
s14 -13.5 19 -17.5s12.167 -8.5 21.5 -13.5s17 -8.83301 23 -11.5c30 -13.333 47.667 -21.333 53 -24c21.333 -2 48.333 -3 81 -3s64.167 4.5 94.5 13.5s55.833 22.833 76.5 41.5c24 21.333 36 42.833 36 64.5s-13.667 41.167 -41 58.5
c-5.33301 3.33301 -20.333 9.66602 -45 18.999c-60 23.333 -99.667 48 -119 74c-2.66699 -1.33301 -10.667 -3.83301 -24 -7.5s-25 -7.16699 -35 -10.5c-26.667 -9.33301 -51.334 -22 -74.001 -38c-52 -35.333 -78 -73 -78 -113z" />
    <glyph glyph-name="dieresis" unicode="&#xa8;" horiz-adv-x="314" 
d="M203 428c8 9.33301 15.3369 14.832 22.0039 16.499s12.167 2.5 16.5 2.5s9.16602 -1.83301 14.499 -5.5s8 -10.667 8 -21s-5 -20.5 -15 -30.5c-10.667 -12.667 -20.834 -19 -30.501 -19s-17.334 2.33301 -23.001 7s-7.83398 11.834 -6.50098 21.501s6 19.167 14 28.5z
M142.004 420.499c0 -10.333 -5 -21.167 -15 -32.5s-22.667 -17 -38 -17c-4.66699 0 -9.5 2.16699 -14.5 6.5s-7.5 11 -7.5 20s5.16699 19.5 15.5 31.5s22.833 18 37.5 18c4 0 8.66699 -1.83301 14 -5.5s8 -10.667 8 -21z" />
    <glyph glyph-name="copyright" unicode="&#xa9;" horiz-adv-x="767" 
d="M749 462c0 -30 -8.16699 -66.333 -24.5 -109s-42.5 -86.667 -78.5 -132s-82 -84.666 -138 -117.999c-68.667 -40.667 -142 -61 -220 -61c-44 0 -86 7.66699 -126 23s-71.333 39 -94 71c-30 42 -45 91.667 -45 149c0 74 26.333 143 79 207c82.667 102 204 153 364 153
c55.333 0 106.333 -7.66699 153 -23c29.333 -10 56.333 -26.667 81 -50c32.667 -30.667 49 -67.334 49 -110.001zM642 535c-36.667 28.667 -76.166 48.166 -118.499 58.499s-76.5 15.5 -102.5 15.5s-45.333 -0.333008 -58 -1c-53.333 -4 -100.833 -17.833 -142.5 -41.5
s-76.5 -53.5 -104.5 -89.5c-39.333 -49.333 -59 -100 -59 -152c0 -59.333 20.667 -109 62 -149c25.333 -24.667 55.666 -42.167 90.999 -52.5s65.333 -15.5 90 -15.5c93.333 0 174 21.333 242 64c52 33.333 94 74 126 122c28 40 42 78.667 42 116
c0 48.667 -22.667 90.334 -68 125.001zM496.001 386.999c-6 0 -9 3.66699 -9 11c0 11.333 9 24.666 27 39.999s27 30 27 44c0 26.667 -21 40 -63 40s-83.667 -10.667 -125 -32s-76.666 -48 -105.999 -80c-35.333 -41.333 -53 -78.166 -53 -110.499s17.667 -56.833 53 -73.5
c21.333 -10 43.333 -15 66 -15s47.5 2.5 74.5 7.5s57.667 15.5 92 31.5s60.833 31.667 79.5 47c2.66699 2.66699 4.5 3 5.5 1s0.833008 -3.66699 -0.5 -5c-16 -20 -45.667 -42.333 -89 -67c-66.667 -38 -126 -57 -178 -57c-32.667 0 -60.667 7.66699 -84 23
c-36 23.333 -54 57.5 -54 102.5s20 88.5 60 130.5c30.667 32.667 73 59.5 127 80.5s101 31.5 141 31.5s67 -10 81 -30c6 -7.33301 9 -16.833 9 -28.5s-7.33301 -26.167 -22 -43.5c-28.667 -32 -48.334 -48 -59.001 -48z" />
    <glyph glyph-name="ordfeminine" unicode="&#xaa;" horiz-adv-x="289" 
d="M229 478c-34 -37.333 -51 -63 -51 -77c0 -7.33301 3.16699 -11 9.5 -11s20.166 5.83301 41.499 17.5s48.666 33.5 81.999 65.5c5.33301 4.66699 8 5 8 1l-2 -6c-68.667 -64.667 -118.334 -97 -149.001 -97c-10 0 -18 3 -24 9s-9 13.333 -9 22
c0 7.33301 3.33301 20.333 10 39c-18 -22 -37.333 -39.333 -58 -52s-37.167 -19 -49.5 -19s-22.166 4.16699 -29.499 12.5s-11 18.833 -11 31.5c0 24.667 11.667 49.5 35 74.5s50 42.167 80 51.5c12.667 3.33301 25.334 5 38.001 5s24.667 -3.33301 36 -10s19 -15 23 -25
c8.66699 0 15.834 -2.33301 21.501 -7s5.16699 -13 -1.5 -25zM-8 306c0 7.33301 1.16602 15.001 3.49902 23.001s4.83301 12 7.5 12c36 4.66699 67.667 7 95 7s47 -0.833008 59 -2.5s18.667 -3.83398 20 -6.50098s1.5 -5.16699 0.5 -7.5s-7.66699 -3.83301 -20 -4.5
s-27.166 -2.5 -44.499 -5.5s-38.333 -7.5 -63 -13.5c-35.333 -8.66699 -53.833 -13 -55.5 -13s-2.5 3.66699 -2.5 11zM179.999 527.001c-30 0 -60.167 -17.501 -90.5 -52.501s-45.5 -58.5 -45.5 -70.5s4 -18 12 -18c16.667 0 42.667 18 78 54
c0.666992 0.666992 3.16699 3 7.5 7s8.5 7.66699 12.5 11c28 28.667 42 47.334 42 56.001s-5.33301 13 -16 13z" />
    <glyph glyph-name="guillemotleft" unicode="&#xab;" horiz-adv-x="458" 
d="M119 150c-22 19.333 -42.165 28.998 -60.498 28.998s-27.5 0.666992 -27.5 2c0 3.33301 5.66699 8 17 14c49.333 29.333 95.833 61.166 139.5 95.499s70.167 61.5 79.5 81.5c3.33301 6.66699 9.33301 10.334 18 11.001s13.167 0.333984 13.5 -0.999023
s0.166016 -2.66602 -0.500977 -3.99902c-20.667 -44.667 -81.334 -98 -182.001 -160c16.667 -7.33301 33.5 -21 50.5 -41s28.833 -43 35.5 -69c1.33301 -6 2 -12 2 -18c0 -18.667 -7 -36 -21 -52s-22 -24 -24 -24c-4 0 -3.33301 4.33301 2 13c4.66699 10 7 20 7 30
c0 33.333 -16.333 64.333 -49 93zM275.002 171.998c-22 19.333 -41.998 28.999 -59.998 28.999s-27 0.666992 -27 2c0 4 16.667 15.833 50 35.5s70.166 45.5 110.499 77.5s65.166 58 74.499 78c3.33301 7.33301 11.333 11.333 24 12c6 -0.666992 8.66699 -2.66699 8 -6
c-22.667 -46 -83.667 -99 -183 -159c16.667 -7.33301 33.5 -21.166 50.5 -41.499s28.833 -43.5 35.5 -69.5c1.33301 -6 2 -12 2 -18c0 -18.667 -7 -36 -21 -52s-22.333 -24 -25 -24c-3.33301 0 -2 4.33301 4 13c4 9.33301 6 19 6 29c0 34 -16.333 65.333 -49 94z" />
    <glyph glyph-name="logicalnot" unicode="&#xac;" horiz-adv-x="361" 
d="M275 200c-29.333 -34 -53.168 -65.165 -71.501 -93.498s-27.5 -48.333 -27.5 -60s6.83301 -17.5 20.5 -17.5s41.667 13.667 84 41s81.5 58 117.5 92c3.33301 3.33301 6.33301 4.66602 9 3.99902s4 -2.33398 4 -5.00098s-1.33301 -5.66699 -4 -9
c-86 -78.667 -151.667 -128 -197 -148c-20 -8 -34.333 -12 -43 -12c-32 0 -53.833 5.33301 -65.5 16s-17.5 22.334 -17.5 35.001c0 25.333 5 44.666 15 57.999c32.667 46 58.667 85 78 117c6 9.33301 4.83301 15.833 -3.5 19.5s-18.666 5.5 -30.999 5.5
s-18.833 0.333008 -19.5 1c-44.667 -60 -89 -107.333 -133 -142c-5.33301 -4.66699 -8.33301 -4.66699 -9 0c0 5.33301 3.66699 11.666 11 18.999c74.667 64.667 125.667 129.667 153 195c2 5.33301 5 8 9 8c2 0 4.33301 -0.666992 7 -2
c8 -3.33301 -3.33301 -27.666 -34 -72.999c22 8.66699 58.333 13 109 13c23.333 0 40 -8.66699 50 -26c1.33301 -2.66699 2 -6.66699 2 -12s-4.33301 -13.333 -13 -24z" />
    <glyph glyph-name="registered" unicode="&#xae;" horiz-adv-x="767" 
d="M749 462c0 -30 -8.16797 -66.332 -24.501 -108.999s-42.5 -86.667 -78.5 -132s-82 -84.666 -138 -117.999c-69.333 -40.667 -143 -61 -221 -61c-35.333 0 -70.833 5.16699 -106.5 15.5s-65.167 27.833 -88.5 52.5c-46.667 48 -70 103 -70 165
c0 41.333 8.33301 82.666 25 123.999c32.667 82.667 89.667 146 171 190c68.667 37.333 151.334 56 248.001 56c55.333 0 106.333 -7.66699 153 -23c29.333 -10 56.333 -26.667 81 -50c32.667 -30.667 49 -67.334 49 -110.001zM149.999 151.001
c0 20.667 29.3291 73.334 87.9961 158.001c-2.66699 8 -3.66699 15 -3 21s6 13.167 16 21.5s18 12.166 24 11.499c58 78.667 90.333 118 97 118s10 -4.33301 10 -13c-32.667 -40 -66 -83.333 -100 -130c0.666992 -0.666992 1 -2.33398 1 -5.00098
c8 1.33301 21.5 2.5 40.5 3.5s46.5 7.5 82.5 19.5c64.667 21.333 111.334 50.333 140.001 87c13.333 16.667 20 31.167 20 43.5s-7.83301 22.5 -23.5 30.5s-40.334 12 -74.001 12s-79.5 -8.16699 -137.5 -24.5s-98.333 -34.5 -121 -54.5
c-6.66699 -5.33301 -9 -9.66602 -7 -12.999s2.33301 -5.16602 1 -5.49902s-3 0.166992 -5 1.5c-8.66699 5.33301 -14.5 13.166 -17.5 23.499s-2.83301 16.833 0.5 19.5c20 29.333 72.667 54.666 158 75.999c60.667 14.667 105 22 133 22s48.667 -1.33301 62 -4
c37.333 -7.33301 56 -30.333 56 -69c0 -6 -1.16699 -14.333 -3.5 -25s-10.666 -24.334 -24.999 -41.001s-33.833 -32.334 -58.5 -47.001c-65.333 -37.333 -131.333 -58.333 -198 -63c-2.66699 0 -6.16699 -0.166992 -10.5 -0.5s-7.16602 -0.5 -8.49902 -0.5
c12.667 -32 38.5 -64.5 77.5 -97.5s71.167 -49.5 96.5 -49.5c10.667 0 19.834 2.33301 27.501 7s11.834 10.667 12.501 18c1.33301 3.33301 3 3 5 -1c-3.33301 -27.333 -25.333 -41 -66 -41s-78.667 13 -114 39s-62 55.667 -80 89c-42 -60 -68.333 -103.667 -79 -131
c-2 -5.33301 -5.33301 -8.66602 -10 -9.99902c44 -26 95.333 -39 154 -39c86 0 163 21.333 231 64c52 33.333 94 74 126 122c28 40 42 78.667 42 116c0 48.667 -22.667 90.334 -68 125.001c-63.333 49.333 -143.666 74 -240.999 74c-70.667 0 -128.667 -13 -174 -39
c-66.667 -38 -114.334 -84.667 -143.001 -140c-19.333 -37.333 -29 -73.666 -29 -108.999c0 -16.667 2.33301 -33 7 -49c12.667 -50 42 -90.333 88 -121z" />
    <glyph glyph-name="macron" unicode="&#xaf;" horiz-adv-x="328" 
d="M286 404c-19.333 2.66699 -37.166 4.00098 -53.499 4.00098s-29 -0.333008 -38 -1s-21.167 -2 -36.5 -4s-26.5 -3.83301 -33.5 -5.5s-18.667 -4.16699 -35 -7.5s-25.833 -5.33301 -28.5 -6s-4.83398 -1 -6.50098 -1s-2.5 4.33301 -2.5 13c0 26.667 3.66699 40 11 40
c42 5.33301 73.833 8 95.5 8s44.667 -0.666992 69 -2s45.833 -6 64.5 -14c4 -0.666992 6 -3.33398 6 -8.00098c0 -10.667 -4 -16 -12 -16z" />
    <glyph glyph-name="degree" unicode="&#xb0;" horiz-adv-x="653" 
d="M159 459c-26.667 0 -40 13.334 -40 40.001c0 6 1 14 3 24s10.167 24.167 24.5 42.5s28.833 33.5 43.5 45.5c22 18.667 46 28 72 28c12 0 23.667 -2.33301 35 -7c16.667 -6.66699 25 -20.834 25 -42.501s-11.333 -45.167 -34 -70.5
c-24.667 -26 -56.334 -44.333 -95.001 -55c-13.333 -3.33301 -24.666 -5 -33.999 -5zM236 599.001c-21.333 0 -42.667 -11.166 -64 -33.499s-32 -42.5 -32 -60.5s7.66699 -27 23 -27c8 0 19.333 3 34 9s30 17.333 46 34c16.667 19.333 25 37.166 25 53.499
s-10.667 24.5 -32 24.5z" />
    <glyph glyph-name="plusminus" unicode="&#xb1;" horiz-adv-x="438" 
d="M442 265c4.66699 -1.33301 7 -4.16602 7 -8.49902s-1.5 -8 -4.5 -11s-6.83301 -4.5 -11.5 -4.5c-29.333 2 -57.5 3 -84.5 3s-52.833 -0.666992 -77.5 -2c-42.667 -66.667 -65.667 -123.334 -69 -170.001c0 -4.66699 -1.83301 -7.66699 -5.5 -9s-7.16699 -1 -10.5 1
s-5 5.33301 -5 10c3.33301 47.333 20.333 102 51 164c-25.333 -2.66699 -67.333 -9 -126 -19c-4.66699 -0.666992 -7.16699 3.5 -7.5 12.5s1 18.167 4 27.5s6.83301 14 11.5 14c42 4 89.333 6.66699 142 8c29.333 48 60 88 92 120c4 4 9.16699 6 15.5 6
s13.833 -1.16699 22.5 -3.5s11 -5.5 7 -9.5c-32 -32 -64 -70 -96 -114c66 -0.666992 114.333 -5.66699 145 -15zM55 -18.5c0 9 1.5 17.998 4.5 26.998s6.83301 13.5 11.5 13.5c46 4.66699 89.5 7 130.5 7s79.167 -2.66699 114.5 -8c8 -1.33301 12 -4.66602 12 -9.99902
s-3.33301 -8 -10 -8c-48 -1.33301 -98.333 -6.66602 -151 -15.999c-68 -12.667 -103.667 -19 -107 -19s-5 4.5 -5 13.5z" />
    <glyph glyph-name="twosuperior" unicode="&#xb2;" horiz-adv-x="484" 
d="M144 513c0 -8.66699 6.66797 -12.9971 20.001 -12.9971s33.833 3.33301 61.5 10s50.5 18.667 68.5 36c3.33301 4.66699 5 3 5 -5c0 -10.667 -10 -22.334 -30 -35.001c-34.667 -22.667 -74.667 -34 -120 -34c-22 0 -35.667 5.66699 -41 17c-1.33301 2.66699 -2 7 -2 13
s8.16699 16.667 24.5 32s45.166 29.666 86.499 42.999s81.666 20 120.999 20c55.333 0 91.333 -14.333 108 -43c5.33301 -8 8 -16.667 8 -26c0 -32.667 -22.667 -63.334 -68 -92.001c-31.333 -20 -93.666 -45.667 -186.999 -77
c56.667 -0.666992 105.334 -8.66699 146.001 -24s61 -36.666 61 -63.999c0 -10 -1.33301 -15 -4 -15c-2.66699 0.666992 -3.83398 2 -3.50098 4s0.5 3.66699 0.5 5c0 9.33301 -12.667 18.5 -38 27.5s-54.333 13.5 -87 13.5c-59.333 0 -99.666 -2.33301 -120.999 -7
s-41.833 -10 -61.5 -16s-33.5 -9.83301 -41.5 -11.5s-17.667 -1.5 -29 0.5c-3.33301 2 -5 5.33301 -5 10s1.16699 10 3.5 16s7.16602 12.333 14.499 19c18.667 17.333 49.667 29.666 93 36.999c13.333 2 26 5.66699 38 11c85.333 38 141 64 167 78
c34 18.667 51 42.334 51 71.001c0 12 -4.66699 23.667 -14 35s-22.333 18.166 -39 20.499s-31.667 3.5 -45 3.5c-40.667 0 -77.667 -10 -111 -30c-20 -11.333 -30 -21.333 -30 -30z" />
    <glyph glyph-name="threesuperior" unicode="&#xb3;" horiz-adv-x="413" 
d="M316 604c22 0 40.5 -4.00098 55.5 -12.001s22.5 -19.333 22.5 -34s-8.83301 -29.5 -26.5 -44.5s-36.834 -26.167 -57.501 -33.5c18 0 34.167 -5.83301 48.5 -17.5s21.5 -25 21.5 -40s-2.66699 -29.167 -8 -42.5c-24 -56.667 -88.333 -96.667 -193 -120
c-23.333 -5.33301 -44 -8 -62 -8s-33.667 1.33301 -47 4c-34 5.33301 -53 20.666 -57 45.999c-0.666992 2.66699 -1 5.66699 -1 9c0 28.667 27.667 54.334 83 77.001c27.333 10.667 66 16 116 16c27.333 0 43 -1.66699 47 -5c7.33301 -6 5.33301 -9 -6 -9h-10.5
c-6.33301 0 -27.5 -4 -63.5 -12s-68 -18 -96 -30c-37.333 -14.667 -56 -30 -56 -46c0 -6.66699 6 -13 18 -19c12.667 -6.66699 33 -10 61 -10s68 11.667 120 35c66 28.667 99 58.334 99 89.001c0 13.333 -7.66699 26.333 -23 39c-16 14.667 -37.333 23 -64 25
c-12.667 0.666992 -19 4 -19 10c0 8 11 12.667 33 14s41.333 6.5 58 15.5s25 21.5 25 37.5c0 20 -10.667 34 -32 42c-9.33301 4 -21 6 -35 6s-32.667 -2.83301 -56 -8.5s-36.666 -15.167 -39.999 -28.5c-2 -7.33301 2.66699 -13.5 14 -18.5s20.333 -8 27 -9
s9.66699 -2.83301 9 -5.5c-1.33301 -1.33301 -9 -2 -23 -2s-29.667 3.33301 -47 10c-9.33301 4.66699 -14 9.66699 -14 15c0 31.333 40.333 52 121 62c16.667 2 36 3 58 3z" />
    <glyph glyph-name="acute" unicode="&#xb4;" horiz-adv-x="275" 
d="M280 432c0 -8 -7.50098 -18.334 -22.501 -31.001s-40.5 -25.667 -76.5 -39c-40 -14 -80.333 -21 -121 -21c-16 0 -24 2.33301 -24 7c0 2 5.33301 4 16 6c34.667 2.66699 71.334 16.334 110.001 41.001s58 44.667 58 60c0 2.66699 -0.666992 5.16699 -2 7.5
s-0.833008 3.5 1.5 3.5s10 -2.16699 23 -6.5s24.833 -11.5 35.5 -21.5c1.33301 -2 2 -4 2 -6z" />
    <glyph glyph-name="mu" unicode="&#xb5;" horiz-adv-x="359" 
d="M169 164c-2 -3.33301 -15.834 -23.002 -41.501 -59.002s-38.5 -57.5 -38.5 -64.5s3.33301 -10.5 10 -10.5c12 0 29.667 10.667 53 32l32 31c32.667 35.333 59.834 67.166 81.501 95.499s33.167 43.5 34.5 45.5c2.66699 1.33301 4.66699 3.33301 6 6
c11.333 12.667 23.333 19.334 36 20.001c20 0 38.333 -7.33301 55 -22c-4 -6 -10.5 -14.667 -19.5 -26l-27 -34.5l-31 -40.5c-11.667 -15.333 -21.834 -29.666 -30.501 -42.999l-26.5 -42.5c-9 -15 -15.167 -27.833 -18.5 -38.5c-10.667 -29.333 -10.667 -47.666 0 -54.999
c2.66699 -2.66699 2 -4.33398 -2 -5.00098c-1.33301 0 -2.66602 0.333008 -3.99902 1c-25.333 8.66699 -38 29.334 -38 62.001s10.667 71.334 32 116.001c-72.667 -92 -131 -138 -175 -138h-9c-123.333 -184.667 -185 -294.334 -185 -329.001c0 -3.33301 1 -6.33301 3 -9
c2.66699 -4 1.33398 -6 -3.99902 -6c-0.666992 0 -1.33398 0.333008 -2.00098 1c-21.333 21.333 -32 43 -32 65c0 45.333 39.167 132 117.5 260s142.5 217 192.5 267c14.667 14.667 30 22 46 22s32.333 -8 49 -24c-14.667 -16 -36 -41.667 -64 -77z" />
    <glyph glyph-name="paragraph" unicode="&#xb6;" horiz-adv-x="463" 
d="M465 566c34.667 34.667 65 52.0029 91 52.0029c7.33301 0 11.666 -2.33301 12.999 -7c-2 -2 -8 -4.66699 -18 -8s-17.333 -7 -22 -11c-28.667 -21.333 -63.667 -63.833 -105 -127.5s-79.5 -128.334 -114.5 -194.001s-72.333 -129.834 -112 -192.501
s-72.167 -103.667 -97.5 -123c-3.33301 -3.33301 -6.66602 -5 -9.99902 -5c-3.33301 -1.33301 -5 -0.666016 -5 2.00098c2.66699 4.66699 7.66699 10 15 16c41.333 41.333 101 140.666 179 297.999c50.667 102 92.667 176.667 126 224c16 22 32.333 42.667 49 62
c-55.333 0 -153.666 -132.667 -294.999 -398l-23.5 -44.5c-10.333 -19.667 -30 -51.334 -59 -95.001s-64 -87.667 -105 -132s-76.167 -69.5 -105.5 -75.5h-5c-4.66699 0 -7 1.66699 -7 5c2 4 5.33301 6.66699 10 8c33.333 6.66699 68.333 33 105 79
c40 50 71.833 95.333 95.5 136l50.5 87c27.333 48 49.666 89.667 66.999 125c-11.333 -1.33301 -21.666 -2 -30.999 -2c-54 0 -81 17 -81 51c0 6 0.666992 12.333 2 19c10 48.667 44.667 95.667 104 141s114.666 73.333 165.999 84c8 2 22.333 6 43 12
c36 9.33301 58 14 66 14h14z" />
    <glyph glyph-name="periodcentered" unicode="&#xb7;" horiz-adv-x="232" 
d="M126 120c-7.33301 0 -14.166 2.49902 -20.499 7.49902s-9.5 10.5 -9.5 16.5c0 20 5.66699 36 17 48c15.333 17.333 31.666 26 48.999 26c7.33301 0 14.333 -2.66699 21 -8s10 -14.166 10 -26.499s-6.83301 -26 -20.5 -41s-29.167 -22.5 -46.5 -22.5z" />
    <glyph glyph-name="cedilla" unicode="&#xb8;" horiz-adv-x="758" 
d="M227.5 -55c-9.66699 -10 -14.5 -19.002 -14.5 -27.002s7.16699 -22 21.5 -42s21.5 -36 21.5 -48c0 -39.333 -48.333 -59 -145 -59c-3.33301 0 -5 1.83301 -5 5.5s3.16699 6.33398 9.5 8.00098s15.333 3 27 4s20.5 2 26.5 3s12.333 4.83301 19 11.5
c10 10.667 15 20.667 15 30s-3.16699 20.833 -9.5 34.5s-9.5 26.334 -9.5 38.001s7 25.167 21 40.5s29 23 45 23c3.33301 0 5.5 -0.333008 6.5 -1s1.16699 -2 0.5 -4c-10 -1.33301 -19.833 -7 -29.5 -17z" />
    <glyph glyph-name="onesuperior" unicode="&#xb9;" horiz-adv-x="338" 
d="M193.5 558.5c24.333 17.667 46.668 30.499 67.001 38.499s35.166 12 44.499 12s16.333 -1.5 21 -4.5s7 -5.5 7 -7.5s-1 -2.83301 -3 -2.5s-3.66699 0.5 -5 0.5c-12.667 0 -27 -8.66699 -43 -26s-32 -41.666 -48 -72.999s-30.667 -61.5 -44 -90.5
s-26.833 -60.167 -40.5 -93.5s-22.834 -55 -27.501 -65c-26 4.66699 -43.667 15.667 -53 33c-2.66699 4.66699 -4 11.334 -4 20.001s2.66699 20.334 8 35.001c22.667 63.333 55.334 122.666 98.001 177.999c-22 -15.333 -60.333 -38 -115 -68
c-7.33301 -4.66699 -11 -4.33398 -11 0.999023s4.66699 10.5 14 15.5s28 18 56 39z" />
    <glyph glyph-name="ordmasculine" unicode="&#xba;" horiz-adv-x="224" 
d="M106 386c-26.667 -14.667 -47.666 -22.001 -62.999 -22.001c-30.667 0 -46 13.333 -46 40c0 18 3.66699 33 11 45l-15 -12c-4 -4 -6 -3.66699 -6 1c0 3.33301 3.5 8 10.5 14s17.667 16 32 30s25.166 24 32.499 30c27.333 22 52.666 33 75.999 33
c10.667 0 21 -2.33301 31 -7c16.667 -7.33301 25 -21.833 25 -43.5s-11.333 -44.834 -34 -69.501c-10.667 -11.333 -23.667 -21.333 -39 -30c32.667 4 67.334 23.667 104.001 59c5.33301 4.66699 8 4.33398 8 -0.999023c0 -1.33301 -0.666992 -2.66602 -2 -3.99902
c-43.333 -42 -84.333 -63 -123 -63h-2zM170.001 342.999c5.33301 0 8 -2.5 8 -7.5s-2.33301 -7.5 -7 -7.5c-35.333 -2 -70.333 -7.33301 -105 -16c-46 -11.333 -69.833 -17 -71.5 -17s-2.5 3.66699 -2.5 11s1.16699 15 3.5 23s4.83301 12 7.5 12c36 4.66699 67.667 7 95 7
s51.333 -1.66699 72 -5zM133.001 504.999c-8.66699 0 -21 -6.33203 -37 -18.999c-19.333 -16 -29 -33.667 -29 -53s6.33301 -31.333 19 -36c9.33301 5.33301 21.333 15.666 36 30.999c18 18.667 27 36.167 27 52.5s-5.33301 24.5 -16 24.5zM7.00098 406c0 -20 8 -30 24 -30
c12 0 27.333 5 46 15c-16.667 7.33301 -25 20 -25 38c0 20 7.66699 37.667 23 53s31.333 25 48 29c-4 0.666992 -8.33301 1 -13 1c-18 0 -37.667 -9 -59 -27c-29.333 -24.667 -44 -51 -44 -79z" />
    <glyph glyph-name="guillemotright" unicode="&#xbb;" horiz-adv-x="474" 
d="M385 262c22 -19.333 41.999 -28.9961 59.999 -28.9961s27 -0.666992 27 -2c0 -3.33301 -2.83301 -6.83301 -8.5 -10.5s-22.334 -13.834 -50.001 -30.501s-61.667 -40.834 -102 -72.501s-65.166 -57.5 -74.499 -77.5c-3.33301 -7.33301 -9.33301 -11.333 -18 -12
s-13.167 -0.166992 -13.5 1.5s-0.166016 3.16699 0.500977 4.5c10.667 23.333 33 49.166 67 77.499s72.333 55.5 115 81.5c-16.667 7.33301 -33.5 21.166 -50.5 41.499s-28.833 43.5 -35.5 69.5c-1.33301 6 -2 12 -2 18c0 18.667 7 36 21 52s22 24 24 24
c4 0 3.33301 -4.33301 -2 -13c-4.66699 -10 -7 -20 -7 -30c0 -33.333 16.333 -64.333 49 -93zM198.999 241.004c22 -19.333 42 -28.998 60 -28.998s27 -0.666992 27 -2c0 -3.33301 -2.83301 -6.83301 -8.5 -10.5s-22.334 -13.834 -50.001 -30.501
s-61.667 -40.834 -102 -72.501s-65.166 -57.5 -74.499 -77.5c-3.33301 -7.33301 -11.333 -11.333 -24 -12c-6 0.666992 -8.66699 2.66699 -8 6c22 44 83 97 183 159c-16.667 7.33301 -33.5 21 -50.5 41s-28.833 43 -35.5 69c-1.33301 6 -2 12.333 -2 19c0 18.667 7 36 21 52
s22 24 24 24c4 0 3.33301 -4.33301 -2 -13c-4.66699 -10 -7 -20 -7 -30c0 -33.333 16.333 -64.333 49 -93z" />
    <glyph glyph-name="onequarter" unicode="&#xbc;" horiz-adv-x="595" 
d="M325 595c-12.667 0 -26.998 -8.66797 -42.998 -26.001s-32 -41.666 -48 -72.999s-30.667 -61.5 -44 -90.5s-26.833 -60.167 -40.5 -93.5s-22.834 -55 -27.501 -65c-26 4.66699 -43.667 15.667 -53 33c-2.66699 4.66699 -4 11.334 -4 20.001s2.66699 20.334 8 35.001
c22.667 63.333 55.334 122.666 98.001 177.999c-22 -15.333 -60.333 -38 -115 -68c-7.33301 -4.66699 -11 -4.33398 -11 0.999023s4.66699 10.5 14 15.5s28 18 56 39l78.5 58c24.333 17.667 46.666 30.5 66.999 38.5s35.166 12 44.499 12s16.666 -1.83301 21.999 -5.5
s7.33301 -6 6 -7s-2.66602 -1.5 -3.99902 -1.5h-4zM474.002 643.999l34.999 4.99902c14.667 0 17 -6.33301 7 -19c-86.667 -113.333 -177 -239.666 -271 -378.999s-155.333 -242.333 -184 -309c-3.33301 -7.33301 -7.33301 -11 -12 -11c-1.33301 0 -3.66602 1 -6.99902 3
s-5 6 -5 12c0 28 38.667 104.833 116 230.5s148.333 235 213 328s100.667 139.5 108 139.5zM412.001 115.998c-18 -46 -27.0029 -78.332 -27.0029 -96.999s7.33301 -31.334 22 -38.001c2.66699 -2 1.66699 -4 -3 -6c-5.33301 -0.666992 -10.666 -1 -15.999 -1
c-28.667 0 -48 11.667 -58 35c-3.33301 8 -5 19.833 -5 35.5s6.33301 38.5 19 68.5c-20.667 -0.666992 -44 -4.5 -70 -11.5s-44 -10.5 -54 -10.5s-15.667 2.33301 -17 7c-2 0.666992 -3 2.5 -3 5.5s3 7.83301 9 14.5c6.66699 6.66699 19.5 17 38.5 31l71.5 55
c28.667 22.667 54.334 42 77.001 58c82.667 60.667 137.334 91 164.001 91c13.333 0 20 -3 20 -9c0 -2 -1.16699 -3 -3.5 -3h-4.5c-20 0 -43.333 -18.833 -70 -56.5s-52.334 -83.167 -77.001 -136.5c72.667 -5.33301 109 -24 109 -56c0 -12 -2.33301 -17 -7 -15
c-1.33301 0.666992 -1.66602 2 -0.999023 4s1 3.66699 1 5c0 8 -9.66699 15 -29 21s-48 9 -86 9zM431.998 263.999c-8 -4.66699 -34.998 -24.5 -80.998 -59.5l-92 -69.5c36.667 8 70.667 12.333 102 13c3.33301 6.66699 14.666 26.167 33.999 58.5s31.666 51.5 36.999 57.5z
" />
    <glyph glyph-name="onehalf" unicode="&#xbd;" horiz-adv-x="668" 
d="M325 595c-12.667 0 -26.998 -8.66797 -42.998 -26.001s-32 -41.666 -48 -72.999s-30.667 -61.5 -44 -90.5s-26.833 -60.167 -40.5 -93.5s-22.834 -55 -27.501 -65c-26 4.66699 -43.667 15.667 -53 33c-2.66699 4.66699 -4 11.334 -4 20.001s2.66699 20.334 8 35.001
c22.667 63.333 55.334 122.666 98.001 177.999c-22 -15.333 -60.333 -38 -115 -68c-7.33301 -4.66699 -11 -4.33398 -11 0.999023s4.66699 10.5 14 15.5s28 18 56 39l78.5 58c24.333 17.667 46.666 30.5 66.999 38.5s35.166 12 44.499 12s16.666 -1.83301 21.999 -5.5
s7.33301 -6 6 -7s-2.66602 -1.5 -3.99902 -1.5h-4zM474.002 643.999l34.999 4.99902c14.667 0 17 -6.33301 7 -19c-86.667 -113.333 -177 -239.666 -271 -378.999s-155.333 -242.333 -184 -309c-3.33301 -7.33301 -7.33301 -11 -12 -11c-1.33301 0 -3.66602 1 -6.99902 3
s-5 6 -5 12c0 28 38.667 104.833 116 230.5s148.333 235 213 328s100.667 139.5 108 139.5zM349.001 268.998c-22.667 -12.667 -34.0059 -23.8301 -34.0059 -33.4971s7.16699 -14.5 21.5 -14.5s31.833 2.66699 52.5 8c39.333 9.33301 68.333 23.666 87 42.999
c2 1.33301 3.33301 1.33301 4 0c0.666992 -2 1 -4.33301 1 -7c0 -11.333 -10 -23.333 -30 -36c-38.667 -24.667 -82.334 -37 -131.001 -37c-24 0 -39 5.66699 -45 17c-1.33301 3.33301 -2 6.33301 -2 9c0 10 9 23.333 27 40s49.167 32.334 93.5 47.001s87.5 22 129.5 22
c60 0 99 -15.667 117 -47c6 -8.66699 9 -18.334 9 -29.001c0 -34.667 -24.333 -67.334 -73 -98.001c-37.333 -23.333 -104.666 -51 -201.999 -83c84.667 -1.33301 148.667 -16.666 192 -45.999c20.667 -14 31 -30.667 31 -50c0 -10.667 -2 -16 -6 -16
c-2.66699 0 -3.16699 3 -1.5 9s-3.16602 12.333 -14.499 19c-19.333 12.667 -58.666 20.667 -117.999 24c-12.667 1.33301 -25.667 2 -39 2c-41.333 0 -72.666 -2.33301 -93.999 -7s-39.166 -9.16699 -53.499 -13.5s-26.166 -8.16602 -35.499 -11.499
c-29.333 -8.66699 -47 -10 -53 -4c-3.33301 2 -5 5.66699 -5 11s1.33301 11.166 4 17.499s7.66699 13.166 15 20.499c18.667 17.333 52.334 30.666 101.001 39.999c16 2.66699 29.333 6.33398 40 11.001c88.667 39.333 145.667 66 171 80c43.333 23.333 65 49.666 65 78.999
c0 16 -6.5 29.833 -19.5 41.5s-27 18.5 -42 20.5s-29.5 3 -43.5 3c-43.333 0 -83 -10.333 -119 -31z" />
    <glyph glyph-name="threequarters" unicode="&#xbe;" horiz-adv-x="712" 
d="M539 116c-17.333 -43.333 -25.998 -74.998 -25.998 -94.998s7.33301 -33.333 22 -40c2.66699 -2 1.66699 -4 -3 -6c-5.33301 -0.666992 -10.666 -1 -15.999 -1c-29.333 0 -48.666 11.667 -57.999 35c-4 8.66699 -6 21 -6 37s6.33301 38.333 19 67
c-24.667 -2 -48.834 -6.16699 -72.501 -12.5s-40.334 -9.5 -50.001 -9.5s-15.834 2.33301 -18.501 7c-2 0.666992 -2.33301 3.16699 -1 7.5s4.16602 8.66602 8.49902 12.999s16.166 13.833 35.499 28.5l73 56.5l76 58.5c82.667 60.667 138 91 166 91
c6.66699 0 12 -1.33301 16 -4c2.66699 -2.66699 4 -4.83398 4 -6.50098s-1.16699 -2.33398 -3.5 -2.00098s-3.83301 0.5 -4.5 0.5c-20.667 0 -44.5 -18.833 -71.5 -56.5s-52.167 -83.167 -75.5 -136.5c36 -2.66699 63.167 -9 81.5 -19s27.5 -22.333 27.5 -37
c0 -12 -2.33301 -17 -7 -15c-1.33301 0.666992 -1.66602 1.83398 -0.999023 3.50098s1 3.16699 1 4.5c0 8 -9.5 15.167 -28.5 21.5s-48.167 9.5 -87.5 9.5zM316.002 604.002c22 0 40.5 -4.00098 55.5 -12.001s22.5 -19.333 22.5 -34s-8.83301 -29.5 -26.5 -44.5
s-36.834 -26.167 -57.501 -33.5c18 0 34.167 -5.83301 48.5 -17.5s21.5 -25 21.5 -40s-2.66699 -29.167 -8 -42.5c-24 -56.667 -88.333 -96.667 -193 -120c-23.333 -5.33301 -44 -8 -62 -8s-33.667 1.33301 -47 4c-34 5.33301 -53 20.666 -57 45.999
c-0.666992 2.66699 -1 5.66699 -1 9c0 28.667 27.667 54.334 83 77.001c27.333 10.667 66 16 116 16c27.333 0 43 -1.66699 47 -5c7.33301 -6 5.33301 -9 -6 -9h-10.5c-6.33301 0 -27.5 -4 -63.5 -12s-68 -18 -96 -30c-37.333 -14.667 -56 -30 -56 -46
c0 -6.66699 6 -13 18 -19c12.667 -6.66699 33 -10 61 -10s68 11.667 120 35c66 28.667 99 58.334 99 89.001c0 13.333 -7.66699 26.333 -23 39c-16 14.667 -37.333 23 -64 25c-12.667 0.666992 -19 4 -19 10c0 8 11 12.667 33 14s41.333 6.5 58 15.5s25 21.5 25 37.5
c0 20 -10.667 34 -32 42c-9.33301 4 -21 6 -35 6s-32.667 -2.83301 -56 -8.5s-36.666 -15.167 -39.999 -28.5c-2 -7.33301 2.66699 -13.5 14 -18.5s20.333 -8 27 -9s9.66699 -2.83301 9 -5.5c-1.33301 -1.33301 -9 -2 -23 -2s-29.667 3.33301 -47 10
c-9.33301 4.66699 -14 9.66699 -14 15c0 31.333 40.333 52 121 62c16.667 2 36 3 58 3zM576.002 584.001l34.999 4.99902c14.667 0 17 -6.33301 7 -19c-86.667 -113.333 -177 -239.666 -271 -378.999s-155.333 -242.333 -184 -309c-3.33301 -7.33301 -7.33301 -11 -12 -11
c-1.33301 0 -3.66602 1 -6.99902 3s-5 6 -5 12c0 28 38.667 104.833 116 230.5s148.333 235 213 328s100.667 139.5 108 139.5zM559.001 264c-9.33301 -6 -37 -26.5 -83 -61.5l-89 -67.5c35.333 8 69.333 12.333 102 13c8 15.333 20.333 37 37 65s27.667 45 33 51z" />
    <glyph glyph-name="questiondown" unicode="&#xbf;" horiz-adv-x="262" 
d="M201 309c14 16.667 31.001 25.001 51.001 25.001c5.33301 0 11.166 -2.66699 17.499 -8s9.5 -11 9.5 -17c0 -20 -5.33301 -36 -16 -48c-16 -16.667 -32.667 -25 -50 -25c-8 0 -15.167 2.5 -21.5 7.5s-9.5 10.5 -9.5 16.5c0 19.333 6.33301 35.666 19 48.999z
M-226.999 -249.999c-6.66699 15.333 -10 31 -10 47s4.33301 32.333 13 49c15.333 31.333 40.5 59.666 75.5 84.999s71.5 49 109.5 71l111 66c57.333 34 86 60.667 86 80c0 5.33301 -1.5 9.5 -4.5 12.5s-4.16699 6.16699 -3.5 9.5c0.666992 4.66699 3.66699 7 9 7
c2 0 4 -0.666992 6 -2c8 -7.33301 12 -15.666 12 -24.999c0 -27.333 -32.667 -63.333 -98 -108l-183 -136c-48 -44.667 -72 -81.334 -72 -110.001c0 -14.667 6.66699 -27.334 20 -38.001c20.667 -16 52 -24 94 -24c57.333 0 108.333 9.16699 153 27.5
s81.167 35.833 109.5 52.5s51.5 33.334 69.5 50.001c33.333 30.667 40.666 51.334 21.999 62.001c-4 2 -9.66699 3 -17 3c-28 0 -65.167 -10.5 -111.5 -31.5s-86.833 -42.833 -121.5 -65.5s-57.334 -43 -68.001 -61c0 -0.666992 -0.5 -2 -1.5 -4s-2.66699 -1.5 -5 1.5
s-3.5 7.5 -3.5 13.5s4.33301 15 13 27c44 64.667 93.667 109 149 133c50 22.667 93.333 34 130 34c30.667 0 51.334 -9 62.001 -27c4 -6.66699 6 -13.5 6 -20.5s-1.83301 -16.167 -5.5 -27.5s-15.667 -27.333 -36 -48s-46.666 -40.667 -78.999 -60s-64.5 -35.333 -96.5 -48
c-96 -37.333 -171.333 -56 -226 -56s-90.667 20.333 -108 61z" />
    <glyph glyph-name="Agrave" unicode="&#xc0;" horiz-adv-x="1030" 
d="M1235.5 790.5c-30.333 13.667 -51 26.498 -62 38.498s-16.5 20.333 -16.5 25s1.33301 9 4 13s11.167 7.83301 25.5 11.5s22.666 5.5 24.999 5.5s3.5 -1 3.5 -3c-2 -3.33301 -3 -6.66602 -3 -9.99902c0 -13.333 15 -31.666 45 -54.999s60.333 -37.333 91 -42
c8 -1.33301 12.333 -3.33301 13 -6c1.33301 -5.33301 -11.667 -6.33301 -39 -3s-56.166 11.833 -86.499 25.5zM978 -89.002c1.33301 -0.666992 2.00098 -2.00098 2.00098 -4.00098c-1.33301 -4.66699 -4 -5.66699 -8 -3c-58 40.667 -87 100.334 -87 179.001
c0 32.667 6.5 67.5 19.5 104.5s36.167 81.5 69.5 133.5s65.666 97 96.999 135l90.5 106.5c29 33 44.167 50.833 45.5 53.5c8 12 13.333 10.667 16 -4c0.666992 -4.66699 1 -10 1 -16s-1.66699 -11.333 -5 -16c-41.333 -50.667 -81.333 -108 -120 -172
c-64.667 -108 -111 -206.333 -139 -295c-10.667 -35.333 -16 -72 -16 -110s11.333 -68.667 34 -92zM146.001 260.997c109.333 45.333 241.003 68.002 395.003 68.002c76 0 152 -12 228 -36l80 83.5l84 87.5c60 62 109 107.667 147 137c64 50 122.667 75 176 75
c24 0 46 -3.83301 66 -11.5s32 -13.667 36 -18s6 -6.83301 6 -7.5s-0.666992 -1.83398 -2 -3.50098s-3.33301 -0.833984 -6 2.49902c-12.667 12 -37.334 18 -74.001 18c-62 0 -127.333 -27 -196 -81c-49.333 -40 -90.333 -76.5 -123 -109.5l-102.5 -105l-72.5 -74.5
c66.667 -24.667 103 -57 109 -97c0.666992 -4 0.5 -6.66699 -0.5 -8s-2.33301 -1.33301 -4 0s-2.83398 3.33301 -3.50098 6c-5.33301 12.667 -24 22.667 -56 30c-28.667 6.66699 -61.667 11.667 -99 15c-135.333 -130.667 -255 -213.667 -359 -249
c-56.667 -20 -110.334 -30 -161.001 -30c-90.667 0 -153.5 13.5 -188.5 40.5s-52.5 56.833 -52.5 89.5c0 12.667 2.33301 25.667 7 39c20 54.667 75.333 101 166 139zM647.004 235.999c-88.667 0 -181.999 -9.33105 -279.999 -27.998
c-150.667 -26.667 -248.667 -66.334 -294 -119.001c-14 -16.667 -21 -32.334 -21 -47.001c0 -17.333 9.33301 -33 28 -47c22 -16.667 60.167 -25 114.5 -25s113.166 9 176.499 27c94.667 29.333 207.334 108.333 338.001 237c-20.667 1.33301 -41.334 2 -62.001 2z" />
    <glyph glyph-name="Aacute" unicode="&#xc1;" horiz-adv-x="1030" 
d="M1452 854c1.33301 -2 2 -5.50098 2 -10.501s-7.5 -13.833 -22.5 -26.5s-40.5 -25.5 -76.5 -38.5s-68.833 -20 -98.5 -21s-45.167 0.833008 -46.5 5.5c-0.666992 4 4.66602 6.33301 15.999 7c34.667 2.66699 71.334 16.334 110.001 41.001s58 44.667 58 60
c0 2.66699 -0.666992 5.16699 -2 7.5s-0.833008 3.5 1.5 3.5s10 -2.16699 23 -6.5s24.833 -11.5 35.5 -21.5zM978 -89.001c1.33301 -0.666992 2.00098 -2.00098 2.00098 -4.00098c-1.33301 -4.66699 -4 -5.66699 -8 -3c-58 40.667 -87 100.334 -87 179.001
c0 32.667 6.5 67.5 19.5 104.5s36.167 81.5 69.5 133.5s65.666 97 96.999 135l90.5 106.5c29 33 44.167 50.833 45.5 53.5c8 12 13.333 10.667 16 -4c0.666992 -4.66699 1 -10 1 -16s-1.66699 -11.333 -5 -16c-41.333 -50.667 -81.333 -108 -120 -172
c-64.667 -108 -111 -206.333 -139 -295c-10.667 -35.333 -16 -72 -16 -110s11.333 -68.667 34 -92zM146.001 260.998c109.333 45.333 241.003 68.002 395.003 68.002c76 0 152 -12 228 -36l80 83.5l84 87.5c60 62 109 107.667 147 137c64 50 122.667 75 176 75
c24 0 46 -3.83301 66 -11.5s32 -13.667 36 -18s6 -6.83301 6 -7.5s-0.666992 -1.83398 -2 -3.50098s-3.33301 -0.833984 -6 2.49902c-12.667 12 -37.334 18 -74.001 18c-62 0 -127.333 -27 -196 -81c-49.333 -40 -90.333 -76.5 -123 -109.5l-102.5 -105l-72.5 -74.5
c66.667 -24.667 103 -57 109 -97c0.666992 -4 0.5 -6.66699 -0.5 -8s-2.33301 -1.33301 -4 0s-2.83398 3.33301 -3.50098 6c-5.33301 12.667 -24 22.667 -56 30c-28.667 6.66699 -61.667 11.667 -99 15c-135.333 -130.667 -255 -213.667 -359 -249
c-56.667 -20 -110.334 -30 -161.001 -30c-90.667 0 -153.5 13.5 -188.5 40.5s-52.5 56.833 -52.5 89.5c0 12.667 2.33301 25.667 7 39c20 54.667 75.333 101 166 139zM647.004 236c-88.667 0 -181.999 -9.33105 -279.999 -27.998
c-150.667 -26.667 -248.667 -66.334 -294 -119.001c-14 -16.667 -21 -32.334 -21 -47.001c0 -17.333 9.33301 -33 28 -47c22 -16.667 60.167 -25 114.5 -25s113.166 9 176.499 27c94.667 29.333 207.334 108.333 338.001 237c-20.667 1.33301 -41.334 2 -62.001 2z" />
    <glyph glyph-name="Acircumflex" unicode="&#xc2;" horiz-adv-x="1030" 
d="M146 261c109.333 45.333 241.003 68.001 395.003 68.001c76 0 152 -12 228 -36l80 83.5l84 87.5c60 62 109 107.667 147 137c64 50 122.667 75 176 75c24 0 46 -3.83301 66 -11.5s32.333 -13.834 37 -18.501s6 -8 4 -10s-4.33301 -1.33301 -7 2
c-12.667 12 -37.334 18 -74.001 18c-62 0 -127.333 -27 -196 -81c-49.333 -40 -90.333 -76.5 -123 -109.5l-102.5 -105l-72.5 -74.5c66.667 -24.667 103 -57 109 -97c0.666992 -4 0.5 -6.66699 -0.5 -8s-2.33301 -1.33301 -4 0s-2.83398 3.33301 -3.50098 6
c-5.33301 12.667 -24 22.667 -56 30c-28.667 6.66699 -61.667 11.667 -99 15c-135.333 -130.667 -255 -213.667 -359 -249c-56.667 -20 -110.334 -30 -161.001 -30c-90.667 0 -153.5 13.5 -188.5 40.5s-52.5 56.833 -52.5 89.5c0 12.667 2.33301 25.667 7 39
c20 54.667 75.333 101 166 139zM647.003 236.001c-88.667 0 -181.999 -9.33105 -279.999 -27.998c-150.667 -26.667 -248.667 -66.334 -294 -119.001c-14 -16.667 -21 -32.334 -21 -47.001c0 -17.333 9.33301 -33 28 -47c22 -16.667 60.167 -25 114.5 -25
s113.166 9 176.499 27c94.667 29.333 207.334 108.333 338.001 237c-20.667 1.33301 -41.334 2 -62.001 2zM978.004 -88.9971c1.33301 -0.666992 2.00098 -2.00098 2.00098 -4.00098c-1.33301 -4.66699 -4 -5.66699 -8 -3c-58 40.667 -87 100.334 -87 179.001
c0 32.667 6.5 67.5 19.5 104.5s36.167 81.5 69.5 133.5s65.666 97 96.999 135l90.5 106.5c29 33 44.167 50.833 45.5 53.5c8 12 13.333 10.667 16 -4c0.666992 -4.66699 1 -10 1 -16s-1.66699 -11.333 -5 -16c-41.333 -50.667 -81.333 -108 -120 -172
c-64.667 -108 -111 -206.333 -139 -295c-10.667 -35.333 -16 -72 -16 -110s11.333 -68.667 34 -92zM1418 768.002c2 0 5.49902 0.333984 10.499 1.00098s7.5 -0.333008 7.5 -3c0 -3.33301 -6.33301 -6.83301 -19 -10.5s-26.5 -5.5 -41.5 -5.5s-29.167 4.66699 -42.5 14
c-21.333 14 -32 32 -32 54c-48 -39.333 -91.333 -59 -130 -59c-6.66699 0 -10 1 -10 3s1.33301 5 4 9s8.83398 6 18.501 6s27.334 6.66699 53.001 20s50.167 29.666 73.5 48.999c8.66699 12 20.167 23.833 34.5 35.5s22.166 17.5 23.499 17.5s-0.166992 -4.16699 -4.5 -12.5
s-6.5 -17.5 -6.5 -27.5c0 -30.667 7.16699 -53.5 21.5 -68.5s27.5 -22.5 39.5 -22.5z" />
    <glyph glyph-name="Atilde" unicode="&#xc3;" horiz-adv-x="1030" 
d="M1416 818c7.33301 -2 11 -6.66797 11 -14.001c0 -9.33301 -7 -19.666 -21 -30.999c-24 -18 -45.333 -27 -64 -27s-32.834 3.16699 -42.501 9.5s-20.5 13.833 -32.5 22.5c-13.333 9.33301 -24 14 -32 14c-15.333 0 -33.333 -10.333 -54 -31
c-5.33301 -6 -9.33301 -7.33301 -12 -4c-1.33301 2.66699 -0.333008 5.66699 3 9c39.333 37.333 72 56 98 56s47.833 -5 65.5 -15s31.834 -15 42.501 -15c18 0 30.667 8.66699 38 26zM978 -89.001c1.33301 -0.666992 2.00098 -2.00098 2.00098 -4.00098
c-1.33301 -4.66699 -4 -5.66699 -8 -3c-58 40.667 -87 100.334 -87 179.001c0 32.667 6.5 67.5 19.5 104.5s36.167 81.5 69.5 133.5s65.666 97 96.999 135l90.5 106.5c29 33 44.167 50.833 45.5 53.5c8 12 13.333 10.667 16 -4c0.666992 -4.66699 1 -10 1 -16
s-1.66699 -11.333 -5 -16c-41.333 -50.667 -81.333 -108 -120 -172c-64.667 -108 -111 -206.333 -139 -295c-10.667 -35.333 -16 -72 -16 -110s11.333 -68.667 34 -92zM146.001 260.998c109.333 45.333 241.003 68.002 395.003 68.002c76 0 152 -12 228 -36l80 83.5l84 87.5
c60 62 109 107.667 147 137c64 50 122.667 75 176 75c24 0 46 -3.83301 66 -11.5s32 -13.667 36 -18s6 -6.83301 6 -7.5s-0.666992 -1.83398 -2 -3.50098s-3.33301 -0.833984 -6 2.49902c-12.667 12 -37.334 18 -74.001 18c-62 0 -127.333 -27 -196 -81
c-49.333 -40 -90.333 -76.5 -123 -109.5l-102.5 -105l-72.5 -74.5c66.667 -24.667 103 -57 109 -97c0.666992 -4 0.5 -6.66699 -0.5 -8s-2.33301 -1.33301 -4 0s-2.83398 3.33301 -3.50098 6c-5.33301 12.667 -24 22.667 -56 30c-28.667 6.66699 -61.667 11.667 -99 15
c-135.333 -130.667 -255 -213.667 -359 -249c-56.667 -20 -110.334 -30 -161.001 -30c-90.667 0 -153.5 13.5 -188.5 40.5s-52.5 56.833 -52.5 89.5c0 12.667 2.33301 25.667 7 39c20 54.667 75.333 101 166 139zM647.004 236c-88.667 0 -181.999 -9.33105 -279.999 -27.998
c-150.667 -26.667 -248.667 -66.334 -294 -119.001c-14 -16.667 -21 -32.334 -21 -47.001c0 -17.333 9.33301 -33 28 -47c22 -16.667 60.167 -25 114.5 -25s113.166 9 176.499 27c94.667 29.333 207.334 108.333 338.001 237c-20.667 1.33301 -41.334 2 -62.001 2z" />
    <glyph glyph-name="Adieresis" unicode="&#xc4;" horiz-adv-x="1030" 
d="M1314 774.5c1.33301 9.66699 7.00098 20 17.001 31s22 16.5 36 16.5c4.66699 0 9.5 -2 14.5 -6s7.5 -11 7.5 -21s-4.33301 -19.833 -13 -29.5s-18.167 -15.667 -28.5 -18s-18.833 -0.833008 -25.5 4.5s-9.33398 12.833 -8.00098 22.5zM1192 774.5
c1.33301 9.66699 7.00098 19.999 17.001 30.999s22.333 16.5 37 16.5c4 0 8.66699 -2.16699 14 -6.5s7.5 -11.666 6.5 -21.999s-5.5 -20 -13.5 -29s-17.167 -14.667 -27.5 -17s-18.833 -0.833008 -25.5 4.5s-9.33398 12.833 -8.00098 22.5zM978.002 -89.001
c1.33301 -0.666992 2.00098 -2.00098 2.00098 -4.00098c-1.33301 -4.66699 -4 -5.66699 -8 -3c-58 40.667 -87 100.334 -87 179.001c0 32.667 6.5 67.5 19.5 104.5s36.167 81.5 69.5 133.5s65.666 97 96.999 135l90.5 106.5c29 33 44.167 50.833 45.5 53.5
c8 12 13.333 10.667 16 -4c0.666992 -4.66699 1 -10 1 -16s-1.66699 -11.333 -5 -16c-41.333 -50.667 -81.333 -108 -120 -172c-64.667 -108 -111 -206.333 -139 -295c-10.667 -35.333 -16 -72 -16 -110s11.333 -68.667 34 -92zM146.003 260.998
c109.333 45.333 241.003 68.002 395.003 68.002c76 0 152 -12 228 -36l80 83.5l84 87.5c60 62 109 107.667 147 137c64 50 122.667 75 176 75c24 0 46 -3.83301 66 -11.5s32 -13.667 36 -18s6 -6.83301 6 -7.5s-0.666992 -1.83398 -2 -3.50098
s-3.33301 -0.833984 -6 2.49902c-12.667 12 -37.334 18 -74.001 18c-62 0 -127.333 -27 -196 -81c-49.333 -40 -90.333 -76.5 -123 -109.5l-102.5 -105l-72.5 -74.5c66.667 -24.667 103 -57 109 -97c0.666992 -4 0.5 -6.66699 -0.5 -8s-2.33301 -1.33301 -4 0
s-2.83398 3.33301 -3.50098 6c-5.33301 12.667 -24 22.667 -56 30c-28.667 6.66699 -61.667 11.667 -99 15c-135.333 -130.667 -255 -213.667 -359 -249c-56.667 -20 -110.334 -30 -161.001 -30c-90.667 0 -153.5 13.5 -188.5 40.5s-52.5 56.833 -52.5 89.5
c0 12.667 2.33301 25.667 7 39c20 54.667 75.333 101 166 139zM647.006 236c-88.667 0 -181.999 -9.33105 -279.999 -27.998c-150.667 -26.667 -248.667 -66.334 -294 -119.001c-14 -16.667 -21 -32.334 -21 -47.001c0 -17.333 9.33301 -33 28 -47
c22 -16.667 60.167 -25 114.5 -25s113.166 9 176.499 27c94.667 29.333 207.334 108.333 338.001 237c-20.667 1.33301 -41.334 2 -62.001 2z" />
    <glyph glyph-name="Aring" unicode="&#xc5;" horiz-adv-x="1030" 
d="M978 -89c1.33301 -0.666992 2.00098 -2.00098 2.00098 -4.00098c-1.33301 -4.66699 -4 -5.66699 -8 -3c-58 40.667 -87 100.334 -87 179.001c0 32.667 6.5 67.5 19.5 104.5s36.167 81.5 69.5 133.5s65.666 97 96.999 135l90.5 106.5c29 33 44.167 50.833 45.5 53.5
c8 12 13.333 10.667 16 -4c0.666992 -4.66699 1 -10 1 -16s-1.66699 -11.333 -5 -16c-41.333 -50.667 -81.333 -108 -120 -172c-64.667 -108 -111 -206.333 -139 -295c-10.667 -35.333 -16 -72 -16 -110s11.333 -68.667 34 -92zM146.001 260.999
c109.333 45.333 241.002 68.001 395.002 68.001c76 0 152 -12 228 -36l80 83.5l84 87.5c60 62 109.833 108.5 149.5 139.5s79.834 52.167 120.501 63.5c-1.33301 6 -2 11.667 -2 17s1 12.833 3 22.5s10.167 23.667 24.5 42s28.833 33.5 43.5 45.5c22 18.667 46.333 28 73 28
l35 -7c16.667 -7.33301 25 -21.833 25 -43.5s-11.667 -44.834 -35 -69.501c-12 -13.333 -28.333 -25.333 -49 -36c19.333 -7.33301 31.666 -13.666 36.999 -18.999s7 -9 5 -11s-4 -2 -6 0c-8.66699 10 -28 16.333 -58 19c-21.333 -9.33301 -38.166 -14 -50.499 -14
s-21.833 1.66699 -28.5 5c-42.667 -10.667 -87.334 -34.334 -134.001 -71.001c-49.333 -40 -90.333 -76.5 -123 -109.5l-102.5 -105l-72.5 -74.5c66.667 -24.667 103 -57 109 -97c0.666992 -4 0.5 -6.66699 -0.5 -8s-2.33301 -1.33301 -4 0s-2.83398 3.33301 -3.50098 6
c-5.33301 12.667 -24 22.667 -56 30c-28.667 6.66699 -61.667 11.667 -99 15c-135.333 -130.667 -255 -213.667 -359 -249c-56.667 -20 -110.334 -30 -161.001 -30c-90.667 0 -153.5 13.5 -188.5 40.5s-52.5 56.833 -52.5 89.5c0 12.667 2.33301 25.667 7 39
c20 54.667 75.333 101 166 139zM1317 781c-12 0 -26.167 -4.99902 -42.5 -14.999s-29.166 -23.5 -38.499 -40.5s-14 -29.167 -14 -36.5s1 -13 3 -17c12.667 2 25.667 3 39 3l23 -1c13.333 7.33301 25.666 17 36.999 29c17.333 19.333 26 37.166 26 53.499s-11 24.5 -33 24.5
zM647.003 236.001c-88.667 0 -181.999 -9.33105 -279.999 -27.998c-150.667 -26.667 -248.667 -66.334 -294 -119.001c-14 -16.667 -21 -32.334 -21 -47.001c0 -17.333 9.33301 -33 28 -47c22 -16.667 60.167 -25 114.5 -25s113.166 9 176.499 27
c94.667 29.333 207.334 108.333 338.001 237c-20.667 1.33301 -41.334 2 -62.001 2z" />
    <glyph glyph-name="AE" unicode="&#xc6;" horiz-adv-x="1788" 
d="M1053 278c-70.667 -70.667 -106.001 -133.001 -106.001 -187.001c0 -26.667 7.66699 -50.667 23 -72c28 -36.667 85.333 -58.334 172 -65.001c9.33301 -1.33301 24.333 -2 45 -2s50 4 88 12c98.667 17.333 195.334 51.333 290.001 102s164.334 108.667 209.001 174
c8.66699 12 13 15 13 9c0 -2 -0.666992 -5.66699 -2 -11c-18 -50.667 -79 -110.167 -183 -178.5s-209.333 -113.833 -316 -136.5c-44 -8.66699 -79.333 -13 -106 -13s-47.334 0.666992 -62.001 2c-48.667 5.33301 -88.667 19.333 -120 42c-54.667 39.333 -82 88.5 -82 147.5
s18.333 117.5 55 175.5c-55.333 -2 -123 -5.66699 -203 -11c-71.333 -71.333 -138 -130.666 -200 -177.999c-118.667 -90 -243 -135 -373 -135c-78 0 -135.333 14 -172 42c-51.333 40 -77 78.667 -77 116c0 108 196 181 588 219c102 9.33301 198.333 16 289 20l38 39.5
l40 42l36 37l39 39l35 32.5c21.333 20 46.5 41.667 75.5 65s59.5 41.166 91.5 53.499s59 18.5 81 18.5s43.333 -2.33301 64 -7c18 -5.33301 33.667 -14.166 47 -26.499s22.333 -27.5 27 -45.5c65.333 23.333 129.666 35 192.999 35c38 0 70.667 -9 98 -27
c29.333 -18.667 44 -46 44 -82c0 -24 -6.66699 -48.667 -20 -74c-4 -8.66699 -6.66699 -11 -8 -7s-0.166016 10.333 3.50098 19s5.5 18.334 5.5 29.001c0 30.667 -27.667 46 -83 46c-68.667 0 -160.334 -24 -275.001 -72c-82 -34 -153.667 -72.333 -215 -115
c40 -2 82.667 -5.66699 128 -11c154 -18 231 -46.667 231 -86c0 -12 -5.66699 -23.5 -17 -34.5s-18.666 -14.833 -21.999 -11.5c-1.33301 1.33301 -1.5 3 -0.5 5s1.5 3.66699 1.5 5c0 12.667 -32.167 25 -96.5 37s-119.833 19 -166.5 21s-95 3 -145 3zM1379 590.999
c-9.33301 43.333 -43.333 64.999 -102 64.999s-119 -24.5 -181 -73.5s-143.667 -126.167 -245 -231.5c41.333 2 101.333 3 180 3l4 4c44.667 48.667 98 93.334 160 134.001s123.333 73.667 184 99zM30.999 68.998c0 -24.667 16.334 -49.334 49.001 -74.001
c22 -16.667 60.167 -25 114.5 -25s113.166 9 176.499 27c101.333 31.333 224 120.333 368 267c-90.667 -8 -151.667 -13.667 -183 -17c-350 -33.333 -525 -92.666 -525 -177.999z" />
    <glyph glyph-name="Ccedilla" unicode="&#xc7;" horiz-adv-x="758" 
d="M345 325l25.9971 -3.99805c32 0 79.5 14.167 142.5 42.5s120.833 63.5 173.5 105.5s79 79 79 111c0 20.667 -10.167 35 -30.5 43s-42.5 12 -66.5 12c-78 0 -162 -22.333 -252 -67s-167.667 -97.334 -233 -158.001c-92.667 -88 -139 -168 -139 -240
c0 -29.333 7.33301 -54.833 22 -76.5s34 -38.167 58 -49.5c47.333 -21.333 98.333 -32 153 -32c78.667 0 163.834 16.5 255.501 49.5s172.834 73.833 243.501 122.5c2 2 4.33301 3 7 3s4 -1.5 4 -4.5s-1 -5.5 -3 -7.5c-54 -56.667 -134 -106.334 -240 -149.001
s-199.333 -64 -280 -64h-8c-10 -1.33301 -19.833 -7 -29.5 -17s-14.5 -19 -14.5 -27s7.16699 -22 21.5 -42s21.5 -36 21.5 -48c0 -39.333 -48.333 -59 -145 -59c-3.33301 0 -5 1.83301 -5 5.5s3.16699 6.33398 9.5 8.00098s15.333 3 27 4s20.5 2 26.5 3
s12.333 4.83301 19 11.5c10 10.667 15 20.667 15 30s-3.16699 20.833 -9.5 34.5s-9.5 25.667 -9.5 36s4.83301 22.166 14.5 35.499s20.834 22.333 33.501 27c-60.667 5.33301 -111.667 23.5 -153 54.5s-62 75.833 -62 134.5c0 90 50.333 180.667 151 272
c73.333 65.333 161 121.666 263 168.999s197 71 285 71c54 0 96 -13 126 -39c17.333 -16 26 -35.667 26 -59c0 -32.667 -16.5 -65.5 -49.5 -98.5s-72.667 -61.167 -119 -84.5s-92.833 -42.666 -139.5 -57.999c-56 -19.333 -103.667 -29 -143 -29
c-20.667 0 -38.667 2.33301 -54 7s-23 10 -23 16c0 3.33301 1.66699 5 5 5z" />
    <glyph glyph-name="Egrave" unicode="&#xc8;" horiz-adv-x="912" 
d="M694.5 755.5c-30.333 13.667 -50.998 26.333 -61.998 38s-16.5 19.834 -16.5 24.501s1.33301 9 4 13s11.167 7.83301 25.5 11.5s22.666 5.5 24.999 5.5s3 -1.16699 2 -3.5s-1.5 -5.16602 -1.5 -8.49902c0 -13.333 15.167 -31.833 45.5 -55.5s60.5 -37.834 90.5 -42.501
c8 -1.33301 12.667 -3.33301 14 -6c1.33301 -4.66699 -11.834 -5.33398 -39.501 -2.00098s-56.667 11.833 -87 25.5zM813.002 527.999c0 30.667 -27.6699 46 -83.0029 46c-68.667 0 -162 -24.5 -280 -73.5s-210.333 -104.167 -277 -165.5
c-40.667 -38 -72 -74.833 -94 -110.5s-33 -66.834 -33 -93.501s7.33301 -50.334 22 -71.001c25.333 -38.667 82.333 -61.667 171 -69c10 -0.666992 25.667 -1 47 -1s51 3.66699 89 11c98.667 18 195.334 52.333 290.001 103s164.334 108.334 209.001 173.001
c8.66699 12.667 13 16 13 10c0 -2.66699 -0.666992 -6.66699 -2 -12c-18 -50.667 -79 -110 -183 -178c-152.667 -100 -300 -150 -442 -150c-82.667 0 -148 24.333 -196 73c-32 31.333 -48 73.333 -48 126c0 45.333 11.667 89.333 35 132c56.667 106.667 155 201 295 283
c82.667 48.667 157 81 223 97c42 8 82 12 120 12s71 -8.66699 99 -26c29.333 -19.333 44 -46.666 44 -81.999c0 -22.667 -6.66699 -47.667 -20 -75c-4 -8 -6.66699 -10 -8 -6s-0.166016 10.167 3.50098 18.5s5.5 17.833 5.5 28.5zM566.999 302.999
c4 -4.66699 6 -8.50098 6 -11.501s-0.333008 -5.5 -1 -7.5c-4 -5.33301 -11 -4.66602 -21 2.00098c-22.667 16.667 -59 25 -109 25c-62 0 -123.333 -8.33301 -184 -25c-26 -7.33301 -44 -11 -54 -11c-15.333 0 -25.333 7 -30 21c-0.666992 0.666992 -1 1.66699 -1 3
c0 7.33301 6.33301 16 19 26s36.667 18.333 72 25c22 5.33301 47 8 75 8s58.333 -2 91 -6c69.333 -8.66699 115 -25 137 -49z" />
    <glyph glyph-name="Eacute" unicode="&#xc9;" horiz-adv-x="912" 
d="M892 831c2.66699 -2.66699 4 -6.83105 4 -12.498s-7.33301 -14.834 -22 -27.501s-40 -25.334 -76 -38.001s-74.667 -19.667 -116 -21c-18 -1.33301 -27.667 0.666992 -29 6c-0.666992 1.33301 0.666016 2.66602 3.99902 3.99902l12 2
c34.667 2.66699 71.334 16.334 110.001 41.001s58 44.667 58 60c0 2.66699 -0.666992 5.16699 -2 7.5s-0.833008 3.5 1.5 3.5s9.33301 -1.66699 21 -5s23.167 -10 34.5 -20zM813 528.003c0 30.667 -27.6699 46 -83.0029 46c-68.667 0 -162 -24.5 -280 -73.5
s-210.333 -104.167 -277 -165.5c-40.667 -38 -72 -74.833 -94 -110.5s-33 -66.834 -33 -93.501s7.33301 -50.334 22 -71.001c25.333 -38.667 82.333 -61.667 171 -69c10 -0.666992 25.667 -1 47 -1s51 3.66699 89 11c98.667 18 195.334 52.333 290.001 103
s164.334 108.334 209.001 173.001c8.66699 12.667 13 16 13 10c0 -2.66699 -0.666992 -6.66699 -2 -12c-18 -50.667 -79 -110 -183 -178c-152.667 -100 -300 -150 -442 -150c-82.667 0 -148 24.333 -196 73c-32 31.333 -48 73.333 -48 126c0 45.333 11.667 89.333 35 132
c56.667 106.667 155 201 295 283c82.667 48.667 157 81 223 97c42 8 82 12 120 12s71 -8.66699 99 -26c29.333 -19.333 44 -46.666 44 -81.999c0 -22.667 -6.66699 -47.667 -20 -75c-4 -8 -6.66699 -10 -8 -6s-0.166016 10.167 3.50098 18.5s5.5 17.833 5.5 28.5z
M566.997 303.003c4 -4.66699 6 -8.50098 6 -11.501s-0.333008 -5.5 -1 -7.5c-4 -5.33301 -11 -4.66602 -21 2.00098c-22.667 16.667 -59 25 -109 25c-62 0 -123.333 -8.33301 -184 -25c-26 -7.33301 -44 -11 -54 -11c-15.333 0 -25.333 7 -30 21
c-0.666992 0.666992 -1 1.66699 -1 3c0 7.33301 6.33301 16 19 26s36.667 18.333 72 25c22 5.33301 47 8 75 8s58.333 -2 91 -6c69.333 -8.66699 115 -25 137 -49z" />
    <glyph glyph-name="Ecircumflex" unicode="&#xca;" horiz-adv-x="912" 
d="M813 528c0 30.667 -27.6699 46 -83.0029 46c-68.667 0 -162 -24.5 -280 -73.5s-210.333 -104.167 -277 -165.5c-40.667 -38 -72 -74.833 -94 -110.5s-33 -66.834 -33 -93.501s7.33301 -50.334 22 -71.001c25.333 -38.667 82.333 -61.667 171 -69
c10 -0.666992 25.667 -1 47 -1s51 3.66699 89 11c98.667 18 195.334 52.333 290.001 103s164.334 108.334 209.001 173.001c8.66699 12.667 13 16 13 10c0 -2.66699 -0.666992 -6.66699 -2 -12c-18 -50.667 -79 -110 -183 -178c-152.667 -100 -300 -150 -442 -150
c-82.667 0 -148 24.333 -196 73c-32 31.333 -48 73.333 -48 126c0 45.333 11.667 89.333 35 132c56.667 106.667 155 201 295 283c82.667 48.667 157 81 223 97c42 8 82 12 120 12s71 -8.66699 99 -26c29.333 -19.333 44 -46.666 44 -81.999
c0 -22.667 -6.66699 -47.667 -20 -75c-4 -8 -6.66699 -10 -8 -6s-0.166016 10.167 3.50098 18.5s5.5 17.833 5.5 28.5zM257.997 286c-26 -7.33301 -44 -11.002 -54 -11.002c-15.333 0 -25.333 7 -30 21c-0.666992 0.666992 -1 1.66699 -1 3c0 7.33301 6.33301 16 19 26
s36.667 18.333 72 25c22 5.33301 47 8 75 8s58.333 -2 91 -6c69.333 -8.66699 115 -25 137 -49c6.66699 -7.33301 8.16699 -13.666 4.5 -18.999s-10.5 -4.66602 -20.5 2.00098c-22.667 16.667 -62 25 -118 25s-114.333 -8.33301 -175 -25zM754.997 790.998
c-22 -18 -45.333 -32.332 -70 -42.999s-42.667 -16 -54 -16s-17 1.16699 -17 3.5s1.33301 5.5 4 9.5s5.16699 6 7.5 6h4.5c14.667 0 34.667 6.66699 60 20s49.666 29.666 72.999 48.999c6.66699 10 17.834 21.5 33.501 34.5s24.167 19.5 25.5 19.5
s-0.333984 -4.16699 -5.00098 -12.5s-7 -19.833 -7 -34.5s3.66699 -29.334 11 -44.001c12.667 -27.333 29.334 -41 50.001 -41c2.66699 0 6.5 0.333008 11.5 1s7.5 -0.666016 7.5 -3.99902c0 -4 -6.16699 -7.5 -18.5 -10.5s-26 -4.5 -41 -4.5s-29.5 4.66699 -43.5 14
c-21.333 14 -32 31.667 -32 53z" />
    <glyph glyph-name="Edieresis" unicode="&#xcb;" horiz-adv-x="912" 
d="M802 786c8 9.33301 15.333 14.832 22 16.499s12.167 2.5 16.5 2.5s9.33301 -2.16699 15 -6.5s7.83398 -11.5 6.50098 -21.5s-6 -19.667 -14 -29s-17 -15.166 -27 -17.499s-18.333 -0.833008 -25 4.5s-9.33398 12.833 -8.00098 22.5s6 19.167 14 28.5zM680 785.999
c8 9.33301 15.334 14.833 22.001 16.5s12.167 2.5 16.5 2.5s9.33301 -2 15 -6s8 -11.333 7 -22s-5.66699 -20.5 -14 -29.5s-17.5 -14.667 -27.5 -17s-18.333 -0.833008 -25 4.5s-9.33398 12.833 -8.00098 22.5s6 19.167 14 28.5zM813.001 527.999
c0 30.667 -27.6699 46 -83.0029 46c-68.667 0 -162 -24.5 -280 -73.5s-210.333 -104.167 -277 -165.5c-40.667 -38 -72 -74.833 -94 -110.5s-33 -66.834 -33 -93.501s7.33301 -50.334 22 -71.001c25.333 -38.667 82.333 -61.667 171 -69c10 -0.666992 25.667 -1 47 -1
s51 3.66699 89 11c98.667 18 195.334 52.333 290.001 103s164.334 108.334 209.001 173.001c8.66699 12.667 13 16 13 10c0 -2.66699 -0.666992 -6.66699 -2 -12c-18 -50.667 -79 -110 -183 -178c-152.667 -100 -300 -150 -442 -150c-82.667 0 -148 24.333 -196 73
c-32 31.333 -48 73.333 -48 126c0 45.333 11.667 89.333 35 132c56.667 106.667 155 201 295 283c82.667 48.667 157 81 223 97c42 8 82 12 120 12s71 -8.66699 99 -26c29.333 -19.333 44 -46.666 44 -81.999c0 -22.667 -6.66699 -47.667 -20 -75c-4 -8 -6.66699 -10 -8 -6
s-0.166016 10.167 3.50098 18.5s5.5 17.833 5.5 28.5zM566.998 302.999c4 -4.66699 6 -8.50098 6 -11.501s-0.333008 -5.5 -1 -7.5c-4 -5.33301 -11 -4.66602 -21 2.00098c-22.667 16.667 -59 25 -109 25c-62 0 -123.333 -8.33301 -184 -25c-26 -7.33301 -44 -11 -54 -11
c-15.333 0 -25.333 7 -30 21c-0.666992 0.666992 -1 1.66699 -1 3c0 7.33301 6.33301 16 19 26s36.667 18.333 72 25c22 5.33301 47 8 75 8s58.333 -2 91 -6c69.333 -8.66699 115 -25 137 -49z" />
    <glyph glyph-name="Igrave" unicode="&#xcc;" horiz-adv-x="595" 
d="M630.5 724.5c-30.333 13.667 -50.998 26.498 -61.998 38.498s-16.5 20.333 -16.5 25s1.33301 8.83398 4 12.501s11.167 7.33398 25.5 11.001s22.666 5.5 24.999 5.5s3 -1 2 -3s-1.5 -4.66699 -1.5 -8c0 -13.333 15.167 -32 45.5 -56s60.5 -38.333 90.5 -43
c8 -1.33301 12.667 -3 14 -5c1.33301 -5.33301 -11.834 -6.33301 -39.501 -3s-56.667 11.833 -87 25.5zM752.002 520.998c0 20.667 -16 35 -48 43s-71.167 12 -117.5 12s-106.833 -6.66699 -181.5 -20c-127.333 -23.333 -216.666 -54 -267.999 -92
c-22 -16 -33 -31.667 -33 -47s10.667 -30.333 32 -45c4.66699 -2.66699 4.5 -4.16699 -0.5 -4.5s-9.16699 0.833984 -12.5 3.50098c-16.667 11.333 -28.667 27.333 -36 48c-3.33301 9.33301 -5 19.666 -5 30.999c0 40.667 20.333 72.334 61 95.001
c51.333 30 115.333 53.833 192 71.5s149 26.5 217 26.5c45.333 0 90.666 -8.33301 135.999 -25c24 -9.33301 42 -22.333 54 -39s18 -34.334 18 -53.001c0 -15.333 -1.83301 -22.833 -5.5 -22.5s-5 2.5 -4 6.5s1.5 7.66699 1.5 11zM646.002 562.998
c6 0 8.99902 -1.66699 8.99902 -5c0 -4.66699 -3.66699 -12 -11 -22c-98.667 -130 -199.667 -282.333 -303 -457c43.333 -4.66699 81.5 -12.5 114.5 -23.5s59.5 -27.333 79.5 -49s30 -46.167 30 -73.5c0 -18 -2.66699 -26.667 -8 -26c-3.33301 0 -4.5 2.33301 -3.5 7
s1.5 8 1.5 10c0 15.333 -11.667 29.333 -35 42c-42 22.667 -103.333 34 -184 34c-13.333 0 -27 -0.333008 -41 -1c-34 -60.667 -57.333 -107 -70 -139c-3.33301 -7.33301 -6.5 -11 -9.5 -11s-4.5 3.66699 -4.5 11c0 17.333 19.667 63.333 59 138
c-45.333 -4 -91.333 -15.333 -138 -34c-19.333 -7.33301 -35 -13.5 -47 -18.5s-25.667 -9 -41 -12s-25 -1.5 -29 4.5c-5.33301 4 -8 9.83301 -8 17.5s1.5 16 4.5 25s9.16699 18.833 18.5 29.5c20 24.667 60 44.667 120 60c32.667 8.66699 64.334 13 95.001 13
s54.667 -0.666992 72 -2c60.667 102.667 127.167 208.5 199.5 317.5s112.5 163.5 120.5 163.5z" />
    <glyph glyph-name="Iacute" unicode="&#xcd;" horiz-adv-x="595" 
d="M854 805c1.33301 -2 1.99902 -5.66699 1.99902 -11s-7.5 -14.333 -22.5 -27s-40.5 -25.334 -76.5 -38.001s-68.833 -19.5 -98.5 -20.5s-45.167 0.833008 -46.5 5.5c0 1.33301 1.66699 2.66602 5 3.99902l11 2c34.667 2.66699 71.334 16.334 110.001 41.001
s58 44.667 58 60c0 2.66699 -0.666992 5.16699 -2 7.5s-0.833008 3.5 1.5 3.5s10 -2.16699 23 -6.5s24.833 -11.166 35.5 -20.499zM751.999 521c0 20.667 -16 35 -48 43s-71.167 12 -117.5 12s-106.833 -6.66699 -181.5 -20c-127.333 -23.333 -216.666 -54 -267.999 -92
c-22 -16 -33 -31.667 -33 -47s10.667 -30.333 32 -45c4.66699 -2.66699 4.5 -4.16699 -0.5 -4.5s-9.16699 0.833984 -12.5 3.50098c-16.667 11.333 -28.667 27.333 -36 48c-3.33301 9.33301 -5 19.666 -5 30.999c0 40.667 20.333 72.334 61 95.001
c51.333 30 115.333 53.833 192 71.5s149 26.5 217 26.5c45.333 0 90.666 -8.33301 135.999 -25c24 -9.33301 42 -22.333 54 -39s18 -34.334 18 -53.001c0 -15.333 -1.83301 -22.833 -5.5 -22.5s-5 2.5 -4 6.5s1.5 7.66699 1.5 11zM645.999 563
c6 0 8.99902 -1.66699 8.99902 -5c0 -4.66699 -3.66699 -12 -11 -22c-98.667 -130 -199.667 -282.333 -303 -457c43.333 -4.66699 81.5 -12.5 114.5 -23.5s59.5 -27.333 79.5 -49s30 -46.167 30 -73.5c0 -18 -2.66699 -26.667 -8 -26c-3.33301 0 -4.5 2.33301 -3.5 7
s1.5 8 1.5 10c0 15.333 -11.667 29.333 -35 42c-42 22.667 -103.333 34 -184 34c-13.333 0 -27 -0.333008 -41 -1c-34 -60.667 -57.333 -107 -70 -139c-3.33301 -7.33301 -6.5 -11 -9.5 -11s-4.5 3.66699 -4.5 11c0 17.333 19.667 63.333 59 138
c-45.333 -4 -91.333 -15.333 -138 -34c-19.333 -7.33301 -35 -13.5 -47 -18.5s-25.667 -9 -41 -12s-25 -1.5 -29 4.5c-5.33301 4 -8 9.83301 -8 17.5s1.5 16 4.5 25s9.16699 18.833 18.5 29.5c20 24.667 60 44.667 120 60c32.667 8.66699 64.334 13 95.001 13
s54.667 -0.666992 72 -2c60.667 102.667 127.167 208.5 199.5 317.5s112.5 163.5 120.5 163.5z" />
    <glyph glyph-name="Icircumflex" unicode="&#xce;" horiz-adv-x="595" 
d="M211 -140c0 17.333 19.665 63.333 58.998 138c-45.333 -4 -91.333 -15.333 -138 -34c-19.333 -7.33301 -35 -13.5 -47 -18.5s-25.667 -9 -41 -12s-25 -1.5 -29 4.5c-5.33301 4 -8 9.83301 -8 17.5s1.5 16 4.5 25s9.16699 18.833 18.5 29.5c20 24.667 60 44.667 120 60
c32.667 8.66699 64.334 13 95.001 13s54.667 -0.666992 72 -2c60.667 102.667 127.167 208.5 199.5 317.5s112.5 163.5 120.5 163.5c0.666992 0 2.33398 0.166992 5.00098 0.5s4.66699 0.333008 6 0s2.83301 -0.833008 4.5 -1.5s2.5 -2 2.5 -4c0 -4 -3.66699 -11 -11 -21
c-98.667 -130 -199.667 -282.333 -303 -457c43.333 -4.66699 81.5 -12.5 114.5 -23.5s59.5 -27.333 79.5 -49s30 -46.167 30 -73.5c0 -18 -2.66699 -26.667 -8 -26c-3.33301 0 -4.5 2.33301 -3.5 7s1.5 8 1.5 10c0 15.333 -11.667 29.333 -35 42
c-42 22.667 -103.333 34 -184 34c-13.333 0 -27 -0.333008 -41 -1c-34 -60.667 -57.333 -107 -70 -139c-3.33301 -7.33301 -6.5 -11 -9.5 -11s-4.5 3.66699 -4.5 11zM751.998 521c0 20.667 -16 35.001 -48 43.001s-71.167 12 -117.5 12s-106.833 -6.66699 -181.5 -20
c-127.333 -23.333 -216.666 -54 -267.999 -92c-22 -16 -33 -31.667 -33 -47s10.667 -30.333 32 -45c5.33301 -3.33301 4.33301 -5 -3 -5c-4 0 -7.33301 1.33301 -10 4c-16.667 11.333 -28.667 27.333 -36 48c-3.33301 9.33301 -5 19.666 -5 30.999
c0 40.667 20.333 72.334 61 95.001c51.333 30 115.333 53.833 192 71.5s149 26.5 217 26.5c45.333 0 90.666 -8.33301 135.999 -25c24 -9.33301 42 -22.333 54 -39s18 -34.334 18 -53.001c0 -15.333 -1.83301 -22.833 -5.5 -22.5s-5 2.5 -4 6.5s1.5 7.66699 1.5 11z
M568.998 688.001c-6.66699 0 -9.99805 1.16895 -9.99805 3.50195s1.16699 5.5 3.5 9.5s4.66602 5.83301 6.99902 5.5s3.83301 -0.5 4.5 -0.5c14.667 0 34.5 6.66699 59.5 20s49.167 29.666 72.5 48.999l1 1c8 11.333 19.5 23 34.5 35s23.167 18 24.5 18
s-0.333984 -4 -5.00098 -12s-7 -19.333 -7 -34s3.66699 -29.334 11 -44.001c13.333 -27.333 30.333 -41 51 -41c2 0 5.5 0.333008 10.5 1s7.5 -0.333008 7.5 -3c0 -4 -6.33301 -7.83301 -19 -11.5s-26.5 -5.5 -41.5 -5.5s-28.833 4.33301 -41.5 13
c-21.333 14.667 -32.333 33 -33 55c-48 -39.333 -91.333 -59 -130 -59z" />
    <glyph glyph-name="Idieresis" unicode="&#xcf;" horiz-adv-x="595" 
d="M749.5 714.5c1 10.333 6.16797 20.834 15.501 31.501s21.666 16 36.999 16c4.66699 0 9.5 -2.16699 14.5 -6.5s7.5 -11 7.5 -20s-4.33301 -18.5 -13 -28.5s-18.167 -16.5 -28.5 -19.5s-18.833 -1.83301 -25.5 3.5c-6 5.33301 -8.5 13.166 -7.5 23.499zM627.501 714.501
c1 10.333 6.16602 20.835 15.499 31.502s21.666 16 36.999 16c4.66699 0 9.83398 -2.33301 15.501 -7s7.83398 -11.834 6.50098 -21.501s-6 -19 -14 -28s-17 -15 -27 -18s-18.333 -1.83301 -25 3.5s-9.5 13.166 -8.5 23.499zM752 521.003c0 20.667 -16 35 -48 43
s-71.167 12 -117.5 12s-106.833 -6.66699 -181.5 -20c-127.333 -23.333 -216.666 -54 -267.999 -92c-22 -16 -33 -31.667 -33 -47s10.667 -30.333 32 -45c4.66699 -2.66699 4.5 -4.16699 -0.5 -4.5s-9.16699 0.833984 -12.5 3.50098c-16.667 11.333 -28.667 27.333 -36 48
c-3.33301 9.33301 -5 19.666 -5 30.999c0 40.667 20.333 72.334 61 95.001c51.333 30 115.333 53.833 192 71.5s149 26.5 217 26.5c45.333 0 90.666 -8.33301 135.999 -25c24 -9.33301 42 -22.333 54 -39s18 -34.334 18 -53.001c0 -15.333 -1.83301 -22.833 -5.5 -22.5
s-5 2.5 -4 6.5s1.5 7.66699 1.5 11zM646 563.003c6 0 8.99902 -1.66699 8.99902 -5c0 -4.66699 -3.66699 -12 -11 -22c-98.667 -130 -199.667 -282.333 -303 -457c43.333 -4.66699 81.5 -12.5 114.5 -23.5s59.5 -27.333 79.5 -49s30 -46.167 30 -73.5
c0 -18 -2.66699 -26.667 -8 -26c-3.33301 0 -4.5 2.33301 -3.5 7s1.5 8 1.5 10c0 15.333 -11.667 29.333 -35 42c-42 22.667 -103.333 34 -184 34c-13.333 0 -27 -0.333008 -41 -1c-34 -60.667 -57.333 -107 -70 -139c-3.33301 -7.33301 -6.5 -11 -9.5 -11
s-4.5 3.66699 -4.5 11c0 17.333 19.667 63.333 59 138c-45.333 -4 -91.333 -15.333 -138 -34c-19.333 -7.33301 -35 -13.5 -47 -18.5s-25.667 -9 -41 -12s-25 -1.5 -29 4.5c-5.33301 4 -8 9.83301 -8 17.5s1.5 16 4.5 25s9.16699 18.833 18.5 29.5
c20 24.667 60 44.667 120 60c32.667 8.66699 64.334 13 95.001 13s54.667 -0.666992 72 -2c60.667 102.667 127.167 208.5 199.5 317.5s112.5 163.5 120.5 163.5z" />
    <glyph glyph-name="Eth" unicode="&#xd0;" horiz-adv-x="843" 
d="M863 472c-37.333 54 -108.335 88.6699 -213.002 104.003c-30 4.66699 -59.333 7 -88 7c-106 0 -210 -19 -312 -57c-77.333 -28.667 -136 -62 -176 -100c-26 -23.333 -39 -45.333 -39 -66c0 -12.667 3.33301 -23.334 10 -32.001s8.33398 -14 5.00098 -16
s-6.66602 -1.33301 -9.99902 2c-16.667 19.333 -25 43.666 -25 72.999c0 48 19 87.333 57 118c52 41.333 124.5 75.833 217.5 103.5s180.5 41.5 262.5 41.5s149.333 -11.333 202 -34c104 -44 156 -119.667 156 -227c0 -87.333 -38.333 -171 -115 -251
c-90.667 -94 -221 -155.333 -391 -184c-51.333 -8.66699 -98 -13 -140 -13c-146 0 -234.333 30 -265 90c-3.33301 6.66699 -5 10.667 -5 12c0 5.33301 5.33301 4 16 -4c40 -28 105.5 -42 196.5 -42s184 13.5 279 40.5s176.833 66.5 245.5 118.5
c51.333 38.667 90.333 77.667 117 117c28 41.333 42 78.166 42 110.499s-9 61.833 -27 88.5zM449.998 549.003c0.666992 0.666992 1.99805 1 3.99805 1h11c4.66699 0 7 -1 7 -3c0 -4.66699 -2.66699 -9.66699 -8 -15c-32.667 -36 -88 -106.333 -166 -211
c84 12 136.333 18 157 18c6.66699 0.666992 9.83398 -1.83301 9.50098 -7.5s-3.83301 -9.16699 -10.5 -10.5c-94 -18 -156 -32 -186 -42c-52.667 -73.333 -89.667 -138.666 -111 -195.999c-2 -5.33301 -4 -8 -6 -8s-4.5 1.33301 -7.5 4s-3.16699 10 -0.5 22
c8.66699 36 39.667 91.667 93 167c-9.33301 -3.33301 -22.666 -7.33301 -39.999 -12l-101 -31c-4 -1.33301 -6 2 -6 10c0 18.667 6.66699 33.667 20 45c61.333 15.333 115 27.333 161 36l27 37c91.333 125.333 142.333 190.666 153 195.999z" />
    <glyph glyph-name="Ntilde" unicode="&#xd1;" horiz-adv-x="585" 
d="M-63 -140c-3.33301 -7.33301 -6.33594 -10.9971 -9.00293 -10.9971s-4 3.33301 -4 10c0 38.667 58.667 151.5 176 338.5s196 304.167 236 351.5c17.333 54.667 37 90.334 59 107.001c4.66699 3.33301 11.834 5 21.501 5s25.334 -4.33301 47.001 -13s32.5 -19 32.5 -31
c0 -5.33301 -2.66699 -10 -8 -14c-30 -25.333 -53.333 -73 -70 -143s-25 -141.333 -25 -214c0 -86.667 10 -154.334 30 -203.001c27.333 70.667 89.833 188.167 187.5 352.5s152.167 246.5 163.5 246.5c0.666992 0 3.66699 0.333008 9 1c20.667 2.66699 31 1 31 -5
c0 -2.66699 -2.33301 -8 -7 -16c-68 -88.667 -138.667 -192 -212 -310s-127.333 -215 -162 -291c13.333 -22 29 -37.333 47 -46c8 -4 15.667 -6 23 -6s13 1.16699 17 3.5s6.66699 3 8 2s2 -2.5 2 -4.5s-0.666992 -3.66699 -2 -5c-15.333 -11.333 -29.333 -17 -42 -17
c-40 0 -74 19.167 -102 57.5s-49 86.166 -63 143.499s-21 111.666 -21 162.999c0 57.333 6.33301 114.666 19 171.999c-71.333 -96.667 -145.666 -208.167 -222.999 -334.5s-130.333 -222.833 -159 -289.5zM733.997 733.003c22.667 0 37.665 8.33398 44.998 25.001
c7.33301 -0.666992 11 -4.66699 11 -12c0 -10 -7.33301 -21 -22 -33c-23.333 -17.333 -44.166 -26 -62.499 -26s-32.5 3.16699 -42.5 9.5s-21 13.833 -33 22.5c-13.333 9.33301 -23.666 14 -30.999 14c-16.667 0 -35 -10.667 -55 -32c-6 -6 -9.83301 -8 -11.5 -6
s-2.5 3.66699 -2.5 5s1.66699 3.66602 5 6.99902c37.333 37.333 68.333 56 93 56s45.167 -3.5 61.5 -10.5s26.5 -12 30.5 -15s8.66699 -4.5 14 -4.5z" />
    <glyph glyph-name="Ograve" unicode="&#xd2;" horiz-adv-x="600" 
d="M530.5 730.5c-30.333 13.667 -50.999 26.502 -61.999 38.502s-16.5 20.333 -16.5 25s1.5 9 4.5 13s11.667 7.83301 26 11.5s22.666 5.5 24.999 5.5s2.83301 -1.33301 1.5 -4s-2 -5.66699 -2 -9c0 -13.333 15 -31.833 45 -55.5s60 -37.834 90 -42.501
c9.33301 -1.33301 14 -3.83301 14 -7.5s-13.333 -3.83398 -40 -0.500977s-55.167 11.833 -85.5 25.5zM641.501 337.502c-27 -57 -63.835 -115.169 -110.502 -174.502c-58 -73.333 -127 -131.666 -207 -174.999c-41.333 -22 -83.666 -33 -126.999 -33
c-59.333 0 -106.666 21 -141.999 63c-30 35.333 -45 77 -45 125c0 66.667 24.333 139.334 73 218.001c36 57.333 80.167 108.5 132.5 153.5s95.666 73 129.999 84s64 16.5 89 16.5s46.5 -8.33301 64.5 -25c20 -18 30 -44.667 30 -80c0 -20.667 -3.66699 -42 -11 -64
c-2.66699 -8 -5 -10 -7 -6s-1.83301 9.83301 0.5 17.5s3.5 15.834 3.5 24.501c0 29.333 -17.333 44 -52 44c-50 0 -112.167 -24 -186.5 -72s-130.166 -97.667 -167.499 -149c-51.333 -70.667 -77 -134.334 -77 -191.001c0 -62 34.667 -98.667 104 -110
c10 -2 20.333 -3 31 -3c36.667 0 81 9.33301 133 28c94 33.333 169.667 86 227 158c76.667 95.333 115 201.333 115 318c0 9.33301 -0.5 24.333 -1.5 45s-5.83301 40 -14.5 58c-14.667 30.667 -32 43 -52 37c-3.33301 -1.33301 -5 -1 -5 1c0.666992 8 9 12 25 12
s32 -6.66699 48 -20c26.667 -21.333 40 -62.5 40 -123.5s-13.5 -120 -40.5 -177z" />
    <glyph glyph-name="Oacute" unicode="&#xd3;" horiz-adv-x="600" 
d="M677 794c1.33301 -2 2.00195 -5.5 2.00195 -10.5s-7.5 -13.833 -22.5 -26.5s-40.5 -25.5 -76.5 -38.5s-68.833 -20 -98.5 -21s-45.167 0.833008 -46.5 5.5c-0.666992 4 4.66602 6.33301 15.999 7c34 2 70.5 15.5 109.5 40.5s58.5 45.167 58.5 60.5
c0 2.66699 -0.666992 5.16699 -2 7.5s-0.833008 3.5 1.5 3.5s10.166 -2.33301 23.499 -7s25 -11.667 35 -21zM641.502 337.5c-27 -57 -63.835 -115.169 -110.502 -174.502c-58 -73.333 -127 -131.666 -207 -174.999c-41.333 -22 -83.666 -33 -126.999 -33
c-59.333 0 -106.666 21 -141.999 63c-30 35.333 -45 77 -45 125c0 66.667 24.333 139.334 73 218.001c36 57.333 80.167 108.5 132.5 153.5s95.666 73 129.999 84s64 16.5 89 16.5s46.5 -8.33301 64.5 -25c20 -18 30 -44.667 30 -80c0 -20.667 -3.66699 -42 -11 -64
c-2.66699 -8 -5 -10 -7 -6s-1.83301 9.83301 0.5 17.5s3.5 15.834 3.5 24.501c0 29.333 -17.333 44 -52 44c-50 0 -112.167 -24 -186.5 -72s-130.166 -97.667 -167.499 -149c-51.333 -70.667 -77 -134.334 -77 -191.001c0 -62 34.667 -98.667 104 -110
c10 -2 20.333 -3 31 -3c36.667 0 81 9.33301 133 28c94 33.333 169.667 86 227 158c76.667 95.333 115 201.333 115 318c0 9.33301 -0.5 24.333 -1.5 45s-5.83301 40 -14.5 58c-14.667 30.667 -32 43 -52 37c-3.33301 -1.33301 -5 -1 -5 1c0.666992 8 9 12 25 12
s32 -6.66699 48 -20c26.667 -21.333 40 -62.5 40 -123.5s-13.5 -120 -40.5 -177z" />
    <glyph glyph-name="Ocircumflex" unicode="&#xd4;" horiz-adv-x="600" 
d="M641.5 337.5c-27 -57 -63.835 -115.169 -110.502 -174.502c-58 -73.333 -127 -131.666 -207 -174.999c-41.333 -22 -83.666 -33 -126.999 -33c-59.333 0 -106.666 21 -141.999 63c-30 35.333 -45 77 -45 125c0 66.667 24.333 139.334 73 218.001
c36 57.333 80.167 108.5 132.5 153.5s95.666 73 129.999 84s64 16.5 89 16.5s46.5 -8.33301 64.5 -25c20 -18 30 -44.667 30 -80c0 -20.667 -3.66699 -42 -11 -64c-2.66699 -8 -5 -10 -7 -6s-1.83301 9.83301 0.5 17.5s3.5 15.834 3.5 24.501c0 29.333 -17.333 44 -52 44
c-50 0 -112.167 -24 -186.5 -72s-130.166 -97.667 -167.499 -149c-51.333 -70.667 -77 -134.334 -77 -191.001c0 -62 34.667 -98.667 104 -110c10 -2 20.333 -3 31 -3c36.667 0 81 9.33301 133 28c94 33.333 169.667 86 227 158c76.667 95.333 115 201.333 115 318
c0 9.33301 -0.5 24.333 -1.5 45s-5.83301 40 -14.5 58c-14.667 30.667 -32 43 -52 37c-3.33301 -1.33301 -5 -1 -5 1c0.666992 8 9 12 25 12s32 -6.66699 48 -20c26.667 -21.333 40 -62.5 40 -123.5s-13.5 -120 -40.5 -177zM728.998 706.998c2 0 5.50098 0.333008 10.501 1
s7.5 -0.333008 7.5 -3c0 -3.33301 -6.33301 -6.83301 -19 -10.5s-26.5 -5.5 -41.5 -5.5s-29.167 4.66699 -42.5 14c-21.333 14.667 -31.666 32.667 -30.999 54c-22 -18 -45.333 -32.333 -70 -43s-45.667 -16 -63 -16h-3c-3.33301 0 -5 1 -5 3s1.16699 5 3.5 9
s4.66602 6 6.99902 6h4.5c14.667 0 34.667 6.66699 60 20s50 29.666 74 48.999c6.66699 10.667 17.667 22.334 33 35.001s23.666 19 24.999 19s-0.166992 -4.33301 -4.5 -13s-6.5 -18 -6.5 -28c0 -30.667 7.16699 -53.5 21.5 -68.5s27.5 -22.5 39.5 -22.5z" />
    <glyph glyph-name="Otilde" unicode="&#xd5;" horiz-adv-x="600" 
d="M641.5 337.5c-27 -57 -63.835 -115.169 -110.502 -174.502c-58 -73.333 -127 -131.666 -207 -174.999c-41.333 -22 -83.666 -33 -126.999 -33c-59.333 0 -106.666 21 -141.999 63c-30 35.333 -45 77 -45 125c0 66.667 24.333 139.334 73 218.001
c36 57.333 80.167 108.5 132.5 153.5s95.666 73 129.999 84s64 16.5 89 16.5s46.5 -8.33301 64.5 -25c20 -18 30 -44.667 30 -80c0 -20.667 -3.66699 -42 -11 -64c-2.66699 -8 -5 -10 -7 -6s-1.83301 9.83301 0.5 17.5s3.5 15.834 3.5 24.501c0 29.333 -17.333 44 -52 44
c-50 0 -112.167 -24 -186.5 -72s-130.166 -97.667 -167.499 -149c-51.333 -70.667 -77 -134.334 -77 -191.001c0 -62 34.667 -98.667 104 -110c10 -2 20.333 -3 31 -3c36.667 0 81 9.33301 133 28c94 33.333 169.667 86 227 158c76.667 95.333 115 201.333 115 318
c0 9.33301 -0.5 24.333 -1.5 45s-5.83301 40 -14.5 58c-14.667 30.667 -32 43 -52 37c-3.33301 -1.33301 -5 -1 -5 1c0.666992 8 9 12 25 12s32 -6.66699 48 -20c26.667 -21.333 40 -62.5 40 -123.5s-13.5 -120 -40.5 -177z" />
    <glyph glyph-name="Odieresis" unicode="&#xd6;" horiz-adv-x="600" 
d="M677 780c16.667 0 25.001 -8.99805 25.001 -26.998c0 -10 -4.33301 -19.833 -13 -29.5s-18.167 -15.834 -28.5 -18.501s-18.833 -1.33398 -25.5 3.99902s-9.33398 13 -8.00098 23s6 19.667 14 29c10.667 12.667 22.667 19 36 19zM505.501 732.002
c1 10.667 6.16504 21.334 15.498 32.001s21.666 16 36.999 16c4.66699 0 9.83398 -2.33301 15.501 -7s7.83398 -11.834 6.50098 -21.501s-6 -19.167 -14 -28.5s-17.167 -15.333 -27.5 -18s-18.666 -1.5 -24.999 3.5s-9 12.833 -8 23.5zM641.499 337.502
c-27 -57 -63.835 -115.169 -110.502 -174.502c-58 -73.333 -127 -131.666 -207 -174.999c-41.333 -22 -83.666 -33 -126.999 -33c-59.333 0 -106.666 21 -141.999 63c-30 35.333 -45 77 -45 125c0 66.667 24.333 139.334 73 218.001c36 57.333 80.167 108.5 132.5 153.5
s95.666 73 129.999 84s64 16.5 89 16.5s46.5 -8.33301 64.5 -25c20 -18 30 -44.667 30 -80c0 -20.667 -3.66699 -42 -11 -64c-2.66699 -8 -5 -10 -7 -6s-1.83301 9.83301 0.5 17.5s3.5 15.834 3.5 24.501c0 29.333 -17.333 44 -52 44c-50 0 -112.167 -24 -186.5 -72
s-130.166 -97.667 -167.499 -149c-51.333 -70.667 -77 -134.334 -77 -191.001c0 -62 34.667 -98.667 104 -110c10 -2 20.333 -3 31 -3c36.667 0 81 9.33301 133 28c94 33.333 169.667 86 227 158c76.667 95.333 115 201.333 115 318c0 9.33301 -0.5 24.333 -1.5 45
s-5.83301 40 -14.5 58c-14.667 30.667 -32 43 -52 37c-3.33301 -1.33301 -5 -1 -5 1c0.666992 8 9 12 25 12s32 -6.66699 48 -20c26.667 -21.333 40 -62.5 40 -123.5s-13.5 -120 -40.5 -177z" />
    <glyph glyph-name="multiply" unicode="&#xd7;" horiz-adv-x="310" 
d="M143 186c84 74.667 135.333 111.996 154 111.996c4.66699 0 8.33398 -1.16699 11.001 -3.5s4 -4.66602 4 -6.99902s-7.33301 -8.5 -22 -18.5c-34 -22 -80.333 -59 -139 -111c7.33301 -33.333 17.666 -63.666 30.999 -90.999c20.667 -40.667 44 -61 70 -61
c14 0 24 4 30 12c1.33301 1.33301 2.66602 1.5 3.99902 0.5s1.33301 -2.16699 0 -3.5c-10 -13.333 -23.333 -20 -40 -20c-66 0 -117 36.333 -153 109c-60.667 -58 -94 -90.5 -100 -97.5s-10.667 -9.66699 -14 -8s-5 3.33398 -5 5.00098s1 3.83398 3 6.50098
c16 24 51.333 63 106 117h-1c-15.333 40.667 -23 71.667 -23 93s3 37.166 9 47.499s18 19.5 36 27.5s28.667 12 32 12c4.66699 0 5.33398 -4.16699 2.00098 -12.5s-5 -18.166 -5 -29.499c0 -38.667 3.33301 -65 10 -79z" />
    <glyph glyph-name="Oslash" unicode="&#xd8;" horiz-adv-x="600" 
d="M641.5 337.5c-27 -57 -63.835 -115.169 -110.502 -174.502c-58 -73.333 -127 -131.666 -207 -174.999c-41.333 -22 -83.666 -33 -126.999 -33c-59.333 0 -106.666 21 -141.999 63c-30 35.333 -45 77 -45 125c0 66.667 24.333 139.334 73 218.001
c36 57.333 80.167 108.5 132.5 153.5s95.666 73 129.999 84s64 16.5 89 16.5s46.5 -8.33301 64.5 -25c20 -18 30 -44.667 30 -80c0 -20.667 -3.66699 -42 -11 -64c-2.66699 -8 -5 -10 -7 -6s-1.83301 9.83301 0.5 17.5s3.5 15.834 3.5 24.501c0 29.333 -17.333 44 -52 44
c-50 0 -112.167 -24 -186.5 -72s-130.166 -97.667 -167.499 -149c-51.333 -70.667 -77 -134.334 -77 -191.001c0 -62 34.667 -98.667 104 -110c10 -2 20.333 -3 31 -3c36.667 0 81 9.33301 133 28c94 33.333 169.667 86 227 158c76.667 95.333 115 201.333 115 318
c0 9.33301 -0.5 24.333 -1.5 45s-5.83301 40 -14.5 58c-14.667 30.667 -32 43 -52 37c-3.33301 -1.33301 -5 -1 -5 1c0.666992 8 9 12 25 12s32 -6.66699 48 -20c26.667 -21.333 40 -62.5 40 -123.5s-13.5 -120 -40.5 -177z" />
    <glyph glyph-name="Ugrave" unicode="&#xd9;" horiz-adv-x="674" 
d="M613.5 584.5c-30.333 13.667 -51 26.501 -62 38.501s-16.5 20.333 -16.5 25s1.33301 9 4 13s11.167 7.83301 25.5 11.5s22.833 5.5 25.5 5.5s3.33398 -1.33301 2.00098 -4s-2 -5.66699 -2 -9c0 -13.333 15 -31.833 45 -55.5s60.333 -37.834 91 -42.501
c8 -1.33301 12.333 -3 13 -5c1.33301 -4.66699 -7.33398 -6.33398 -26.001 -5.00098c-36 4.66699 -69.167 13.834 -99.5 27.501zM770 452.001c-121.333 -212 -185.998 -381.999 -193.998 -509.999c-1.33301 -15.333 -2 -29.166 -2 -41.499s3.33301 -26.833 10 -43.5
c8 -20.667 22.667 -31 44 -31c10 0 18.167 2.83301 24.5 8.5s9.66602 7 9.99902 4s-1.5 -6.16699 -5.5 -9.5c-10 -9.33301 -24.667 -14 -44 -14h-7c-67.333 5.33301 -101 46.666 -101 123.999c0 30.667 5.33301 67.334 16 110.001c7.33301 25.333 21.333 57.666 42 96.999
c-68 -88.667 -130.667 -147 -188 -175c-20.667 -9.33301 -39 -14 -55 -14s-30 6.5 -42 19.5s-18 28 -18 45s2.5 36.333 7.5 58s27.167 84.5 66.5 188.5c49.333 130 74 211 74 243c0 44.667 -29 67 -87 67s-126 -19.333 -204 -58c-25.333 -12 -42.833 -22 -52.5 -30
s-16.834 -12 -21.501 -12c-7.33301 0 -13.166 5 -17.499 15s-6.5 19.833 -6.5 29.5s2.5 18.5 7.5 26.5s9.5 13.667 13.5 17c31.333 25.333 86.666 44.666 165.999 57.999c40 7.33301 80.667 11 122 11s77.5 -8.66699 108.5 -26s46.5 -43 46.5 -77c0 -8 -1 -16.667 -3 -26
c-6.66699 -33.333 -37 -101.833 -91 -205.5s-86 -170.334 -96 -200.001s-15 -52.334 -15 -68.001s3.5 -28.5 10.5 -38.5s17.833 -15 32.5 -15s34.334 6.5 59.001 19.5s50.167 31.333 76.5 55s48.833 46.334 67.5 68.001s40.5 50.334 65.5 86.001s43.167 63.167 54.5 82.5
l97 160c6.66699 11.333 12.167 17 16.5 17s7.66602 -1.16699 9.99902 -3.5s3.5 -4.5 3.5 -6.5s-0.333008 -3.66699 -1 -5z" />
    <glyph glyph-name="Uacute" unicode="&#xda;" horiz-adv-x="674" 
d="M799 643c0 -8.66699 -7.5 -19.333 -22.5 -32s-40.5 -25.334 -76.5 -38.001s-74.667 -19.667 -116 -21c-18 -1.33301 -27.667 0.666992 -29 6c-0.666992 1.33301 0.666016 2.66602 3.99902 3.99902l12 2c34.667 2.66699 71.334 16.334 110.001 41.001s58 44.667 58 60
c0 2.66699 -0.666992 5.16699 -2 7.5s-0.833008 3.5 1.5 3.5s10 -2.16699 23 -6.5s24.833 -11.166 35.5 -20.499c1.33301 -2 2 -4 2 -6zM770 452.001c-121.333 -212 -185.998 -381.999 -193.998 -509.999c-1.33301 -15.333 -2 -29.166 -2 -41.499s3.33301 -26.833 10 -43.5
c8 -20.667 22.667 -31 44 -31c10 0 18.167 2.83301 24.5 8.5s9.66602 7 9.99902 4s-1.5 -6.16699 -5.5 -9.5c-10 -9.33301 -24.667 -14 -44 -14h-7c-67.333 5.33301 -101 46.666 -101 123.999c0 30.667 5.33301 67.334 16 110.001c7.33301 25.333 21.333 57.666 42 96.999
c-68 -88.667 -130.667 -147 -188 -175c-20.667 -9.33301 -39 -14 -55 -14s-30 6.5 -42 19.5s-18 28 -18 45s2.5 36.333 7.5 58s27.167 84.5 66.5 188.5c49.333 130 74 211 74 243c0 44.667 -29 67 -87 67s-126 -19.333 -204 -58c-25.333 -12 -42.833 -22 -52.5 -30
s-16.834 -12 -21.501 -12c-7.33301 0 -13.166 5 -17.499 15s-6.5 19.833 -6.5 29.5s2.5 18.5 7.5 26.5s9.5 13.667 13.5 17c31.333 25.333 86.666 44.666 165.999 57.999c40 7.33301 80.667 11 122 11s77.5 -8.66699 108.5 -26s46.5 -43 46.5 -77c0 -8 -1 -16.667 -3 -26
c-6.66699 -33.333 -37 -101.833 -91 -205.5s-86 -170.334 -96 -200.001s-15 -52.334 -15 -68.001s3.5 -28.5 10.5 -38.5s17.833 -15 32.5 -15s34.334 6.5 59.001 19.5s50.167 31.333 76.5 55s48.833 46.334 67.5 68.001s40.5 50.334 65.5 86.001s43.167 63.167 54.5 82.5
l97 160c6.66699 11.333 12.167 17 16.5 17s7.66602 -1.16699 9.99902 -3.5s3.5 -4.5 3.5 -6.5s-0.333008 -3.66699 -1 -5z" />
    <glyph glyph-name="Ucircumflex" unicode="&#xdb;" horiz-adv-x="674" 
d="M770 452c-121.333 -212 -185.999 -381.999 -193.999 -509.999c-1.33301 -15.333 -2 -29.166 -2 -41.499s3.33301 -26.833 10 -43.5c8 -20.667 22.667 -31 44 -31c10 0 18.167 2.83301 24.5 8.5s9.66602 7 9.99902 4s-1.5 -6.16699 -5.5 -9.5
c-10 -9.33301 -24.667 -14 -44 -14h-7c-67.333 5.33301 -101 46.666 -101 123.999c0 30.667 5.33301 67.334 16 110.001c7.33301 25.333 21.333 57.666 42 96.999c-68 -88.667 -130.667 -147 -188 -175c-20.667 -9.33301 -39 -14 -55 -14s-30 6.5 -42 19.5s-18 28 -18 45
s2.5 36.333 7.5 58s27.167 84.5 66.5 188.5c49.333 130 74 211 74 243c0 44.667 -29 67 -87 67s-126 -19.333 -204 -58c-25.333 -12 -42.833 -22 -52.5 -30s-16.834 -12 -21.501 -12c-7.33301 0 -13.166 5 -17.499 15s-6.5 19.833 -6.5 29.5s2.5 18.5 7.5 26.5
s9.5 13.667 13.5 17c31.333 25.333 86.666 44.666 165.999 57.999c40 7.33301 80.667 11 122 11s77.5 -8.66699 108.5 -26s46.5 -43 46.5 -77c0 -8 -1 -16.667 -3 -26c-6.66699 -33.333 -37 -101.833 -91 -205.5s-86 -170.334 -96 -200.001s-15 -52.334 -15 -68.001
s3.5 -28.5 10.5 -38.5s17.833 -15 32.5 -15s34.334 6.5 59.001 19.5s50.167 31.333 76.5 55s48.833 46.334 67.5 68.001s40.5 50.334 65.5 86.001s43.167 63.167 54.5 82.5l97 160c6.66699 11.333 12.167 17 16.5 17s8 -1.5 11 -4.5s3.5 -6.5 1.5 -10.5zM667.001 643.001
c-22 -18.667 -45.333 -33.334 -70 -44.001s-42.667 -16 -54 -16s-17 1.16699 -17 3.5s1.33301 5.5 4 9.5s5.16699 5.83301 7.5 5.5s3.83301 -0.5 4.5 -0.5c14 0 33.5 6.5 58.5 19.5s49.167 28.833 72.5 47.5c9.33301 13.333 21.5 26 36.5 38s23.167 18 24.5 18
s-0.5 -4.16699 -5.5 -12.5s-7.5 -19.666 -7.5 -33.999s3.66699 -28.833 11 -43.5c13.333 -27.333 30.333 -41 51 -41c2 0 5.5 0.333008 10.5 1s7.5 -0.333008 7.5 -3c0 -4 -6.33301 -7.83301 -19 -11.5s-26.5 -5.5 -41.5 -5.5s-29.167 4.66699 -42.5 14
c-20.667 14.667 -31 33 -31 55z" />
    <glyph glyph-name="Udieresis" unicode="&#xdc;" horiz-adv-x="674" 
d="M703 636c8 9.33301 15.334 14.833 22.001 16.5s12.167 2.5 16.5 2.5s9.33301 -2 15 -6s8 -11.333 7 -22s-5.66699 -20.5 -14 -29.5s-17.5 -14.667 -27.5 -17s-18.333 -0.833008 -25 4.5s-9.33398 12.833 -8.00098 22.5s6 19.167 14 28.5zM581.001 636
c8 9.33301 15.334 14.833 22.001 16.5s12.167 2.5 16.5 2.5s9.33301 -2 15 -6s8 -11.333 7 -22s-5.5 -20.5 -13.5 -29.5s-17.167 -14.667 -27.5 -17s-18.833 -0.833008 -25.5 4.5s-9.33398 12.833 -8.00098 22.5s6 19.167 14 28.5zM770.002 452
c-121.333 -212 -185.998 -381.999 -193.998 -509.999c-1.33301 -15.333 -2 -29.166 -2 -41.499s3.33301 -26.833 10 -43.5c8 -20.667 22.667 -31 44 -31c10 0 18.167 2.83301 24.5 8.5s9.66602 7 9.99902 4s-1.5 -6.16699 -5.5 -9.5c-10 -9.33301 -24.667 -14 -44 -14h-7
c-67.333 5.33301 -101 46.666 -101 123.999c0 30.667 5.33301 67.334 16 110.001c7.33301 25.333 21.333 57.666 42 96.999c-68 -88.667 -130.667 -147 -188 -175c-20.667 -9.33301 -39 -14 -55 -14s-30 6.5 -42 19.5s-18 28 -18 45s2.5 36.333 7.5 58
s27.167 84.5 66.5 188.5c49.333 130 74 211 74 243c0 44.667 -29 67 -87 67s-126 -19.333 -204 -58c-25.333 -12 -42.833 -22 -52.5 -30s-16.834 -12 -21.501 -12c-7.33301 0 -13.166 5 -17.499 15s-6.5 19.833 -6.5 29.5s2.5 18.5 7.5 26.5s9.5 13.667 13.5 17
c31.333 25.333 86.666 44.666 165.999 57.999c40 7.33301 80.667 11 122 11s77.5 -8.66699 108.5 -26s46.5 -43 46.5 -77c0 -8 -1 -16.667 -3 -26c-6.66699 -33.333 -37 -101.833 -91 -205.5s-86 -170.334 -96 -200.001s-15 -52.334 -15 -68.001s3.5 -28.5 10.5 -38.5
s17.833 -15 32.5 -15s34.334 6.5 59.001 19.5s50.167 31.333 76.5 55s48.833 46.334 67.5 68.001s40.5 50.334 65.5 86.001s43.167 63.167 54.5 82.5l97 160c6.66699 11.333 12.167 17 16.5 17s7.66602 -1.16699 9.99902 -3.5s3.5 -4.5 3.5 -6.5s-0.333008 -3.66699 -1 -5z
" />
    <glyph glyph-name="Yacute" unicode="&#xdd;" horiz-adv-x="912" 
d="M880 755c1.33301 -2 2 -5.50098 2 -10.501s-7.5 -13.833 -22.5 -26.5s-40.5 -25.5 -76.5 -38.5s-68.833 -20 -98.5 -21s-44.834 0.833008 -45.501 5.5c-1.33301 3.33301 0.833984 5.33301 6.50098 6s8.83398 1 9.50098 1c34.667 2.66699 71.167 16.334 109.5 41.001
s57.5 44.667 57.5 60c0 2.66699 -0.666992 5.16699 -2 7.5s-0.833008 3.5 1.5 3.5s10.166 -2.33301 23.499 -7s25 -11.667 35 -21zM543 411.999c-10 -18 -35.0068 -60.667 -75.0068 -128s-70.333 -122.166 -91 -164.499s-31 -73.833 -31 -94.5s8.33301 -31 25 -31
c18.667 0 47.334 16.5 86.001 49.5s74.334 68.5 107.001 106.5s56 67.333 70 88c108 156.667 174.667 277.334 200 362.001c4.66699 15.333 9.66699 23.666 15 24.999c6 5.33301 10.667 3.33301 14 -6c12.667 -34 19 -77.5 19 -130.5s-10.667 -120.167 -32 -201.5
c-36.667 -144 -83.667 -254.667 -141 -332c-44.667 -60.667 -95.667 -109.834 -153 -147.501s-115.833 -56.5 -175.5 -56.5s-109.667 17.333 -150 52s-65.166 88.667 -74.499 162c-0.666992 5.33301 -0.166992 9 1.5 11s3.66699 2 6 0s3.83301 -5 4.5 -9
c8.66699 -56 29.834 -101.667 63.501 -137s72.834 -53 117.501 -53c64.667 0 131.667 39.667 201 119c118.667 135.333 202 275.666 250 420.999c31.333 93.333 47 172.666 47 237.999v19c-16 -54 -43 -115 -81 -183c-54 -95.333 -114.333 -179 -181 -251
c-104 -112 -181 -168 -231 -168c-25.333 0 -38 13.333 -38 40c0 18 6.33301 43.5 19 76.5s26.334 63.5 41.001 91.5c28 54 59.167 109.833 93.5 167.5s55 98.334 62 122.001s10.5 42.167 10.5 55.5c0 48.667 -35.667 73 -107 73s-167 -20 -287 -60
c-82.667 -28.667 -124 -55 -124 -79c0 -8.66699 6 -17.334 18 -26.001c3.33301 -2 3 -3.16699 -1 -3.5s-7.33301 0.5 -10 2.5c-14.667 10 -22 23.333 -22 40c0 37.333 20.333 68 61 92c48.667 28 107.667 50.667 177 68c74.667 19.333 142.334 29 203.001 29
c94.667 0 144.667 -25.333 150 -76v-20.5c0 -8.33301 -1.66699 -19.666 -5 -33.999s-10.333 -33.166 -21 -56.499s-21 -44 -31 -62z" />
    <glyph glyph-name="Thorn" unicode="&#xde;" horiz-adv-x="539" 
d="M436 457c36 4.66699 67.6689 7.00586 95.002 7.00586s56.5 -4.33301 87.5 -13s55.5 -23 73.5 -43c22.667 -26 34 -57.333 34 -94c0 -49.333 -22 -99 -66 -149c-25.333 -28.667 -56 -53.667 -92 -75c-55.333 -32 -122 -60 -200 -84s-144.667 -36 -200 -36
c-14.667 0 -29 0.666992 -43 2c-60 -88.667 -97.667 -152.334 -113 -191.001c-4 -11.333 -10.667 -17 -20 -17c-4.66699 0 -7 3.33301 -7 10c0 26 35.667 93.667 107 203c-26.667 6.66699 -48.667 17 -66 31c-20 16 -30 32.667 -30 50s6 31.666 18 42.999
c5.33301 4.66699 8.16602 5.16699 8.49902 1.5s-1.5 -8.33398 -5.5 -14.001s-6 -11.5 -6 -17.5c0 -40.667 30.333 -67 91 -79l121 187.5l121 188.5c-126.667 -30 -213.334 -65 -260.001 -105c-11.333 -8.66699 -15.333 -15.834 -12 -21.501s4 -8.83398 2 -9.50098
s-4.66699 0.333008 -8 3c-14 8.66699 -23 19 -27 31s-6 20.833 -6 26.5s1.66699 10.167 5 13.5c20.667 30.667 65.667 59.167 135 85.5s144.666 46.166 225.999 59.499c81.333 122.667 124.333 184 129 184c2.66699 0 5.33398 -3 8.00098 -9s3.66699 -10.333 3 -13z
M158.002 -12.9941c59.333 0 129.667 13.333 211 40s143 54.167 185 82.5s73 57 93 86s30 55.833 30 80.5s-7.66699 46.667 -23 66c-26.667 33.333 -74.667 50 -144 50c-40 0 -81.333 -5 -124 -15c-139.333 -222 -222.333 -351.667 -249 -389
c6.66699 -0.666992 13.667 -1 21 -1z" />
    <glyph glyph-name="germandbls" unicode="&#xdf;" horiz-adv-x="643" 
d="M704 565c0 -27.333 -15.999 -55.3291 -47.999 -83.9961c-50 -45.333 -116 -82.333 -198 -111c-14.667 -4.66699 -22 -9.66699 -22 -15c1.33301 -4.66699 7.66602 -7.33398 18.999 -8.00098c55.333 -2 99.333 -12 132 -30c39.333 -22 59 -53 59 -93
c0 -52.667 -26.667 -104.334 -80 -155.001c-88.667 -84.667 -203.334 -127 -344.001 -127c-36.667 0 -69.167 3.83301 -97.5 11.5s-46.833 14.334 -55.5 20.001s-19.167 13.5 -31.5 23.5s-15.166 15 -8.49902 15c3.33301 0 13.333 -3 30 -9s47.5 -9 92.5 -9
s93.167 5.16699 144.5 15.5s95.333 25.833 132 46.5s65.667 44 87 70c26 31.333 39 63 39 95c0 17.333 -4.66699 35 -14 53s-28 31.833 -56 41.5s-53 14.5 -75 14.5s-39 -0.666992 -51 -2s-18 2.66699 -18 12c0.666992 12.667 12 23.334 34 32.001l19 6
c164 40 246 95.333 246 166c0 58 -39 87 -117 87c-40.667 0 -82 -16.333 -124 -49c-92.667 -72.667 -232 -273.334 -418 -602.001c-29.333 -52 -47.666 -82.333 -54.999 -91l-24 -27c-12 -13.333 -27.667 -24 -47 -32c-2.66699 -0.666992 -5.66699 -1 -9 -1
s-6 1.16699 -8 3.5s-3 4.16602 -3 5.49902c0 4 4 8 12 12c29.333 13.333 72.666 71 129.999 173c12 20.667 32 57 60 109c62 116.667 106.333 195.167 133 235.5l51 77.5c7.33301 11.333 20 28.833 38 52.5s33 41.667 45 54s27.833 27.166 47.5 44.499
s38.167 30.666 55.5 39.999c44 22 87.667 33 131 33c111.333 0 167 -34.667 167 -104z" />
    <glyph glyph-name="agrave" unicode="&#xe0;" horiz-adv-x="482" 
d="M283.5 367.5c-30.333 13.667 -50.998 26.3301 -61.998 37.9971s-16.5 19.834 -16.5 24.501s1.33301 9 4 13s11.167 7.83301 25.5 11.5s22.666 5.5 24.999 5.5s3 -1.16699 2 -3.5s-1.5 -5.16602 -1.5 -8.49902c0 -13.333 15.167 -31.833 45.5 -55.5
s60.5 -37.834 90.5 -42.501c8 -1.33301 12.667 -3.33301 14 -6c1.33301 -5.33301 -11.834 -6.16602 -39.501 -2.49902s-56.667 12.334 -87 26.001zM344.502 125.996c-7.66699 -10 -17.334 -23.667 -29.001 -41s-17.5 -32 -17.5 -44s5.16699 -18 15.5 -18
s27.166 6.33301 50.499 19c46.667 26.667 98.334 66.667 155.001 120c6.66699 6.66699 11 7.66699 13 3v-4c0 -2 -1.33301 -4.33301 -4 -7c-114.667 -108 -198 -162 -250 -162c-15.333 0 -28.166 5.16699 -38.499 15.5s-15.5 22.5 -15.5 36.5s6 35.333 18 64
c-30 -37.333 -62.167 -66.166 -96.5 -86.499s-61.166 -30.5 -80.499 -30.5s-35.833 5.83301 -49.5 17.5s-20.5 26.167 -20.5 43.5c0 49.333 22 97.666 66 144.999c33.333 35.333 74.666 60.333 123.999 75c22 7.33301 43.5 11 64.5 11s41.333 -5.83301 61 -17.5
s32.167 -25.5 37.5 -41.5c20 0 34.333 -7.33301 43 -22c1.33301 -2 2 -5.33301 2 -10s-2.5 -10 -7.5 -16l-18.5 -22c-7.33301 -8.66699 -14.833 -18 -22.5 -28zM294.002 252.996c-14 0 -30.667 -4.33301 -50 -13c-34 -14.667 -66.333 -40 -97 -76
c-48.667 -57.333 -73 -99.333 -73 -126c0 -14 5.66699 -21 17 -21c9.33301 0 24.833 6 46.5 18s50.167 35.667 85.5 71l23 22l34 33c31.333 32.667 47 56.167 47 70.5s-11 21.5 -33 21.5z" />
    <glyph glyph-name="aacute" unicode="&#xe1;" horiz-adv-x="482" 
d="M448 428c2.66699 -2.66699 4.00098 -6.83008 4.00098 -12.4971s-7.5 -14.834 -22.5 -27.501s-40.5 -25.334 -76.5 -38.001s-68.833 -19.5 -98.5 -20.5s-44.834 0.833008 -45.501 5.5c-1.33301 4 4 6.33301 16 7c34.667 2 71.167 15.333 109.5 40s57.5 44.667 57.5 60
c0 3.33301 -0.5 6.16602 -1.5 8.49902s-0.5 3.5 1.5 3.5s9 -1.83301 21 -5.5s23.667 -10.5 35 -20.5zM344.501 126.004c-7.66699 -10 -17.334 -23.667 -29.001 -41s-17.5 -32 -17.5 -44s5.16699 -18 15.5 -18s27.166 6.33301 50.499 19
c46.667 26.667 98.334 66.667 155.001 120c6.66699 6.66699 11 7.66699 13 3v-4c0 -2 -1.33301 -4.33301 -4 -7c-114.667 -108 -198 -162 -250 -162c-15.333 0 -28.166 5.16699 -38.499 15.5s-15.5 22.5 -15.5 36.5s6 35.333 18 64
c-30 -37.333 -62.167 -66.166 -96.5 -86.499s-61.166 -30.5 -80.499 -30.5s-35.833 5.83301 -49.5 17.5s-20.5 26.167 -20.5 43.5c0 49.333 22 97.666 66 144.999c33.333 35.333 74.666 60.333 123.999 75c22 7.33301 43.5 11 64.5 11s41.333 -5.83301 61 -17.5
s32.167 -25.5 37.5 -41.5c20 0 34.333 -7.33301 43 -22c1.33301 -2 2 -5.33301 2 -10s-2.5 -10 -7.5 -16l-18.5 -22c-7.33301 -8.66699 -14.833 -18 -22.5 -28zM294.001 253.004c-14 0 -30.667 -4.33301 -50 -13c-34 -14.667 -66.333 -40 -97 -76
c-48.667 -57.333 -73 -99.333 -73 -126c0 -14 5.66699 -21 17 -21c9.33301 0 24.833 6 46.5 18s50.167 35.667 85.5 71l23 22l34 33c31.333 32.667 47 56.167 47 70.5s-11 21.5 -33 21.5z" />
    <glyph glyph-name="acircumflex" unicode="&#xe2;" horiz-adv-x="482" 
d="M344.5 126c-7.66699 -10 -17.334 -23.667 -29.001 -41s-17.5 -32 -17.5 -44s5.16699 -18 15.5 -18s27.166 6.33301 50.499 19c46.667 26.667 98.334 66.667 155.001 120c6.66699 6.66699 11 7.66699 13 3v-4c0 -2 -1.33301 -4.33301 -4 -7
c-114.667 -108 -198 -162 -250 -162c-15.333 0 -28.166 5.16699 -38.499 15.5s-15.5 22.5 -15.5 36.5s6 35.333 18 64c-30 -37.333 -62.167 -66.166 -96.5 -86.499s-61.166 -30.5 -80.499 -30.5s-35.833 5.83301 -49.5 17.5s-20.5 26.167 -20.5 43.5
c0 49.333 22 97.666 66 144.999c33.333 35.333 74.666 60.333 123.999 75c22 7.33301 43.5 11 64.5 11s41.333 -5.83301 61 -17.5s32.167 -25.5 37.5 -41.5c20 0 34.333 -7.33301 43 -22c1.33301 -2 2 -5.33301 2 -10s-2.5 -10 -7.5 -16l-18.5 -22
c-7.33301 -8.66699 -14.833 -18 -22.5 -28zM74 38c0 -14 5.66797 -21.001 17.001 -21.001c9.33301 0 24.833 6 46.5 18s50.167 35.667 85.5 71l23 22c13.333 12.667 24.5 23.667 33.5 33s16.667 17.833 23 25.5s12.166 15.834 17.499 24.501c8 15.333 8 27 0 35
c-7.33301 4.66699 -17 7 -29 7s-27.667 -4.33301 -47 -13c-34 -14.667 -66.333 -40 -97 -76c-48.667 -57.333 -73 -99.333 -73 -126zM431.001 348.999c2 0 5.49902 0.333008 10.499 1s7.5 -0.333008 7.5 -3c0 -3.33301 -6.33301 -6.83301 -19 -10.5s-26.5 -5.5 -41.5 -5.5
s-29.167 4.33301 -42.5 13c-20.667 14.667 -31 33 -31 55c-22 -18 -45.333 -32.333 -70 -43s-45.667 -16 -63 -16h-3c-3.33301 0 -5 1 -5 3s1.33301 5 4 9s5.16699 6 7.5 6h4.5c14.667 0 34.334 6.33301 59.001 19s48.667 28.667 72 48c0 0.666992 0.666992 1.66699 2 3
c7.33301 10.667 18.5 22.167 33.5 34.5s23.167 18.5 24.5 18.5s-0.166992 -4.33301 -4.5 -13s-6.5 -18 -6.5 -28c0 -30.667 7.16699 -53.5 21.5 -68.5s27.5 -22.5 39.5 -22.5z" />
    <glyph glyph-name="atilde" unicode="&#xe3;" horiz-adv-x="482" 
d="M428 362c-24 -18 -50 -27.001 -78 -27.001c-8.66699 0 -17.834 3.16699 -27.501 9.5s-20.5 13.833 -32.5 22.5c-13.333 9.33301 -24 14 -32 14c-15.333 0 -33.333 -10.333 -54 -31c-5.33301 -6 -9.16602 -7.5 -11.499 -4.5s-1.5 6.5 2.5 10.5
c39.333 37.333 70.833 56 94.5 56s43 -3.5 58 -10.5l33 -15.5c7 -3.33301 13 -5 18 -5s10.167 1 15.5 3c12.667 6.66699 21 14.334 25 23.001c6 -1.33301 9.66699 -4.33301 11 -9c2 -10.667 -5.33301 -22.667 -22 -36zM344.5 125.999
c-7.66699 -10 -17.334 -23.667 -29.001 -41s-17.5 -32 -17.5 -44s5.16699 -18 15.5 -18s27.166 6.33301 50.499 19c46.667 26.667 98.334 66.667 155.001 120c6.66699 6.66699 11 7.66699 13 3v-4c0 -2 -1.33301 -4.33301 -4 -7c-114.667 -108 -198 -162 -250 -162
c-15.333 0 -28.166 5.16699 -38.499 15.5s-15.5 22.5 -15.5 36.5s6 35.333 18 64c-30 -37.333 -62.167 -66.166 -96.5 -86.499s-61.166 -30.5 -80.499 -30.5s-35.833 5.83301 -49.5 17.5s-20.5 26.167 -20.5 43.5c0 49.333 22 97.666 66 144.999
c33.333 35.333 74.666 60.333 123.999 75c22 7.33301 43.5 11 64.5 11s41.333 -5.83301 61 -17.5s32.167 -25.5 37.5 -41.5c20 0 34.333 -7.33301 43 -22c1.33301 -2 2 -5.33301 2 -10s-2.5 -10 -7.5 -16l-18.5 -22c-7.33301 -8.66699 -14.833 -18 -22.5 -28zM294 252.999
c-14 0 -30.667 -4.33301 -50 -13c-34 -14.667 -66.333 -40 -97 -76c-48.667 -57.333 -73 -99.333 -73 -126c0 -14 5.66699 -21 17 -21c9.33301 0 24.833 6 46.5 18s50.167 35.667 85.5 71l23 22l34 33c31.333 32.667 47 56.167 47 70.5s-11 21.5 -33 21.5z" />
    <glyph glyph-name="adieresis" unicode="&#xe4;" horiz-adv-x="482" 
d="M371 385c10.667 12.667 23.3311 19.002 37.998 19.002c4.66699 0 9.83398 -2.33301 15.501 -7s7.83398 -11.834 6.50098 -21.501s-6 -19 -14 -28s-17 -15 -27 -18s-18.333 -1.83301 -25 3.5s-9.5 13.166 -8.5 23.499s5.83301 19.833 14.5 28.5zM248.997 385.002
c8 9.33301 15.334 14.832 22.001 16.499s12.167 2.5 16.5 2.5s9.33301 -2.16699 15 -6.5s8 -11.666 7 -21.999s-5.66699 -19.833 -14 -28.5s-17.5 -14.5 -27.5 -17.5s-18.333 -1.83301 -25 3.5s-9.33398 13 -8.00098 23s6 19.667 14 29zM344.498 126.001
c-7.66699 -10 -17.334 -23.667 -29.001 -41s-17.5 -32 -17.5 -44s5.16699 -18 15.5 -18s27.166 6.33301 50.499 19c46.667 26.667 98.334 66.667 155.001 120c6.66699 6.66699 11 7.66699 13 3v-4c0 -2 -1.33301 -4.33301 -4 -7c-114.667 -108 -198 -162 -250 -162
c-15.333 0 -28.166 5.16699 -38.499 15.5s-15.5 22.5 -15.5 36.5s6 35.333 18 64c-30 -37.333 -62.167 -66.166 -96.5 -86.499s-61.166 -30.5 -80.499 -30.5s-35.833 5.83301 -49.5 17.5s-20.5 26.167 -20.5 43.5c0 49.333 22 97.666 66 144.999
c33.333 35.333 74.666 60.333 123.999 75c22 7.33301 43.5 11 64.5 11s41.333 -5.83301 61 -17.5s32.167 -25.5 37.5 -41.5c20 0 34.333 -7.33301 43 -22c1.33301 -2 2 -5.33301 2 -10s-2.5 -10 -7.5 -16l-18.5 -22c-7.33301 -8.66699 -14.833 -18 -22.5 -28z
M293.998 253.001c-14 0 -30.667 -4.33301 -50 -13c-34 -14.667 -66.333 -40 -97 -76c-48.667 -57.333 -73 -99.333 -73 -126c0 -14 5.66699 -21 17 -21c9.33301 0 24.833 6 46.5 18s50.167 35.667 85.5 71l23 22l34 33c31.333 32.667 47 56.167 47 70.5s-11 21.5 -33 21.5z
" />
    <glyph glyph-name="aring" unicode="&#xe5;" horiz-adv-x="482" 
d="M362 491c40 0 59.999 -15.999 59.999 -47.999c0 -23.333 -11.667 -47.5 -35 -72.5s-54.333 -43.167 -93 -54.5c-14 -4 -26 -6 -36 -6c-22 0 -34.667 9.66699 -38 29c-4.66699 23.333 4 49.666 26 78.999c14 18.667 28 34 42 46c22.667 18 47.334 27 74.001 27z
M344.499 126.001c-7.66699 -10 -17.334 -23.667 -29.001 -41s-17.5 -32 -17.5 -44s5.16699 -18 15.5 -18s27.166 6.33301 50.499 19c46.667 26.667 98.334 66.667 155.001 120c6.66699 6.66699 11 7.66699 13 3v-4c0 -2 -1.33301 -4.33301 -4 -7
c-114.667 -108 -198 -162 -250 -162c-15.333 0 -28.166 5.16699 -38.499 15.5s-15.5 22.5 -15.5 36.5s6 35.333 18 64c-30 -37.333 -62.167 -66.166 -96.5 -86.499s-61.166 -30.5 -80.499 -30.5s-35.833 5.83301 -49.5 17.5s-20.5 26.167 -20.5 43.5
c0 49.333 22 97.666 66 144.999c33.333 35.333 74.666 60.333 123.999 75c22 7.33301 43.5 11 64.5 11s41.333 -5.83301 61 -17.5s32.167 -25.5 37.5 -41.5c20 0 34.333 -7.33301 43 -22c1.33301 -2 2 -5.33301 2 -10s-2.5 -10 -7.5 -16l-18.5 -22
c-7.33301 -8.66699 -14.833 -18 -22.5 -28zM332.999 451.001c-19.333 0 -39.667 -11.3311 -61 -33.998s-32 -42.834 -32 -60.501s7.66699 -26.5 23 -26.5c8 0 19.333 3 34 9s29.667 17 45 33c17.333 18.667 26 35.167 26 49.5s-3.33301 22.166 -10 23.499
c-8 4 -16.333 6 -25 6zM293.998 253.003c-14 0 -30.667 -4.33301 -50 -13c-34 -14.667 -66.333 -40 -97 -76c-48.667 -57.333 -73 -99.333 -73 -126c0 -14 5.66699 -21 17 -21c9.33301 0 24.833 6 46.5 18s50.167 35.667 85.5 71l23 22l34 33
c31.333 32.667 47 56.167 47 70.5s-11 21.5 -33 21.5z" />
    <glyph glyph-name="ae" unicode="&#xe6;" horiz-adv-x="586" 
d="M532 216c0 19.333 -12.002 29.002 -36.002 29.002c-35.333 0 -76.333 -27.333 -123 -82c-36.667 -43.333 -55 -79.666 -55 -108.999c0 -12.667 5.16699 -23.167 15.5 -31.5s25.166 -12.5 44.499 -12.5c32 0 72.5 17 121.5 51s89.833 67.333 122.5 100
c8 7.33301 12 7.33301 12 0c0 -4.66699 -2 -9 -6 -13c-62.667 -56.667 -108.334 -94.334 -137.001 -113.001c-50.667 -34 -98.667 -51.333 -144 -52c-10.667 -1.33301 -21 -2 -31 -2c-29.333 0 -51.833 6.66699 -67.5 20s-23.5 27.666 -23.5 42.999
c0 14.667 5.66699 36 17 64c-30 -37.333 -62.167 -66.166 -96.5 -86.499s-61.166 -30.5 -80.499 -30.5s-35.833 5.83301 -49.5 17.5s-20.5 26.167 -20.5 43.5c0 49.333 22 97.666 66 144.999c33.333 35.333 74.666 60.333 123.999 75c22 7.33301 43.5 11 64.5 11
s40.333 -5.16699 58 -15.5s29.834 -21.5 36.501 -33.5c43.333 28 87.333 42 132 42c38 0 63.333 -8 76 -24c5.33301 -8 8 -16.5 8 -25.5s-3 -18.833 -9 -29.5c-12 -20.667 -34.5 -38.834 -67.5 -54.501s-64.167 -23.5 -93.5 -23.5c-11.333 0 -17.666 1 -18.999 3
s-0.666016 3.66699 2.00098 5l12 1c26.667 0 57.834 9.5 93.501 28.5s53.5 38.833 53.5 59.5zM293.998 253.002c-14 0 -30.667 -4.33301 -50 -13c-34 -14.667 -66.333 -40 -97 -76c-48.667 -57.333 -73 -99.333 -73 -126c0 -14 5.66699 -21 17 -21
c9.33301 0 24.833 6 46.5 18s50.167 35.667 85.5 71l23 22l34 33c31.333 32.667 47 56.167 47 70.5s-11 21.5 -33 21.5z" />
    <glyph glyph-name="ccedilla" unicode="&#xe7;" horiz-adv-x="342" 
d="M290 237c0 12.667 -6.66602 19.001 -19.999 19.001c-11.333 0 -28.833 -5.16699 -52.5 -15.5s-50.167 -32.5 -79.5 -66.5c-35.333 -42 -53 -79.333 -53 -112c0 -24.667 9.33301 -41.334 28 -50.001c6 -2.66699 13 -4 21 -4c27.333 0 59.5 11.667 96.5 35
s84.833 62 143.5 116c9.33301 9.33301 14 9.33301 14 0c0 -4 -2 -7.66699 -6 -11c-81.333 -74.667 -141.333 -120.834 -180 -138.501s-73 -26.5 -103 -26.5c-8 0 -16 0.666992 -24 2c-14.667 -10.667 -22 -23 -22 -37c0 -6.66699 7.16699 -20.167 21.5 -40.5
s21.5 -36.5 21.5 -48.5c0 -2.66699 -0.333008 -5 -1 -7c-8.66699 -34 -56.667 -51 -144 -51c-3.33301 0 -5 1.33301 -5 4c0 6.66699 8.66699 10.834 26 12.501s29.166 3.16699 35.499 4.5s12.833 5.33301 19.5 12c10.667 10.667 16 20.667 16 30s-3.16699 20.5 -9.5 33.5
s-9.5 22.5 -9.5 28.5c0 26 11.333 47 34 63c-41.333 10.667 -62 37 -62 79c0 56.667 25.5 105.5 76.5 146.5s104.167 61.5 159.5 61.5c34.667 0 58 -8 70 -24c7.33301 -8 11 -16.5 11 -25.5s-2.33301 -18.333 -7 -28s-12.167 -14.5 -22.5 -14.5s-11.833 6.5 -4.5 19.5
s11 24.167 11 33.5z" />
    <glyph glyph-name="egrave" unicode="&#xe8;" horiz-adv-x="342" 
d="M187.5 367.5c-30.333 13.667 -51 26.3291 -62 37.9961s-16.5 19.834 -16.5 24.501s1.33301 9 4 13s11.167 7.83301 25.5 11.5s22.666 5.5 24.999 5.5s3.5 -1 3.5 -3c-2 -3.33301 -3 -6.66602 -3 -9.99902c0 -13.333 15.167 -31.666 45.5 -54.999s60.5 -37.333 90.5 -42
c8 -1.33301 12.333 -3 13 -5c1.33301 -6 -11.667 -7.16699 -39 -3.5s-56.166 12.334 -86.499 26.001zM233 155.995c35.333 19.333 52.999 39.002 52.999 59.002s-12 30 -36 30c-11.333 0 -23.333 -3 -36 -9c-28 -12.667 -55 -34.667 -81 -66
c-32 -38.667 -48 -74.667 -48 -108c0 -12.667 3.5 -24.5 10.5 -35.5s19.5 -16.5 37.5 -16.5c31.333 0 71 16.5 119 49.5s89.333 66.167 124 99.5c8 8 12 8.33301 12 1c0 -4.66699 -2 -8.66699 -6 -12l-49.5 -45.5c-8.33301 -7.66699 -24.833 -21.334 -49.5 -41.001
s-44.667 -33.5 -60 -41.5c-47.333 -24.667 -87.5 -37 -120.5 -37s-59 7.5 -78 22.5s-28.5 35.833 -28.5 62.5c0 56.667 25.333 105.5 76 146.5s103.667 61.5 159 61.5c37.333 0 62.333 -8 75 -24c5.33301 -8 8 -16.5 8 -25.5s-3 -18.833 -9 -29.5
c-12 -20.667 -34.5 -38.834 -67.5 -54.501s-64.167 -23.5 -93.5 -23.5c-11.333 0 -17.5 1 -18.5 3s-0.166992 3.5 2.5 4.5s6.33398 1.5 11.001 1.5c26.667 0 58 9.33301 94 28z" />
    <glyph glyph-name="eacute" unicode="&#xe9;" horiz-adv-x="342" 
d="M402 426c1.33301 -2 2 -5.66602 2 -10.999s-7.5 -14.333 -22.5 -27s-40.5 -25.334 -76.5 -38.001s-68.833 -19.5 -98.5 -20.5s-45.167 0.833008 -46.5 5.5c0 2 1.66699 3.66699 5 5l11 2c22 1.33301 47.167 8.5 75.5 21.5s50.833 27 67.5 42s25 27.5 25 37.5
c0 2.66699 -0.5 5.16699 -1.5 7.5s-0.5 3.5 1.5 3.5s9.66699 -2.33301 23 -7s25 -11.667 35 -21zM233 156.001c35.333 19.333 52.999 39.002 52.999 59.002s-12 30 -36 30c-11.333 0 -23.333 -3 -36 -9c-28 -12.667 -55 -34.667 -81 -66c-32 -38.667 -48 -74.667 -48 -108
c0 -12.667 3.5 -24.5 10.5 -35.5s19.5 -16.5 37.5 -16.5c31.333 0 71 16.5 119 49.5s89.333 66.167 124 99.5c8 8 12 8.33301 12 1c0 -4.66699 -2 -8.66699 -6 -12l-49.5 -45.5c-8.33301 -7.66699 -24.833 -21.334 -49.5 -41.001s-44.667 -33.5 -60 -41.5
c-47.333 -24.667 -87.5 -37 -120.5 -37s-59 7.5 -78 22.5s-28.5 35.833 -28.5 62.5c0 56.667 25.333 105.5 76 146.5s103.667 61.5 159 61.5c37.333 0 62.333 -8 75 -24c5.33301 -8 8 -16.5 8 -25.5s-3 -18.833 -9 -29.5c-12 -20.667 -34.5 -38.834 -67.5 -54.501
s-64.167 -23.5 -93.5 -23.5c-11.333 0 -17.5 1 -18.5 3s-0.166992 3.5 2.5 4.5s6.33398 1.5 11.001 1.5c26.667 0 58 9.33301 94 28z" />
    <glyph glyph-name="ecircumflex" unicode="&#xea;" horiz-adv-x="342" 
d="M233 156c35.333 19.333 53 39.002 53 59.002s-12 30 -36 30c-11.333 0 -23.333 -3 -36 -9c-28 -12.667 -55 -34.667 -81 -66c-32 -38.667 -48 -74.667 -48 -108c0 -12.667 3.5 -24.5 10.5 -35.5s19.5 -16.5 37.5 -16.5c31.333 0 71 16.5 119 49.5s89.333 66.167 124 99.5
c8 8 12.167 9.16699 12.5 3.5s-1.83398 -10.5 -6.50098 -14.5l-49.5 -45.5c-8.33301 -7.66699 -24.833 -21.334 -49.5 -41.001s-44.667 -33.5 -60 -41.5c-47.333 -24.667 -87.5 -37 -120.5 -37s-59 7.5 -78 22.5s-28.5 35.833 -28.5 62.5c0 56.667 25.333 105.5 76 146.5
s103.667 61.5 159 61.5c37.333 0 62.333 -8 75 -24c5.33301 -8 8 -16.5 8 -25.5s-3 -18.833 -9 -29.5c-12 -20.667 -34.5 -38.834 -67.5 -54.501s-64.167 -23.5 -93.5 -23.5c-11.333 0 -17.5 1 -18.5 3s-0.166992 3.5 2.5 4.5s6.33398 1.5 11.001 1.5
c26.667 0 58 9.33301 94 28zM470 349.002c-28 -4 -50.9971 -8 -68.9971 -12s-34.5 -6 -49.5 -6s-28.833 4.33301 -41.5 13c-21.333 14 -32.333 32 -33 54c-48.667 -38.667 -92 -58 -130 -58c-7.33301 0 -11 1 -11 3s1.33301 5 4 9s5.16699 6 7.5 6h4.5
c14.667 0 34.334 6.33301 59.001 19s48.667 28.667 72 48c0 0.666992 0.666992 1.66699 2 3c9.33301 12.667 21.166 24.667 35.499 36s22.166 17 23.499 17s0.666016 -2.33301 -2.00098 -7s-4 -11.667 -4 -21s6.66699 -22.833 20 -40.5s31.666 -32.667 54.999 -45
s42.333 -18.5 57 -18.5z" />
    <glyph glyph-name="edieresis" unicode="&#xeb;" horiz-adv-x="342" 
d="M323 385c8 9.33301 15.334 14.832 22.001 16.499s12.167 2.5 16.5 2.5s9.33301 -2.16699 15 -6.5s8 -11.666 7 -21.999s-5.66699 -19.833 -14 -28.5s-17.5 -14.5 -27.5 -17.5s-18.333 -1.83301 -25 3.5s-9.33398 13 -8.00098 23s6 19.667 14 29zM201.001 384.999
c8 9.33301 15.334 14.832 22.001 16.499s12.167 2.5 16.5 2.5s9.33301 -2.16699 15 -6.5s8 -11.666 7 -21.999s-5.5 -19.833 -13.5 -28.5s-17.167 -14.5 -27.5 -17.5s-18.833 -1.83301 -25.5 3.5s-9.33398 13 -8.00098 23s6 19.667 14 29zM233.002 155.998
c35.333 19.333 52.999 39.002 52.999 59.002s-12 30 -36 30c-11.333 0 -23.333 -3 -36 -9c-28 -12.667 -55 -34.667 -81 -66c-32 -38.667 -48 -74.667 -48 -108c0 -12.667 3.5 -24.5 10.5 -35.5s19.5 -16.5 37.5 -16.5c31.333 0 71 16.5 119 49.5s89.333 66.167 124 99.5
c8 8 12 8.33301 12 1c0 -4.66699 -2 -8.66699 -6 -12l-49.5 -45.5c-8.33301 -7.66699 -24.833 -21.334 -49.5 -41.001s-44.667 -33.5 -60 -41.5c-47.333 -24.667 -87.5 -37 -120.5 -37s-59 7.5 -78 22.5s-28.5 35.833 -28.5 62.5c0 56.667 25.333 105.5 76 146.5
s103.667 61.5 159 61.5c37.333 0 62.333 -8 75 -24c5.33301 -8 8 -16.5 8 -25.5s-3 -18.833 -9 -29.5c-12 -20.667 -34.5 -38.834 -67.5 -54.501s-64.167 -23.5 -93.5 -23.5c-11.333 0 -17.5 1 -18.5 3s-0.166992 3.5 2.5 4.5s6.33398 1.5 11.001 1.5
c26.667 0 58 9.33301 94 28z" />
    </font>
</defs>
</svg>
